<svg id="MarekMediaLogo" data-name="Layer 1" xmlns="http://www.w3.org/2000/svg" viewBox="0 0 368.3 101">
   <g style="display: none">
      <path class="cls-1" style="stroke: #013cfe; stroke-miterlimit: 10;  stroke-width: 2px; fill: #013cfe;"
         d="M77.3,28.2h8.6V70.8H97v7.4H85.9V92.4H78V78.2H45V71.1ZM78,70.8V39.3L54.4,70.8Z"
         transform="translate(-0.1 0.7)" />
      <path class="cls-1" style="stroke: #013cfe; stroke-miterlimit: 10;  stroke-width: 2px; fill: #013cfe;"
         d="M124,40.7h17.5v7.1H124V65.3h-7.1V47.8H99.4V40.7h17.5V23.2H124Z" transform="translate(-0.1 0.7)" />
      <path class="cls-1" style="stroke: #013cfe; stroke-miterlimit: 10;  stroke-width: 2px; fill: #013cfe;"
         d="M158.2,70a4.7,4.7,0,0,1,1.4,3.5,4.4,4.4,0,0,1-1.4,3.5,4.8,4.8,0,0,1-3.4,1.3,4.5,4.5,0,0,1-3.4-1.3,4.1,4.1,0,0,1-1.5-3.5,4.4,4.4,0,0,1,1.5-3.5,4.9,4.9,0,0,1,3.4-1.2A5.2,5.2,0,0,1,158.2,70Zm-.1-11.9h-6.7l-.6-46.9h7.9Z"
         transform="translate(-0.1 0.7)" />
      <path class="cls-1" style="stroke: #013cfe; stroke-miterlimit: 10;  stroke-width: 2px; fill: #013cfe;"
         d="M208,11.2h7.5V77.3h-6.8V69.8q-7.6,8.7-18.3,8.7a21.5,21.5,0,0,1-16.2-6.8,24.1,24.1,0,0,1-6.5-17.1,23.9,23.9,0,0,1,6.5-17,21.5,21.5,0,0,1,16.2-6.8,22.2,22.2,0,0,1,17.6,8ZM208,49a19.5,19.5,0,0,0-6.6-8,17,17,0,0,0-10.2-3.2,15.5,15.5,0,0,0-11.4,4.7c-3,3-4.5,7.1-4.5,12.1s1.5,9.1,4.5,12.2a15.5,15.5,0,0,0,11.4,4.7,17,17,0,0,0,10.2-3.2,19.5,19.5,0,0,0,6.6-8Z"
         transform="translate(-0.1 0.7)" />
      <path class="cls-1" style="stroke: #013cfe; stroke-miterlimit: 10;  stroke-width: 2px; fill: #013cfe;"
         d="M274.8,66,287,77.3h-9.6l-7.2-6.5c-5.9,5.1-13.4,7.7-22.6,7.7-6.9,0-12.3-1.6-16.3-4.8a15.1,15.1,0,0,1-6-12.3c0-6.9,4.7-13.1,14-18.6l-.2-.2c-5.2-5.1-7.8-10.3-7.8-15.5A15.3,15.3,0,0,1,237.2,15a21.9,21.9,0,0,1,14.6-5c5.3,0,9.6,1.4,12.9,4.1a12.9,12.9,0,0,1,4.9,10.5,14.1,14.1,0,0,1-1.7,6.6,17.4,17.4,0,0,1-4.9,5.7,56.2,56.2,0,0,1-5.6,4,63,63,0,0,1-6.1,3.3l17.9,16.7a22.9,22.9,0,0,0,4.1-14.5h8A31.2,31.2,0,0,1,274.8,66Zm-41.5-4.9a8.8,8.8,0,0,0,3.8,7.5c2.6,1.8,6.2,2.7,11,2.7a26.3,26.3,0,0,0,16.6-5.5l-20-18.1C237.1,51.8,233.3,56.3,233.3,61.1Zm18.4-43.9a14.2,14.2,0,0,0-9.1,2.9,8.7,8.7,0,0,0-3.6,7c0,3.6,2.4,7.7,7,12.2,10.6-4.8,15.8-9.5,15.8-14.1a7.2,7.2,0,0,0-2.7-5.9C257.3,17.9,254.9,17.2,251.7,17.2Z"
         transform="translate(-0.1 0.7)" />
      <path class="cls-1" style="stroke: #013cfe; stroke-miterlimit: 10;  stroke-width: 2px; fill: #013cfe;"
         d="M306.6,30.8l-7.1,11.4-5.7-4,8.2-10-12.3-3,2.5-6.7,11.7,4.7-.8-12h7l-.8,12,11.8-4.7,2.3,6.7-12.3,3,8.3,10-5.7,4Z"
         transform="translate(-0.1 0.7)" />
      <path class="cls-1" style="fill: #013cfe;"
         d="M23.8,44.3l-9.7,5.6L4.5,44.3H.1V65H4.5l8.6-5,1-.6,1.1.6,8.6,5h4.4V44.3ZM4.5,60V49.3l9.3,5.4Zm10-5.3,9.3-5.4V60Z"
         transform="translate(-0.1 0.7)" />
   </g>
   <g style="display: none">
      <path class="cls-1" style="stroke: #013cfe; stroke-miterlimit: 10;  stroke-width: 2px; fill: #013cfe;"
         d="M51.4,91.5H45.3l5.2-21.7h8Zm5.6-58a4.5,4.5,0,0,1,1.4,3.6A4.2,4.2,0,0,1,57,40.6a4.8,4.8,0,0,1-3.6,1.3,4.9,4.9,0,0,1-3.5-1.3,4.5,4.5,0,0,1-1.4-3.5,4.9,4.9,0,0,1,1.4-3.6,5.4,5.4,0,0,1,3.5-1.3A5.3,5.3,0,0,1,57,33.5Z"
         transform="translate(-0.1 0.7)" />
      <path class="cls-1" style="stroke: #013cfe; stroke-miterlimit: 10;  stroke-width: 2px; fill: #013cfe;"
         d="M110.1,69.8q-7.6,8.7-18.3,8.7a21.5,21.5,0,0,1-16.2-6.8,24.1,24.1,0,0,1-6.5-17.1,23.9,23.9,0,0,1,6.5-17,21.5,21.5,0,0,1,16.2-6.8q10.7,0,18.3,8.7V32h6.8V77.3h-6.8ZM81.3,42.5c-3.1,3-4.6,7.1-4.6,12.1s1.5,9.1,4.6,12.2a15.2,15.2,0,0,0,11.4,4.7,17.4,17.4,0,0,0,10.2-3.2,20.1,20.1,0,0,0,6.5-8V49a20.1,20.1,0,0,0-6.5-8,17.4,17.4,0,0,0-10.2-3.2A15.2,15.2,0,0,0,81.3,42.5Z"
         transform="translate(-0.1 0.7)" />
      <path class="cls-1" style="stroke: #013cfe; stroke-miterlimit: 10;  stroke-width: 2px; fill: #013cfe;"
         d="M136.8,77.3h-7.6L133,61.2h-7.4V54.6h9L139,35.7h-8.6V29.1h10.3L144.4,13H152l-3.8,16.1h17.2L169.2,13h7.6L173,29.1h7.3v6.6h-8.9l-4.5,18.9h8.6v6.6H165.3l-3.8,16.1H154l3.8-16.1H140.6Zm9.8-41.6-4.4,18.9h17.2l4.4-18.9Z"
         transform="translate(-0.1 0.7)" />
      <path class="cls-1" style="stroke: #013cfe; stroke-miterlimit: 10;  stroke-width: 2px; fill: #013cfe;"
         d="M230.2,29.4a14.9,14.9,0,0,1-2.6,8.8,12.6,12.6,0,0,1-6.7,5.4,17.4,17.4,0,0,1,8.4,5.5c2.4,2.7,3.6,6.3,3.6,10.7,0,6-2.2,10.6-6.7,13.8s-10,4.9-16.8,4.9A54.6,54.6,0,0,1,187,74.2V66.4c6.1,3.1,13.3,4.7,21.7,4.6,11,0,16.5-3.8,16.5-11.5S220,47.9,209.5,47.9h-9.8V40.4h9c4.5,0,8-1,10.3-2.9a9.1,9.1,0,0,0,3.6-7.5,9,9,0,0,0-4-7.9c-2.6-1.9-6.4-2.9-11.2-2.9a40.4,40.4,0,0,0-19.3,4.9V16.5a43.1,43.1,0,0,1,20.3-4.6c6.6,0,11.8,1.6,15.8,4.9A15.4,15.4,0,0,1,230.2,29.4Z"
         transform="translate(-0.1 0.7)" />
      <path class="cls-1" style="stroke: #013cfe; stroke-miterlimit: 10;  stroke-width: 2px; fill: #013cfe;"
         d="M250.3,77.3h-7.6V32h7.6V50.9h9.1L273.8,32h8.8L265.4,54.6l19.3,22.7h-8.9L259.2,57.9h-8.9Z"
         transform="translate(-0.1 0.7)" />
      <path class="cls-1" style="fill: #013cfe;"
         d="M23.8,44.3l-9.7,5.6L4.5,44.3H.1V65H4.5l8.6-5,1-.6,1.1.6,8.6,5h4.4V44.3ZM4.5,60V49.3l9.3,5.4Zm10-5.3,9.3-5.4V60Z"
         transform="translate(-0.1 0.7)" />
   </g>
   <g style="display: none">
      <path class="cls-1" style="stroke: #013cfe; stroke-miterlimit: 10;  stroke-width: 2px; fill: #013cfe;"
         d="M85,39.2H45V32.1H85Zm0,17.2H45V49.3H85Z" transform="translate(-0.1 0.7)" />

      <path class="cls-1" style="stroke: #013cfe; stroke-miterlimit: 10;  stroke-width: 2px; fill: #013cfe;"
         d="M143.5,66l12.2,11.3h-9.5L139,70.8c-6,5.1-13.5,7.7-22.6,7.7-6.9,0-12.4-1.6-16.4-4.8a15.2,15.2,0,0,1-5.9-12.3c0-6.9,4.6-13.1,14-18.6l-.2-.2c-5.2-5.1-7.9-10.3-7.9-15.5A15.3,15.3,0,0,1,105.9,15a22.1,22.1,0,0,1,14.6-5c5.3,0,9.6,1.4,12.9,4.1a12.6,12.6,0,0,1,4.9,10.5,14,14,0,0,1-1.6,6.6,18.7,18.7,0,0,1-4.9,5.7c-2.2,1.7-4,3-5.6,4s-3.7,2.1-6.1,3.3l17.8,16.7a22.9,22.9,0,0,0,4.2-14.5H150A30.7,30.7,0,0,1,143.5,66ZM102,61.1a8.8,8.8,0,0,0,3.8,7.5q3.9,2.7,11.1,2.7a26,26,0,0,0,16.5-5.5L113.5,47.7C105.8,51.8,102,56.3,102,61.1Zm18.4-43.9a14.2,14.2,0,0,0-9.1,2.9,8.9,8.9,0,0,0-3.5,7c0,3.6,2.3,7.7,7,12.2,10.5-4.8,15.8-9.5,15.8-14.1a7.2,7.2,0,0,0-2.7-5.9Q125.2,17.2,120.4,17.2Z"
         transform="translate(-0.1 0.7)" />
      <path class="cls-1" style="stroke: #013cfe; stroke-miterlimit: 10;  stroke-width: 2px; fill: #013cfe;"
         d="M168.8,77.3h-7.5V32h33.1v7H168.8Z" transform="translate(-0.1 0.7)" />
      <path class="cls-1" style="stroke: #013cfe; stroke-miterlimit: 10;  stroke-width: 2px; fill: #013cfe;"
         d="M198.1,54.6q0-11.1,6.9-17.4a22.1,22.1,0,0,1,15.7-6.4c5.6,0,10.1,1.4,13.8,4.2a19.3,19.3,0,0,1,7.1,10.2,26.3,26.3,0,0,1,.2,12.8H205.7a12.9,12.9,0,0,0,5.9,10.1,23.9,23.9,0,0,0,12.8,3.4,30.8,30.8,0,0,0,14.9-3.7v7.4c-4.2,2.2-9.5,3.3-16,3.3s-13.2-2.1-18-6.2S198.1,62.3,198.1,54.6Zm37-3.3a9.6,9.6,0,0,0-.3-4.1,17.2,17.2,0,0,0-2-4.4,11.9,11.9,0,0,0-4.5-3.6,17.3,17.3,0,0,0-7.1-1.4,16.2,16.2,0,0,0-10.6,3.6,12.9,12.9,0,0,0-4.9,9.9Z"
         transform="translate(-0.1 0.7)" />
      <path class="cls-1" style="stroke: #013cfe; stroke-miterlimit: 10;  stroke-width: 2px; fill: #013cfe;"
         d="M262.8,87.7H245.1V80.2h9.7V8.3h-9.7V.8h17.7Z" transform="translate(-0.1 0.7)" />
      <path class="cls-1" style="stroke: #013cfe; stroke-miterlimit: 10;  stroke-width: 2px; fill: #013cfe;"
         d="M307.5,55.1v7.4L271.9,48V40.5L307.5,26v7.4L279.6,44.2Z" transform="translate(-0.1 0.7)" />
      <path class="cls-1" style="fill: #013cfe;"
         d="M23.8,44.3l-9.7,5.6L4.5,44.3H.1V65H4.5l8.6-5,1-.6,1.1.6,8.6,5h4.4V44.3ZM4.5,60V49.3l9.3,5.4Zm10-5.3,9.3-5.4V60Z"
         transform="translate(-0.1 0.7)" />
   </g>
   <g style="display: none" id="Nová_finální_verze-2" data-name="Nová finální verze">
      <path class="cls-1" style="stroke: #013cfe; stroke-miterlimit: 10;  stroke-width: 2px; fill: #013cfe;"
         d="M123.4,41.4h-8.5l17.7-30.2h6.6l17.7,30.2h-8.5L135.9,19.6Z" transform="translate(-0.1 0.7)" />
      <path class="cls-1" style="stroke: #013cfe; stroke-miterlimit: 10;  stroke-width: 2px; fill: #013cfe;"
         d="M213.5,66l12.2,11.3h-9.6L209,70.8c-6,5.1-13.5,7.7-22.6,7.7-7,0-12.4-1.6-16.4-4.8a15,15,0,0,1-5.9-12.3c0-6.9,4.6-13.1,14-18.6l-.2-.2c-5.3-5.1-7.9-10.3-7.9-15.5A15.3,15.3,0,0,1,175.9,15a22.1,22.1,0,0,1,14.6-5c5.3,0,9.6,1.4,12.9,4.1a12.6,12.6,0,0,1,4.9,10.5,14.1,14.1,0,0,1-1.7,6.6,18.3,18.3,0,0,1-4.8,5.7,56.2,56.2,0,0,1-5.7,4q-2.4,1.5-6,3.3l17.8,16.7a22.9,22.9,0,0,0,4.2-14.5H220A31.2,31.2,0,0,1,213.5,66ZM172,61.1a8.8,8.8,0,0,0,3.8,7.5c2.6,1.8,6.3,2.7,11,2.7a25.6,25.6,0,0,0,16.6-5.5l-20-18.1C175.8,51.8,172,56.3,172,61.1Zm18.4-43.9a14.2,14.2,0,0,0-9.1,2.9,8.6,8.6,0,0,0-3.5,7c0,3.6,2.3,7.7,7,12.2,10.5-4.8,15.7-9.5,15.7-14.1a7.2,7.2,0,0,0-2.7-5.9C196.1,17.9,193.6,17.2,190.4,17.2Z"
         transform="translate(-0.1 0.7)" />
      <path class="cls-1" style="stroke: #013cfe; stroke-miterlimit: 10;  stroke-width: 2px; fill: #013cfe;"
         d="M228.1,54.6q0-11.1,6.9-17.4a22.3,22.3,0,0,1,15.7-6.4c5.6,0,10.1,1.4,13.8,4.2a19.3,19.3,0,0,1,7.1,10.2,26.3,26.3,0,0,1,.2,12.8H235.7a12.9,12.9,0,0,0,5.9,10.1,23.9,23.9,0,0,0,12.8,3.4,30.8,30.8,0,0,0,14.9-3.7v7.4c-4.2,2.2-9.5,3.3-16,3.3s-13.2-2.1-18-6.2S228.1,62.3,228.1,54.6Zm37-3.3a9.6,9.6,0,0,0-.3-4.1,17.2,17.2,0,0,0-2-4.4,11.9,11.9,0,0,0-4.5-3.6,17.3,17.3,0,0,0-7.1-1.4,16.4,16.4,0,0,0-10.6,3.6,12.9,12.9,0,0,0-4.9,9.9Z"
         transform="translate(-0.1 0.7)" />
      <path class="cls-1" style="stroke: #013cfe; stroke-miterlimit: 10;  stroke-width: 2px; fill: #013cfe;"
         d="M288.8,77.3h-7.6V32h7.6V50.9H298L312.3,32h8.8L303.9,54.6l19.3,22.7h-8.9L297.7,57.9h-8.9Z"
         transform="translate(-0.1 0.7)" />
      <polygon class="cls-1" style="fill: #013cfe;"
         points="43.9 31.7 43.9 40.5 43.9 79.1 53.4 79.1 53.4 40.5 69.7 40.5 69.7 79.1 79.1 79.1 79.1 40.5 95.4 40.5 95.4 79.1 104.9 79.1 104.9 40.5 104.9 31.7 43.9 31.7" />
      <path class="cls-1" style="fill: #013cfe;"
         d="M23.8,44.3l-9.7,5.6L4.5,44.3H.1V65H4.5l8.6-5,1-.6,1.1.6,8.6,5h4.4V44.3ZM4.5,60V49.3l9.3,5.4Zm10-5.3,9.3-5.4V60Z"
         transform="translate(-0.1 0.7)" />
   </g>
   <g style="display: none" id="Nová_finální_verze-3" data-name="Nová finální verze">
      <path class="cls-1" style="stroke: #013cfe; stroke-miterlimit: 10;  stroke-width: 2px; fill: #013cfe;"
         d="M53,86.8H45V.8h8Z" transform="translate(-0.1 0.7)" />
      <path class="cls-1" style="stroke: #013cfe; stroke-miterlimit: 10;  stroke-width: 2px; fill: #013cfe;"
         d="M102.7,69.8Q95,78.5,84.4,78.5a21.9,21.9,0,0,1-16.3-6.8c-4.3-4.6-6.4-10.3-6.4-17.1a23.8,23.8,0,0,1,6.4-17,21.9,21.9,0,0,1,16.3-6.8q10.6,0,18.3,8.7V32h6.8V77.3h-6.8ZM73.8,42.5a16.5,16.5,0,0,0-4.6,12.1,16.8,16.8,0,0,0,4.6,12.2,15.5,15.5,0,0,0,11.4,4.7,17.4,17.4,0,0,0,10.2-3.2,19.3,19.3,0,0,0,6.5-8V49a19.3,19.3,0,0,0-6.5-8,17.4,17.4,0,0,0-10.2-3.2A15.5,15.5,0,0,0,73.8,42.5Z"
         transform="translate(-0.1 0.7)" />
      <path class="cls-1" style="stroke: #013cfe; stroke-miterlimit: 10;  stroke-width: 2px; fill: #013cfe;"
         d="M134.9,30.8l-7.1,11.4-5.7-4,8.2-10-12.3-3,2.5-6.7,11.7,4.7-.8-12h7l-.8,12,11.8-4.7,2.3,6.7-12.3,3,8.3,10-5.7,4Z"
         transform="translate(-0.1 0.7)" />
      <path class="cls-1" style="stroke: #013cfe; stroke-miterlimit: 10;  stroke-width: 2px; fill: #013cfe;"
         d="M156.2,54.6c0-7.4,2.3-13.2,6.8-17.4a22.3,22.3,0,0,1,15.8-6.4c5.5,0,10.1,1.4,13.7,4.2a19.3,19.3,0,0,1,7.1,10.2,25.2,25.2,0,0,1,.2,12.8H163.7a13.3,13.3,0,0,0,6,10.1,23.6,23.6,0,0,0,12.7,3.4,30.9,30.9,0,0,0,15-3.7v7.4c-4.2,2.2-9.6,3.3-16.1,3.3s-13.2-2.1-17.9-6.2S156.2,62.3,156.2,54.6Zm36.9-3.3a9.6,9.6,0,0,0-.3-4.1,12.3,12.3,0,0,0-2-4.4,11.9,11.9,0,0,0-4.5-3.6,17.3,17.3,0,0,0-7.1-1.4,16.4,16.4,0,0,0-10.6,3.6,13.2,13.2,0,0,0-4.9,9.9Z"
         transform="translate(-0.1 0.7)" />
      <path class="cls-1" style="stroke: #013cfe; stroke-miterlimit: 10;  stroke-width: 2px; fill: #013cfe;"
         d="M245.5,48,209.9,62.5V55.1l27.9-10.9L209.9,33.4V26l35.6,14.5Z" transform="translate(-0.1 0.7)" />
      <path class="cls-1" style="stroke: #013cfe; stroke-miterlimit: 10;  stroke-width: 2px; fill: #013cfe;"
         d="M256.7,82.8H251L279.2,5.7h5.7Z" transform="translate(-0.1 0.7)" />
      <path class="cls-1" style="fill: #013cfe;"
         d="M23.8,44.3l-9.7,5.6L4.5,44.3H.1V65H4.5l8.6-5,1-.6,1.1.6,8.6,5h4.4V44.3ZM4.5,60V49.3l9.3,5.4Zm10-5.3,9.3-5.4V60Z"
         transform="translate(-0.1 0.7)" />
   </g>
   <g style="display: none" id="Nová_finální_verze-4" data-name="Nová finální verze">
      <path class="cls-1" style="stroke: #013cfe; stroke-miterlimit: 10;  stroke-width: 2px; fill: #013cfe;"
         d="M67.1,57.7H59.5a16,16,0,0,1,2.7-8.5,37.6,37.6,0,0,1,5.9-7.5,53.2,53.2,0,0,0,5.8-7.3,13.8,13.8,0,0,0,2.7-7.6c0-6.1-4.8-9.2-14.5-9.2a33.9,33.9,0,0,0-17.1,5V15a36,36,0,0,1,18.3-5c6.3,0,11.4,1.4,15.4,4.2s5.9,6.6,5.9,11.8a16.8,16.8,0,0,1-1.8,7.4A27.2,27.2,0,0,1,78.4,40c-1.7,2-3.4,4-5.2,5.9a30.7,30.7,0,0,0-4.3,5.9A11.5,11.5,0,0,0,67.1,57.7Zm-.3,12.2a4.4,4.4,0,0,1,1.4,3.5,4.7,4.7,0,0,1-1.4,3.5,5.4,5.4,0,0,1-3.5,1.3,5.7,5.7,0,0,1-3.6-1.3,4.7,4.7,0,0,1-1.4-3.5,4.4,4.4,0,0,1,1.4-3.5,5.2,5.2,0,0,1,3.6-1.3A4.9,4.9,0,0,1,66.8,69.9Z"
         transform="translate(-0.1 0.7)" />
      <path class="cls-1" style="stroke: #013cfe; stroke-miterlimit: 10;  stroke-width: 2px; fill: #013cfe;"
         d="M131,69.8q-7.6,8.7-18.3,8.7a21.5,21.5,0,0,1-16.2-6.8A24.1,24.1,0,0,1,90,54.6a23.9,23.9,0,0,1,6.5-17,21.5,21.5,0,0,1,16.2-6.8q10.6,0,18.3,8.7V32h6.8V77.3H131ZM102.2,42.5c-3.1,3-4.6,7.1-4.6,12.1s1.5,9.1,4.6,12.2a15.2,15.2,0,0,0,11.4,4.7,17.4,17.4,0,0,0,10.2-3.2,20.1,20.1,0,0,0,6.5-8V49a20.1,20.1,0,0,0-6.5-8,17.4,17.4,0,0,0-10.2-3.2A15.2,15.2,0,0,0,102.2,42.5Z"
         transform="translate(-0.1 0.7)" />
      <path class="cls-1" style="stroke: #013cfe; stroke-miterlimit: 10;  stroke-width: 2px; fill: #013cfe;"
         d="M157.6,77.3H150V32h33.2v7H157.6Z" transform="translate(-0.1 0.7)" />
      <path class="cls-1" style="stroke: #013cfe; stroke-miterlimit: 10;  stroke-width: 2px; fill: #013cfe;"
         d="M237.1,66l12.2,11.3h-9.6l-7.2-6.5c-5.9,5.1-13.4,7.7-22.6,7.7-6.9,0-12.3-1.6-16.3-4.8a15.1,15.1,0,0,1-6-12.3c0-6.9,4.7-13.1,14-18.6l-.2-.2c-5.2-5.1-7.8-10.3-7.8-15.5A15.3,15.3,0,0,1,199.5,15a21.9,21.9,0,0,1,14.6-5c5.3,0,9.6,1.4,12.9,4.1a12.9,12.9,0,0,1,4.9,10.5,14.1,14.1,0,0,1-1.7,6.6,17.4,17.4,0,0,1-4.9,5.7,56.2,56.2,0,0,1-5.6,4,63,63,0,0,1-6.1,3.3l17.9,16.7a23.5,23.5,0,0,0,4.1-14.5h8A31.2,31.2,0,0,1,237.1,66Zm-41.5-4.9a8.8,8.8,0,0,0,3.8,7.5c2.6,1.8,6.2,2.7,11,2.7A26.3,26.3,0,0,0,227,65.8L207,47.7C199.4,51.8,195.6,56.3,195.6,61.1ZM214,17.2a14,14,0,0,0-9.1,2.9,8.7,8.7,0,0,0-3.6,7c0,3.6,2.4,7.7,7,12.2,10.6-4.8,15.8-9.5,15.8-14.1a7.2,7.2,0,0,0-2.7-5.9C219.6,17.9,217.2,17.2,214,17.2Z"
         transform="translate(-0.1 0.7)" />
      <path class="cls-1" style="stroke: #013cfe; stroke-miterlimit: 10;  stroke-width: 2px; fill: #013cfe;"
         d="M262.1,70a4.7,4.7,0,0,1,1.4,3.5,4.4,4.4,0,0,1-1.4,3.5,5.1,5.1,0,0,1-6.8,0,4.4,4.4,0,0,1-1.4-3.5,4.7,4.7,0,0,1,1.4-3.5,5.4,5.4,0,0,1,6.8,0ZM262,58.1h-6.6l-.7-46.9h8Z"
         transform="translate(-0.1 0.7)" />
      <path class="cls-1" style="stroke: #013cfe; stroke-miterlimit: 10;  stroke-width: 2px; fill: #013cfe;"
         d="M297.4,14c3,2.7,4.5,6.3,4.5,10.9s-1.5,8.2-4.5,10.8a15.6,15.6,0,0,1-10.9,4,16.1,16.1,0,0,1-11.1-4q-4.5-3.9-4.5-10.8c0-4.6,1.5-8.2,4.5-10.9a16.6,16.6,0,0,1,11.1-4A16.1,16.1,0,0,1,297.4,14Zm-17.1,5a8.2,8.2,0,0,0-2.2,5.9,7.9,7.9,0,0,0,8.4,8.2,7.5,7.5,0,0,0,6-2.4,7.9,7.9,0,0,0,2.2-5.8,8.2,8.2,0,0,0-2.2-5.9c-1.4-1.6-3.4-2.3-6-2.3S281.8,17.4,280.3,19Zm14.3,64h-7.5L325.7,5.5h7.6Zm50.2-30.2q4.5,3.9,4.5,10.8c0,4.6-1.5,8.2-4.5,10.9a16.1,16.1,0,0,1-10.9,4,16.3,16.3,0,0,1-11-4c-3.1-2.7-4.6-6.3-4.6-10.9s1.5-8.2,4.6-10.8a15.9,15.9,0,0,1,11-4A15.6,15.6,0,0,1,344.8,52.8Zm-17.1,5a8.3,8.3,0,0,0-2.2,5.8,8.6,8.6,0,0,0,2.2,5.9,8.1,8.1,0,0,0,6.2,2.3,7.8,7.8,0,0,0,6.1-2.3,8.5,8.5,0,0,0,2.1-5.9,8.3,8.3,0,0,0-2.1-5.8,7.9,7.9,0,0,0-6.1-2.4A8.1,8.1,0,0,0,327.7,57.8Z"
         transform="translate(-0.1 0.7)" />
      <path class="cls-1" style="fill: #013cfe;"
         d="M23.8,44.3l-9.7,5.6L4.5,44.3H.1V65H4.5l8.6-5,1-.6,1.1.6,8.6,5h4.4V44.3ZM4.5,60V49.3l9.3,5.4Zm10-5.3,9.3-5.4V60Z"
         transform="translate(-0.1 0.7)" />
   </g>
   <g style="display: none" id="Nová_finální_verze-5" data-name="Nová finální verze">
      <path class="cls-1" style="stroke: #013cfe; stroke-miterlimit: 10;  stroke-width: 2px; fill: #013cfe;"
         d="M129.4,76.9c0,4.2-1.3,7.4-3.9,9.4s-6.3,2.4-11.1,1.4V81.1c2.6.4,4.4-.1,5.5-1.3s1.5-3.4,1.5-6.3V54.6a13.5,13.5,0,0,1,1.6-7.2,6.1,6.1,0,0,1,3.8-3.2,5.7,5.7,0,0,1-3.8-3.1,13.5,13.5,0,0,1-1.6-7.2V15q0-4.4-1.5-6.3c-1.1-1.2-2.9-1.7-5.5-1.3V.8c4.8-1,8.5-.5,11.1,1.4s3.9,5.2,3.9,9.4V33.3c0,2.8.8,4.8,2.3,6a6.9,6.9,0,0,0,5.2,1.6v6.7a6.7,6.7,0,0,0-5.2,1.6c-1.5,1.2-2.3,3.2-2.3,6Z"
         transform="translate(-0.1 0.7)" />
      <path class="cls-1" style="stroke: #013cfe; stroke-miterlimit: 10;  stroke-width: 2px; fill: #013cfe;"
         d="M152.4,77.3h-7.5V32h33.2v7H152.4Z" transform="translate(-0.1 0.7)" />
      <path class="cls-1" style="stroke: #013cfe; stroke-miterlimit: 10;  stroke-width: 2px; fill: #013cfe;"
         d="M207.8,89.6h-6.6V78.3c-7.3-.7-13.6-2.5-18.8-5.5V64.9q9.9,6,23.1,6c10.7,0,16-3.3,16-9.8a9,9,0,0,0-2.1-6.1,13.5,13.5,0,0,0-5.6-3.9,61.2,61.2,0,0,0-7.6-2.6L197.9,46a48.2,48.2,0,0,1-7.6-3.2,14.2,14.2,0,0,1-5.6-5.3,14.8,14.8,0,0,1-2.1-8.1,14.8,14.8,0,0,1,5.2-11.9c3.4-3,7.9-4.8,13.4-5.4V.8h6.6V12a40,40,0,0,1,17.5,4.7v8c-5.5-3.6-12-5.3-19.5-5.2-10.1,0-15.2,3.2-15.2,9.6a8.4,8.4,0,0,0,2.1,5.8,14.8,14.8,0,0,0,5.6,3.7,68,68,0,0,0,7.6,2.4,79.3,79.3,0,0,1,8.3,2.5,40.5,40.5,0,0,1,7.6,3.3,15.3,15.3,0,0,1,5.6,5.4,15.8,15.8,0,0,1,2.2,8.3c0,5.9-2.1,10.4-6.1,13.3s-9.3,4.5-15.7,4.7Z"
         transform="translate(-0.1 0.7)" />
      <path class="cls-1" style="stroke: #013cfe; stroke-miterlimit: 10;  stroke-width: 2px; fill: #013cfe;"
         d="M285.2,66l12.2,11.3h-9.5l-7.2-6.5c-5.9,5.1-13.5,7.7-22.6,7.7-6.9,0-12.4-1.6-16.4-4.8a15.2,15.2,0,0,1-5.9-12.3c0-6.9,4.6-13.1,14-18.6l-.2-.2c-5.2-5.1-7.9-10.3-7.9-15.5A15.3,15.3,0,0,1,247.6,15a22.3,22.3,0,0,1,14.6-5c5.3,0,9.6,1.4,12.9,4.1A12.6,12.6,0,0,1,280,24.6a14,14,0,0,1-1.6,6.6,18.7,18.7,0,0,1-4.9,5.7c-2.2,1.7-4,3-5.6,4s-3.7,2.1-6.1,3.3l17.8,16.7a22.9,22.9,0,0,0,4.2-14.5h7.9A30.7,30.7,0,0,1,285.2,66Zm-41.5-4.9a8.6,8.6,0,0,0,3.9,7.5c2.5,1.8,6.2,2.7,11,2.7a26,26,0,0,0,16.5-5.5L255.2,47.7C247.5,51.8,243.7,56.3,243.7,61.1Zm18.5-43.9a14.3,14.3,0,0,0-9.2,2.9,8.9,8.9,0,0,0-3.5,7c0,3.6,2.3,7.7,7,12.2,10.5-4.8,15.8-9.5,15.8-14.1a7.2,7.2,0,0,0-2.7-5.9A11.8,11.8,0,0,0,262.2,17.2Z"
         transform="translate(-0.1 0.7)" />
      <polygon class="cls-1" style="fill: #013cfe;"
         points="43.9 31.7 43.9 40.5 43.9 79.1 53.4 79.1 53.4 40.5 69.7 40.5 69.7 79.1 79.1 79.1 79.1 40.5 95.4 40.5 95.4 79.1 104.9 79.1 104.9 40.5 104.9 31.7 43.9 31.7" />
      <path class="cls-1" style="fill: #013cfe;"
         d="M23.8,44.3l-9.7,5.6L4.5,44.3H.1V65H4.5l8.6-5,1-.6,1.1.6,8.6,5h4.4V44.3ZM4.5,60V49.3l9.3,5.4Zm10-5.3,9.3-5.4V60Z"
         transform="translate(-0.1 0.7)" />
   </g>
   <g style="display: none" id="Nová_finální_verze-6" data-name="Nová finální verze">
      <path class="cls-1" style="stroke: #013cfe; stroke-miterlimit: 10;  stroke-width: 2px; fill: #013cfe;"
         d="M155.5,69.8c-5.1,5.8-11.3,8.7-18.4,8.7a21.5,21.5,0,0,1-16.2-6.8c-4.3-4.6-6.4-10.3-6.4-17.1a23.8,23.8,0,0,1,6.4-17,21.5,21.5,0,0,1,16.2-6.8c7.1,0,13.3,2.9,18.4,8.7V32h6.8V77.3h-6.8ZM126.6,42.5c-3.1,3-4.6,7.1-4.6,12.1s1.5,9.2,4.6,12.2A15.2,15.2,0,0,0,138,71.5a17.4,17.4,0,0,0,10.2-3.2,20.1,20.1,0,0,0,6.5-8V49a20.1,20.1,0,0,0-6.5-8A17.4,17.4,0,0,0,138,37.8,15.2,15.2,0,0,0,126.6,42.5Z"
         transform="translate(-0.1 0.7)" />
      <path class="cls-1" style="stroke: #013cfe; stroke-miterlimit: 10;  stroke-width: 2px; fill: #013cfe;"
         d="M231,74a40,40,0,0,1-18.7,4.5,35.7,35.7,0,0,1-20.4-6.4,30,30,0,0,1-12.2-17.4h-8.5V48.1h7.4c0-.6-.1-1.5-.1-2.8s.1-2.4.1-3h-7.4V35.7h8.5c2.1-7.5,6.1-13.4,12.2-17.5a35.2,35.2,0,0,1,20.5-6.3A38.8,38.8,0,0,1,231,16.4v7.9a30.5,30.5,0,0,0-17.3-4.8A30.9,30.9,0,0,0,198,23.6a22.3,22.3,0,0,0-9.8,12.1h31.2v6.6H186.7c-.1,1.2-.1,2.2-.1,3v2.8h32.8v6.6H188.2a22.3,22.3,0,0,0,10,12A30.6,30.6,0,0,0,214,70.9c6.8,0,12.4-1.6,17-4.8Z"
         transform="translate(-0.1 0.7)" />
      <path class="cls-1" style="stroke: #013cfe; stroke-miterlimit: 10;  stroke-width: 2px; fill: #013cfe;"
         d="M264.1,14c3,2.7,4.5,6.3,4.5,10.9s-1.5,8.2-4.5,10.8a15.6,15.6,0,0,1-10.9,4,15.9,15.9,0,0,1-11.1-4q-4.5-3.9-4.5-10.8c0-4.6,1.5-8.2,4.5-10.9a16.4,16.4,0,0,1,11.1-4A16.1,16.1,0,0,1,264.1,14ZM247,19a8.2,8.2,0,0,0-2.2,5.9,7.9,7.9,0,0,0,8.4,8.2,7.5,7.5,0,0,0,6-2.4,7.9,7.9,0,0,0,2.2-5.8,8.2,8.2,0,0,0-2.2-5.9c-1.4-1.6-3.4-2.3-6-2.3S248.5,17.4,247,19Zm14.3,64h-7.6L292.4,5.5H300Zm50.2-30.2q4.5,3.9,4.5,10.8c0,4.6-1.5,8.2-4.5,10.9a16.1,16.1,0,0,1-10.9,4,16.3,16.3,0,0,1-11-4c-3.1-2.7-4.6-6.3-4.6-10.9s1.5-8.2,4.6-10.8a15.9,15.9,0,0,1,11-4A15.6,15.6,0,0,1,311.5,52.8Zm-17.1,5a7.9,7.9,0,0,0-2.2,5.8,7.8,7.8,0,0,0,8.4,8.2,7.8,7.8,0,0,0,6.1-2.3,8.5,8.5,0,0,0,2.1-5.9,8.3,8.3,0,0,0-2.1-5.8,7.9,7.9,0,0,0-6.1-2.4A8.1,8.1,0,0,0,294.4,57.8Z"
         transform="translate(-0.1 0.7)" />
      <path class="cls-1" style="stroke: #013cfe; stroke-miterlimit: 10;  stroke-width: 2px; fill: #013cfe;"
         d="M331.9,77.3h-7.6V32h7.6V50.9h9.2L355.4,32h8.8L347,54.6l19.3,22.7h-8.9L340.8,57.9h-8.9Z"
         transform="translate(-0.1 0.7)" />
      <polygon class="cls-1" style="fill: #013cfe;"
         points="43.9 31.7 43.9 40.5 43.9 79.1 53.4 79.1 53.4 40.5 69.7 40.5 69.7 79.1 79.1 79.1 79.1 40.5 95.4 40.5 95.4 79.1 104.9 79.1 104.9 40.5 104.9 31.7 43.9 31.7" />
      <path class="cls-1" style="fill: #013cfe;"
         d="M23.8,44.3l-9.7,5.6L4.5,44.3H.1V65H4.5l8.6-5,1-.6,1.1.6,8.6,5h4.4V44.3ZM4.5,60V49.3l9.3,5.4Zm10-5.3,9.3-5.4V60Z"
         transform="translate(-0.1 0.7)" />
   </g>
   <g style="display: none" id="Nová_finální_verze-7" data-name="Nová finální verze">
      <path class="cls-1" style="stroke: #013cfe; stroke-miterlimit: 10;  stroke-width: 2px; fill: #013cfe;"
         d="M155.5,69.8c-5.1,5.8-11.3,8.7-18.4,8.7a21.5,21.5,0,0,1-16.2-6.8c-4.3-4.6-6.4-10.3-6.4-17.1a23.8,23.8,0,0,1,6.4-17,21.5,21.5,0,0,1,16.2-6.8c7.1,0,13.3,2.9,18.4,8.7V32h6.8V77.3h-6.8ZM126.6,42.5c-3.1,3-4.6,7.1-4.6,12.1s1.5,9.1,4.6,12.2A15.2,15.2,0,0,0,138,71.5a17.4,17.4,0,0,0,10.2-3.2,20.1,20.1,0,0,0,6.5-8V49a20.1,20.1,0,0,0-6.5-8A17.4,17.4,0,0,0,138,37.8,15.2,15.2,0,0,0,126.6,42.5Z"
         transform="translate(-0.1 0.7)" />
      <path class="cls-1" style="stroke: #013cfe; stroke-miterlimit: 10;  stroke-width: 2px; fill: #013cfe;"
         d="M196.3,40.7h17.5v7.1H196.3V65.3h-7.2V47.8H171.6V40.7h17.5V23.2h7.2Z" transform="translate(-0.1 0.7)" />
      <path class="cls-1" style="stroke: #013cfe; stroke-miterlimit: 10;  stroke-width: 2px; fill: #013cfe;"
         d="M220,54.6q0-11.1,6.9-17.4a22.1,22.1,0,0,1,15.7-6.4c5.5,0,10.1,1.4,13.7,4.2a19.5,19.5,0,0,1,7.2,10.2,26.3,26.3,0,0,1,.2,12.8H227.6a12.9,12.9,0,0,0,5.9,10.1,23.7,23.7,0,0,0,12.8,3.4,30.8,30.8,0,0,0,14.9-3.7v7.4c-4.2,2.2-9.6,3.3-16.1,3.3s-13.1-2.1-17.9-6.2S220,62.3,220,54.6Zm37-3.3a11.5,11.5,0,0,0-.3-4.1,14.7,14.7,0,0,0-2.1-4.4,10.8,10.8,0,0,0-4.4-3.6,17.6,17.6,0,0,0-7.1-1.4,16.7,16.7,0,0,0-10.7,3.6,12.8,12.8,0,0,0-4.8,9.9Z"
         transform="translate(-0.1 0.7)" />
      <path class="cls-1" style="stroke: #013cfe; stroke-miterlimit: 10;  stroke-width: 2px; fill: #013cfe;"
         d="M280.8,77.3h-7.6L277,61.2h-7.4V54.5h9L283,35.7h-8.7V29.1h10.3L288.4,13H296l-3.8,16.1h17.2L313.2,13h7.5L317,29.1h7.2v6.6h-8.8l-4.5,18.8h8.6v6.7H309.3l-3.8,16.1H298l3.7-16.1H284.5Zm9.8-41.6-4.4,18.8h17.2l4.4-18.8Z"
         transform="translate(-0.1 0.7)" />
      <polygon class="cls-1" style="fill: #013cfe;"
         points="43.9 31.7 43.9 40.5 43.9 79.1 53.4 79.1 53.4 40.5 69.7 40.5 69.7 79.1 79.1 79.1 79.1 40.5 95.4 40.5 95.4 79.1 104.9 79.1 104.9 40.5 104.9 31.7 43.9 31.7" />
      <path class="cls-1" style="fill: #013cfe;"
         d="M23.8,44.3l-9.7,5.6L4.5,44.3H.1V65H4.5l8.6-5,1-.6,1.1.6,8.6,5h4.4V44.3ZM4.5,60V49.3l9.3,5.4Zm10-5.3,9.3-5.4V60Z"
         transform="translate(-0.1 0.7)" />
   </g>
   <g style="display: none" id="Nová_finální_verze-8" data-name="Nová finální verze">
      <path class="cls-1" style="stroke: #013cfe; stroke-miterlimit: 10;  stroke-width: 2px; fill: #013cfe;"
         d="M155.5,69.8c-5.1,5.8-11.3,8.7-18.4,8.7a21.5,21.5,0,0,1-16.2-6.8c-4.3-4.6-6.4-10.3-6.4-17.1a23.8,23.8,0,0,1,6.4-17,21.5,21.5,0,0,1,16.2-6.8c7.1,0,13.3,2.9,18.4,8.7V32h6.8V77.3h-6.8ZM126.6,42.5c-3.1,3-4.6,7.1-4.6,12.1s1.5,9.1,4.6,12.2A15.2,15.2,0,0,0,138,71.5a17.4,17.4,0,0,0,10.2-3.2,20.1,20.1,0,0,0,6.5-8V49a20.1,20.1,0,0,0-6.5-8A17.4,17.4,0,0,0,138,37.8,15.2,15.2,0,0,0,126.6,42.5Z"
         transform="translate(-0.1 0.7)" />
      <path class="cls-1" style="stroke: #013cfe; stroke-miterlimit: 10;  stroke-width: 2px; fill: #013cfe;"
         d="M182,77.3h-7.5V32h33.1v7H182Z" transform="translate(-0.1 0.7)" />
      <path class="cls-1" style="stroke: #013cfe; stroke-miterlimit: 10;  stroke-width: 2px; fill: #013cfe;"
         d="M211.6,54.6A44.5,44.5,0,0,1,214.7,38a46.6,46.6,0,0,1,8.9-14.2,40.8,40.8,0,0,1,14.6-10,52.4,52.4,0,0,1,35.6-1.3,41.4,41.4,0,0,1,12.5,6.7,43.5,43.5,0,0,1,8.7,9.5,40.5,40.5,0,0,1,5.5,11A40.2,40.2,0,0,1,302.2,51c0,8.3-1.7,14.7-5,19a16.3,16.3,0,0,1-13.6,6.6,17.5,17.5,0,0,1-9.4-2.5,13.3,13.3,0,0,1-5.3-7.3c-3.1,5.2-7.9,7.8-14.3,7.8A17.5,17.5,0,0,1,241.3,69a20,20,0,0,1-5.2-14.1c0-5.6,1.7-10.4,5.2-14.1a17.2,17.2,0,0,1,13.3-5.7,16.4,16.4,0,0,1,8,2,14.6,14.6,0,0,1,5.4,5V36h7.4V60.8c0,6.1,2.8,9.2,8.3,9.2,3.5,0,6.2-1.8,7.9-5.2s2.7-8.1,2.7-13.8a30.7,30.7,0,0,0-2.4-11.8,35.9,35.9,0,0,0-6.8-10.7,32.6,32.6,0,0,0-11.5-7.9,39.9,39.9,0,0,0-15.7-3c-7.9,0-14.8,1.7-20.7,5.2a35.4,35.4,0,0,0-13.3,13.6,38.8,38.8,0,0,0-4.4,18.2,35.4,35.4,0,0,0,5.7,20.1A34.1,34.1,0,0,0,240,87.5a48.9,48.9,0,0,0,20.6,4.2,60.9,60.9,0,0,0,20.8-3.4v7.5a60.7,60.7,0,0,1-20.9,3.4,56.6,56.6,0,0,1-18.6-2.9,49,49,0,0,1-15.6-8.4,37.2,37.2,0,0,1-10.7-14.1A44.3,44.3,0,0,1,211.6,54.6ZM268,51.4a12.5,12.5,0,0,0-12.5-9.3,11.5,11.5,0,0,0-8.4,3.5,12.8,12.8,0,0,0-3.5,9.2,12.5,12.5,0,0,0,3.5,9.2,11.2,11.2,0,0,0,8.4,3.6,12.5,12.5,0,0,0,8.2-2.7,13.2,13.2,0,0,0,4.3-6.7Z"
         transform="translate(-0.1 0.7)" />
      <path class="cls-1" style="stroke: #013cfe; stroke-miterlimit: 10;  stroke-width: 2px; fill: #013cfe;"
         d="M326,30.8l-7.1,11.4-5.7-4,8.2-10-12.3-3,2.5-6.7,11.7,4.7-.8-12h7l-.8,12,11.8-4.7,2.4,6.7-12.3,3,8.2,10-5.7,4Z"
         transform="translate(-0.1 0.7)" />
      <polygon class="cls-1" style="fill: #013cfe;"
         points="43.9 31.7 43.9 40.5 43.9 79.1 53.4 79.1 53.4 40.5 69.7 40.5 69.7 79.1 79.1 79.1 79.1 40.5 95.4 40.5 95.4 79.1 104.9 79.1 104.9 40.5 104.9 31.7 43.9 31.7" />
      <path class="cls-1" style="fill: #013cfe;"
         d="M23.8,44.3l-9.7,5.6L4.5,44.3H.1V65H4.5l8.6-5,1-.6,1.1.6,8.6,5h4.4V44.3ZM4.5,60V49.3l9.3,5.4Zm10-5.3,9.3-5.4V60Z"
         transform="translate(-0.1 0.7)" />
   </g>
   <g style="display: none" id="Nová_finální_verze-9" data-name="Nová finální verze">
      <path class="cls-1" style="stroke: #013cfe; stroke-miterlimit: 10;  stroke-width: 2px; fill: #013cfe;"
         d="M155.5,69.8c-5.1,5.8-11.3,8.7-18.4,8.7a21.5,21.5,0,0,1-16.2-6.8c-4.3-4.6-6.4-10.3-6.4-17.1a23.8,23.8,0,0,1,6.4-17,21.5,21.5,0,0,1,16.2-6.8c7.1,0,13.3,2.9,18.4,8.7V32h6.8V77.3h-6.8ZM126.6,42.5c-3.1,3-4.6,7.1-4.6,12.1s1.5,9.1,4.6,12.2A15.2,15.2,0,0,0,138,71.5a17.4,17.4,0,0,0,10.2-3.2,20.1,20.1,0,0,0,6.5-8V49a20.1,20.1,0,0,0-6.5-8A17.4,17.4,0,0,0,138,37.8,15.2,15.2,0,0,0,126.6,42.5Z"
         transform="translate(-0.1 0.7)" />
      <path class="cls-1" style="stroke: #013cfe; stroke-miterlimit: 10;  stroke-width: 2px; fill: #013cfe;"
         d="M180.3,41.4h-8.5l17.7-30.2h6.6l17.7,30.2h-8.5L192.8,19.6Z" transform="translate(-0.1 0.7)" />
      <path class="cls-1" style="stroke: #013cfe; stroke-miterlimit: 10;  stroke-width: 2px; fill: #013cfe;"
         d="M220.2,54.6c0-7.4,2.3-13.2,6.8-17.4a22.5,22.5,0,0,1,15.8-6.4c5.5,0,10.1,1.4,13.7,4.2a19.5,19.5,0,0,1,7.2,10.2,26.3,26.3,0,0,1,.2,12.8H227.8a12.9,12.9,0,0,0,5.9,10.1,23.7,23.7,0,0,0,12.8,3.4,30.8,30.8,0,0,0,14.9-3.7v7.4c-4.2,2.2-9.6,3.3-16.1,3.3s-13.1-2.1-17.9-6.2S220.2,62.3,220.2,54.6Zm36.9-3.3a11.4,11.4,0,0,0-.2-4.1,14.7,14.7,0,0,0-2.1-4.4,10.5,10.5,0,0,0-4.5-3.6,17.9,17.9,0,0,0-17.7,2.2,12.8,12.8,0,0,0-4.8,9.9Z"
         transform="translate(-0.1 0.7)" />
      <path class="cls-1" style="stroke: #013cfe; stroke-miterlimit: 10;  stroke-width: 2px; fill: #013cfe;"
         d="M275,82.8h-5.7L297.5,5.7h5.7Z" transform="translate(-0.1 0.7)" />
      <path class="cls-1" style="stroke: #013cfe; stroke-miterlimit: 10;  stroke-width: 2px; fill: #013cfe;"
         d="M337.8,24.2a13.7,13.7,0,0,1-4.3,10.5,14.8,14.8,0,0,1-10.4,3.9,15.1,15.1,0,0,1-10.4-3.9c-2.9-2.6-4.3-6.1-4.3-10.5a13.1,13.1,0,0,1,4.3-10.3,15.8,15.8,0,0,1,20.8,0A13.4,13.4,0,0,1,337.8,24.2Zm-23.8,0a8.7,8.7,0,0,0,2.5,6.4,9.2,9.2,0,0,0,6.6,2.4,9,9,0,0,0,6.5-2.4,8.7,8.7,0,0,0,2.5-6.4,8.6,8.6,0,0,0-2.5-6.3,9.4,9.4,0,0,0-6.5-2.3,9.2,9.2,0,0,0-6.6,2.4A8.4,8.4,0,0,0,314,24.2Z"
         transform="translate(-0.1 0.7)" />
      <polygon class="cls-1" style="fill: #013cfe;"
         points="43.9 31.7 43.9 40.5 43.9 79.1 53.4 79.1 53.4 40.5 69.7 40.5 69.7 79.1 79.1 79.1 79.1 40.5 95.4 40.5 95.4 79.1 104.9 79.1 104.9 40.5 104.9 31.7 43.9 31.7" />
      <path class="cls-1" style="fill: #013cfe;"
         d="M23.8,44.3l-9.7,5.6L4.5,44.3H.1V65H4.5l8.6-5,1-.6,1.1.6,8.6,5h4.4V44.3ZM4.5,60V49.3l9.3,5.4Zm10-5.3,9.3-5.4V60Z"
         transform="translate(-0.1 0.7)" />
   </g>
   <g style="display: none" id="Nová_finální_verze-10" data-name="Nová finální verze">
      <path class="cls-1" style="stroke: #013cfe; stroke-miterlimit: 10;  stroke-width: 2px; fill: #013cfe;"
         d="M87.9,91.4H45V84.2H87.9Z" transform="translate(-0.1 0.7)" />
      <path class="cls-1" style="stroke: #013cfe; stroke-miterlimit: 10;  stroke-width: 2px; fill: #013cfe;"
         d="M131,69.8q-7.6,8.7-18.3,8.7a21.5,21.5,0,0,1-16.2-6.8A24.1,24.1,0,0,1,90,54.6a23.9,23.9,0,0,1,6.5-17,21.5,21.5,0,0,1,16.2-6.8q10.6,0,18.3,8.7V32h6.8V77.3H131ZM102.2,42.5c-3.1,3-4.6,7.1-4.6,12.1s1.5,9.1,4.6,12.2a15.2,15.2,0,0,0,11.4,4.7,17.4,17.4,0,0,0,10.2-3.2,20.1,20.1,0,0,0,6.5-8V49a20.1,20.1,0,0,0-6.5-8,17.4,17.4,0,0,0-10.2-3.2A15.2,15.2,0,0,0,102.2,42.5Z"
         transform="translate(-0.1 0.7)" />
      <path class="cls-1" style="stroke: #013cfe; stroke-miterlimit: 10;  stroke-width: 2px; fill: #013cfe;"
         d="M157.6,77.3H150V32h33.2v7H157.6Z" transform="translate(-0.1 0.7)" />
      <path class="cls-1" style="stroke: #013cfe; stroke-miterlimit: 10;  stroke-width: 2px; fill: #013cfe;"
         d="M206.4,57.7h-7.5a16,16,0,0,1,2.7-8.5,41.3,41.3,0,0,1,5.8-7.5,53.7,53.7,0,0,0,5.9-7.3,13.8,13.8,0,0,0,2.7-7.6c0-6.1-4.9-9.2-14.6-9.2a33.9,33.9,0,0,0-17,5V15a36,36,0,0,1,18.3-5c6.3,0,11.4,1.4,15.4,4.2S224,20.8,224,26a16.8,16.8,0,0,1-1.8,7.4,27.2,27.2,0,0,1-4.4,6.6c-1.7,2-3.4,4-5.2,5.9a31.2,31.2,0,0,0-4.4,5.9A11.5,11.5,0,0,0,206.4,57.7Zm-.2,12.2a4.4,4.4,0,0,1,1.4,3.5,4.7,4.7,0,0,1-1.4,3.5,5.6,5.6,0,0,1-3.5,1.3,5.7,5.7,0,0,1-3.6-1.3,4.3,4.3,0,0,1-1.4-3.5,4.1,4.1,0,0,1,1.4-3.5,5.2,5.2,0,0,1,3.6-1.3A5.1,5.1,0,0,1,206.2,69.9Z"
         transform="translate(-0.1 0.7)" />
      <path class="cls-1" style="stroke: #013cfe; stroke-miterlimit: 10;  stroke-width: 2px; fill: #013cfe;"
         d="M240.1,77.3h-7.6V32h7.6V50.9h9.2L263.6,32h8.8L255.2,54.5l19.3,22.8h-8.9L249,57.9h-8.9Z"
         transform="translate(-0.1 0.7)" />
      <path class="cls-1" style="fill: #013cfe;"
         d="M23.8,44.3l-9.7,5.6L4.5,44.3H.1V65H4.5l8.6-5,1-.6,1.1.6,8.6,5h4.4V44.3ZM4.5,60V49.3l9.3,5.4Zm10-5.3,9.3-5.4V60Z"
         transform="translate(-0.1 0.7)" />
   </g>
   <g style="display: none" id="Nová_finální_verze-11" data-name="Nová finální verze">
      <path class="cls-1" style="stroke: #013cfe; stroke-miterlimit: 10;  stroke-width: 2px; fill: #013cfe;"
         d="M112.6.9h7.3a74.3,74.3,0,0,1,10,20.6,73.3,73.3,0,0,1,3.7,22.7A73.4,73.4,0,0,1,129.9,67a74.3,74.3,0,0,1-10,20.6h-7.3a72.6,72.6,0,0,0,9.2-20.5,83.4,83.4,0,0,0,3.3-22.9,83.3,83.3,0,0,0-3.3-22.8A72.6,72.6,0,0,0,112.6.9Z"
         transform="translate(-0.1 0.7)" />
      <path class="cls-1" style="stroke: #013cfe; stroke-miterlimit: 10;  stroke-width: 2px; fill: #013cfe;"
         d="M147.1,91.5h-6.2l5.2-21.7h8Zm5.5-58a4.5,4.5,0,0,1,1.4,3.6,4.2,4.2,0,0,1-1.4,3.5,4.8,4.8,0,0,1-3.6,1.3,5.1,5.1,0,0,1-3.5-1.3,4.5,4.5,0,0,1-1.4-3.5,4.9,4.9,0,0,1,1.4-3.6,5.6,5.6,0,0,1,3.5-1.3A5.3,5.3,0,0,1,152.6,33.5Z"
         transform="translate(-0.1 0.7)" />
      <path class="cls-1" style="stroke: #013cfe; stroke-miterlimit: 10;  stroke-width: 2px; fill: #013cfe;"
         d="M175.4,77.3h-7.6V32H201v7H175.4Z" transform="translate(-0.1 0.7)" />
      <path class="cls-1" style="stroke: #013cfe; stroke-miterlimit: 10;  stroke-width: 2px; fill: #013cfe;"
         d="M204.7,54.6c0-7.4,2.3-13.2,6.8-17.4a22.5,22.5,0,0,1,15.8-6.4c5.5,0,10.1,1.4,13.7,4.2a19.5,19.5,0,0,1,7.2,10.2,26.3,26.3,0,0,1,.2,12.8H212.3a12.9,12.9,0,0,0,5.9,10.1A23.7,23.7,0,0,0,231,71.5a30.8,30.8,0,0,0,14.9-3.7v7.4c-4.2,2.2-9.6,3.3-16.1,3.3s-13.1-2.1-17.9-6.2S204.7,62.3,204.7,54.6Zm36.9-3.3a11.4,11.4,0,0,0-.2-4.1,14.7,14.7,0,0,0-2.1-4.4,10.5,10.5,0,0,0-4.5-3.6,17.9,17.9,0,0,0-17.7,2.2,12.8,12.8,0,0,0-4.8,9.9Z"
         transform="translate(-0.1 0.7)" />
      <path class="cls-1" style="stroke: #013cfe; stroke-miterlimit: 10;  stroke-width: 2px; fill: #013cfe;"
         d="M279.6,40.7h17.5v7.1H279.6V65.3h-7.1V47.8H255V40.7h17.5V23.2h7.1Z" transform="translate(-0.1 0.7)" />
      <polygon class="cls-1" style="fill: #013cfe;"
         points="43.9 31.7 43.9 40.5 43.9 79.1 53.4 79.1 53.4 40.5 69.7 40.5 69.7 79.1 79.1 79.1 79.1 40.5 95.4 40.5 95.4 79.1 104.9 79.1 104.9 40.5 104.9 31.7 43.9 31.7" />
      <path class="cls-1" style="fill: #013cfe;"
         d="M23.8,44.3l-9.7,5.6L4.5,44.3H.1V65H4.5l8.6-5,1-.6,1.1.6,8.6,5h4.4V44.3ZM4.5,60V49.3l9.3,5.4Zm10-5.3,9.3-5.4V60Z"
         transform="translate(-0.1 0.7)" />
   </g>
   <g style="display: none" id="Nová_finální_verze-12" data-name="Nová finální verze">
      <path class="cls-1" style="stroke: #013cfe; stroke-miterlimit: 10;  stroke-width: 2px; fill: #013cfe;"
         d="M155.5,69.8c-5.1,5.8-11.3,8.7-18.4,8.7a21.5,21.5,0,0,1-16.2-6.8c-4.3-4.6-6.4-10.3-6.4-17.1a23.8,23.8,0,0,1,6.4-17,21.5,21.5,0,0,1,16.2-6.8c7.1,0,13.3,2.9,18.4,8.7V32h6.8V77.3h-6.8ZM126.6,42.5c-3.1,3-4.6,7.1-4.6,12.1s1.5,9.2,4.6,12.2A15.2,15.2,0,0,0,138,71.5a17.4,17.4,0,0,0,10.2-3.2,20.1,20.1,0,0,0,6.5-8V49a20.1,20.1,0,0,0-6.5-8A17.4,17.4,0,0,0,138,37.8,15.2,15.2,0,0,0,126.6,42.5Z"
         transform="translate(-0.1 0.7)" />
      <path class="cls-1" style="stroke: #013cfe; stroke-miterlimit: 10;  stroke-width: 2px; fill: #013cfe;"
         d="M182,77.3h-7.5V32h33.1v7H182Z" transform="translate(-0.1 0.7)" />
      <path class="cls-1" style="stroke: #013cfe; stroke-miterlimit: 10;  stroke-width: 2px; fill: #013cfe;"
         d="M207.5,50.3h33.8v7.2H207.5Z" transform="translate(-0.1 0.7)" />
      <path class="cls-1" style="stroke: #013cfe; stroke-miterlimit: 10;  stroke-width: 2px; fill: #013cfe;"
         d="M256.6,91.5h-6.2l5.2-21.7h8.1Zm5.6-58a4.9,4.9,0,0,1,1.4,3.6,4.5,4.5,0,0,1-1.4,3.5,5.2,5.2,0,0,1-3.6,1.3,4.8,4.8,0,0,1-3.5-1.3,4.3,4.3,0,0,1-1.5-3.5,4.6,4.6,0,0,1,1.5-3.6,5.2,5.2,0,0,1,3.5-1.3A5.7,5.7,0,0,1,262.2,33.5Z"
         transform="translate(-0.1 0.7)" />
      <path class="cls-1" style="stroke: #013cfe; stroke-miterlimit: 10;  stroke-width: 2px; fill: #013cfe;"
         d="M284.9,77.3h-7.5V32h7.5V50.9h9.2L308.5,32h8.7L300,54.6l19.3,22.7h-8.9L293.8,57.9h-8.9Z"
         transform="translate(-0.1 0.7)" />
      <polygon class="cls-1" style="fill: #013cfe;"
         points="43.9 31.7 43.9 40.5 43.9 79.1 53.4 79.1 53.4 40.5 69.7 40.5 69.7 79.1 79.1 79.1 79.1 40.5 95.4 40.5 95.4 79.1 104.9 79.1 104.9 40.5 104.9 31.7 43.9 31.7" />
      <path class="cls-1" style="fill: #013cfe;"
         d="M23.8,44.3l-9.7,5.6L4.5,44.3H.1V65H4.5l8.6-5,1-.6,1.1.6,8.6,5h4.4V44.3ZM4.5,60V49.3l9.3,5.4Zm10-5.3,9.3-5.4V60Z"
         transform="translate(-0.1 0.7)" />
   </g>
   <g style="display: none" id="Nová_finální_verze-13" data-name="Nová finální verze">
      <path class="cls-1" style="stroke: #013cfe; stroke-miterlimit: 10;  stroke-width: 2px; fill: #013cfe;"
         d="M155.5,69.8c-5.1,5.8-11.3,8.7-18.4,8.7a21.5,21.5,0,0,1-16.2-6.8c-4.3-4.6-6.4-10.3-6.4-17.1a23.8,23.8,0,0,1,6.4-17,21.5,21.5,0,0,1,16.2-6.8c7.1,0,13.3,2.9,18.4,8.7V32h6.8V77.3h-6.8ZM126.6,42.5c-3.1,3-4.6,7.1-4.6,12.1s1.5,9.1,4.6,12.2A15.2,15.2,0,0,0,138,71.5a17.4,17.4,0,0,0,10.2-3.2,20.1,20.1,0,0,0,6.5-8V49a20.1,20.1,0,0,0-6.5-8A17.4,17.4,0,0,0,138,37.8,15.2,15.2,0,0,0,126.6,42.5Z"
         transform="translate(-0.1 0.7)" />
      <path class="cls-1" style="stroke: #013cfe; stroke-miterlimit: 10;  stroke-width: 2px; fill: #013cfe;"
         d="M187.7,30.8l-7.1,11.4-5.8-4,8.3-10-12.3-3,2.4-6.7,11.7,4.7-.7-12h7l-.9,12,11.8-4.7,2.4,6.7-12.3,3,8.2,10-5.6,4Z"
         transform="translate(-0.1 0.7)" />
      <path class="cls-1" style="stroke: #013cfe; stroke-miterlimit: 10;  stroke-width: 2px; fill: #013cfe;"
         d="M209,54.6c0-7.4,2.2-13.2,6.8-17.4a22.3,22.3,0,0,1,15.7-6.4q8.4,0,13.8,4.2a19.3,19.3,0,0,1,7.1,10.2,25.2,25.2,0,0,1,.2,12.8H216.5a13,13,0,0,0,6,10.1,23.3,23.3,0,0,0,12.7,3.4,31.1,31.1,0,0,0,15-3.7v7.4c-4.3,2.2-9.6,3.3-16.1,3.3s-13.2-2.1-18-6.2S209,62.3,209,54.6Zm36.9-3.3a9.6,9.6,0,0,0-.3-4.1,14.3,14.3,0,0,0-2-4.4,11.9,11.9,0,0,0-4.5-3.6,17.3,17.3,0,0,0-7.1-1.4,16.4,16.4,0,0,0-10.6,3.6,13.2,13.2,0,0,0-4.9,9.9Z"
         transform="translate(-0.1 0.7)" />
      <path class="cls-1" style="stroke: #013cfe; stroke-miterlimit: 10;  stroke-width: 2px; fill: #013cfe;"
         d="M273.6,87.7H255.9V80.2h9.8V8.3h-9.8V.8h17.7Z" transform="translate(-0.1 0.7)" />
      <path class="cls-1" style="stroke: #013cfe; stroke-miterlimit: 10;  stroke-width: 2px; fill: #013cfe;"
         d="M289.5,91.5h-6.2l5.2-21.7h8.1Zm5.5-58a4.6,4.6,0,0,1,1.5,3.6,4.3,4.3,0,0,1-1.5,3.5,4.8,4.8,0,0,1-3.6,1.3,4.7,4.7,0,0,1-3.4-1.3,4.3,4.3,0,0,1-1.5-3.5,4.6,4.6,0,0,1,1.5-3.6,5.1,5.1,0,0,1,3.4-1.3A5.3,5.3,0,0,1,295,33.5Z"
         transform="translate(-0.1 0.7)" />
      <polygon class="cls-1" style="fill: #013cfe;"
         points="43.9 31.7 43.9 40.5 43.9 79.1 53.4 79.1 53.4 40.5 69.7 40.5 69.7 79.1 79.1 79.1 79.1 40.5 95.4 40.5 95.4 79.1 104.9 79.1 104.9 40.5 104.9 31.7 43.9 31.7" />
      <path class="cls-1" style="fill: #013cfe;"
         d="M23.8,44.3l-9.7,5.6L4.5,44.3H.1V65H4.5l8.6-5,1-.6,1.1.6,8.6,5h4.4V44.3ZM4.5,60V49.3l9.3,5.4Zm10-5.3,9.3-5.4V60Z"
         transform="translate(-0.1 0.7)" />
   </g>
   <g style="display: none" id="Nová_finální_verze-14" data-name="Nová finální verze">
      <path class="cls-1" style="stroke: #013cfe; stroke-miterlimit: 10;  stroke-width: 2px; fill: #013cfe;"
         d="M174.1,74a40,40,0,0,1-18.7,4.5,35.2,35.2,0,0,1-20.3-6.4,29.1,29.1,0,0,1-12.2-17.4h-8.5V48.1h7.3c0-.6-.1-1.5-.1-2.8s.1-2.4.1-3h-7.3V35.7h8.5A29.4,29.4,0,0,1,135,18.2a35.2,35.2,0,0,1,20.5-6.3,38.8,38.8,0,0,1,18.6,4.5v7.9a30.5,30.5,0,0,0-17.3-4.8,31.2,31.2,0,0,0-15.7,4.1,22.7,22.7,0,0,0-9.8,12.1h31.3v6.6H129.9a17.3,17.3,0,0,0-.2,3,20.2,20.2,0,0,0,.1,2.8h32.8v6.6H131.3a22.3,22.3,0,0,0,10,12,30.6,30.6,0,0,0,15.8,4.2c6.8,0,12.4-1.6,17-4.8Z"
         transform="translate(-0.1 0.7)" />
      <path class="cls-1" style="stroke: #013cfe; stroke-miterlimit: 10;  stroke-width: 2px; fill: #013cfe;"
         d="M192.1,77.3h-7.5V32h33.1v7H192.1Z" transform="translate(-0.1 0.7)" />
      <path class="cls-1" style="stroke: #013cfe; stroke-miterlimit: 10;  stroke-width: 2px; fill: #013cfe;"
         d="M221.4,54.6q0-11.1,6.9-17.4A22.1,22.1,0,0,1,244,30.8c5.6,0,10.1,1.4,13.8,4.2a19.3,19.3,0,0,1,7.1,10.2,26.3,26.3,0,0,1,.2,12.8H229a12.9,12.9,0,0,0,5.9,10.1,23.9,23.9,0,0,0,12.8,3.4,30.8,30.8,0,0,0,14.9-3.7v7.4c-4.2,2.2-9.6,3.3-16,3.3s-13.2-2.1-18-6.2S221.4,62.3,221.4,54.6Zm37-3.3a9.6,9.6,0,0,0-.3-4.1,17.2,17.2,0,0,0-2-4.4,11.9,11.9,0,0,0-4.5-3.6,17.3,17.3,0,0,0-7.1-1.4,16.7,16.7,0,0,0-10.7,3.6,13.1,13.1,0,0,0-4.8,9.9Z"
         transform="translate(-0.1 0.7)" />
      <path class="cls-1" style="stroke: #013cfe; stroke-miterlimit: 10;  stroke-width: 2px; fill: #013cfe;"
         d="M281.8,70a4.3,4.3,0,0,1,1.4,3.5,4.1,4.1,0,0,1-1.4,3.5,5.1,5.1,0,0,1-6.8,0,4.4,4.4,0,0,1-1.4-3.5A4.7,4.7,0,0,1,275,70a5.4,5.4,0,0,1,6.8,0Zm-.1-11.9h-6.6l-.7-46.9h8Z"
         transform="translate(-0.1 0.7)" />
      <path class="cls-1" style="stroke: #013cfe; stroke-miterlimit: 10;  stroke-width: 2px; fill: #013cfe;"
         d="M333.7,39.2h-40V32.1h40Zm0,17.2h-40V49.3h40Z" transform="translate(-0.1 0.7)" />
      <polygon class="cls-1" style="fill: #013cfe;"
         points="43.9 31.7 43.9 40.5 43.9 79.1 53.4 79.1 53.4 40.5 69.7 40.5 69.7 79.1 79.1 79.1 79.1 40.5 95.4 40.5 95.4 79.1 104.9 79.1 104.9 40.5 104.9 31.7 43.9 31.7" />
      <path class="cls-1" style="fill: #013cfe;"
         d="M23.8,44.3l-9.7,5.6L4.5,44.3H.1V65H4.5l8.6-5,1-.6,1.1.6,8.6,5h4.4V44.3ZM4.5,60V49.3l9.3,5.4Zm10-5.3,9.3-5.4V60Z"
         transform="translate(-0.1 0.7)" />
   </g>
   <g style="display: none" id="Nová_finální_verze-15" data-name="Nová finální verze">
      <path class="cls-1" style="stroke: #013cfe; stroke-miterlimit: 10;  stroke-width: 2px; fill: #013cfe;"
         d="M128.4.9h7.4a72.8,72.8,0,0,0-9.3,20.5,83.4,83.4,0,0,0-3.3,22.9,83.3,83.3,0,0,0,3.3,22.8,72.8,72.8,0,0,0,9.3,20.5h-7.4a80.4,80.4,0,0,1-10-20.6,76.4,76.4,0,0,1-3.7-22.7,76.5,76.5,0,0,1,3.7-22.8A80.4,80.4,0,0,1,128.4.9Z"
         transform="translate(-0.1 0.7)" />
      <path class="cls-1" style="stroke: #013cfe; stroke-miterlimit: 10;  stroke-width: 2px; fill: #013cfe;"
         d="M161.3,81.1v6.6c-4.8,1-8.5.5-11.1-1.4s-3.9-5.2-3.9-9.4V55.2c0-2.8-.8-4.8-2.3-6a6.9,6.9,0,0,0-5.3-1.6V40.9a6.7,6.7,0,0,0,5.2-1.6q2.4-1.8,2.4-6V11.6c0-4.2,1.3-7.4,3.9-9.4S156.5-.2,161.3.8V7.4c-2.6-.4-4.5.1-5.5,1.3s-1.6,3.4-1.6,6.3V33.9a14.6,14.6,0,0,1-1.5,7.2,6.1,6.1,0,0,1-3.9,3.2,5.6,5.6,0,0,1,3.9,3.1,14.6,14.6,0,0,1,1.5,7.2V73.5c0,2.9.6,5,1.6,6.3S158.7,81.5,161.3,81.1Z"
         transform="translate(-0.1 0.7)" />
      <path class="cls-1" style="stroke: #013cfe; stroke-miterlimit: 10;  stroke-width: 2px; fill: #013cfe;"
         d="M176.6,77.3h-7.5V32h33.1v7H176.6Z" transform="translate(-0.1 0.7)" />
      <path class="cls-1" style="stroke: #013cfe; stroke-miterlimit: 10;  stroke-width: 2px; fill: #013cfe;"
         d="M205.9,54.6q0-11.1,6.9-17.4a22.1,22.1,0,0,1,15.7-6.4c5.6,0,10.1,1.4,13.8,4.2a19.3,19.3,0,0,1,7.1,10.2,26.3,26.3,0,0,1,.2,12.8H213.5a12.9,12.9,0,0,0,5.9,10.1,23.9,23.9,0,0,0,12.8,3.4,30.8,30.8,0,0,0,14.9-3.7v7.4c-4.2,2.2-9.5,3.3-16,3.3s-13.2-2.1-18-6.2S205.9,62.3,205.9,54.6Zm37-3.3a9.6,9.6,0,0,0-.3-4.1,17.2,17.2,0,0,0-2-4.4,11.9,11.9,0,0,0-4.5-3.6,17.3,17.3,0,0,0-7.1-1.4,16.2,16.2,0,0,0-10.6,3.6,12.9,12.9,0,0,0-4.9,9.9Z"
         transform="translate(-0.1 0.7)" />
      <path class="cls-1" style="stroke: #013cfe; stroke-miterlimit: 10;  stroke-width: 2px; fill: #013cfe;"
         d="M266.6,77.3H259V32h7.6V50.9h9.2L290.1,32h8.8L281.7,54.6,301,77.3h-8.9L275.5,57.9h-8.9Z"
         transform="translate(-0.1 0.7)" />
      <polygon class="cls-1" style="fill: #013cfe;"
         points="43.9 31.7 43.9 40.5 43.9 79.1 53.4 79.1 53.4 40.5 69.7 40.5 69.7 79.1 79.1 79.1 79.1 40.5 95.4 40.5 95.4 79.1 104.9 79.1 104.9 40.5 104.9 31.7 43.9 31.7" />
      <path class="cls-1" style="fill: #013cfe;"
         d="M23.8,44.3l-9.7,5.6L4.5,44.3H.1V65H4.5l8.6-5,1-.6,1.1.6,8.6,5h4.4V44.3ZM4.5,60V49.3l9.3,5.4Zm10-5.3,9.3-5.4V60Z"
         transform="translate(-0.1 0.7)" />
   </g>
   <g style="display: none" id="Nová_finální_verze-16" data-name="Nová finální verze">
      <path class="cls-1" style="stroke: #013cfe; stroke-miterlimit: 10;  stroke-width: 2px; fill: #013cfe;"
         d="M155.5,69.8c-5.1,5.8-11.3,8.7-18.4,8.7a21.5,21.5,0,0,1-16.2-6.8c-4.3-4.6-6.4-10.3-6.4-17.1a23.8,23.8,0,0,1,6.4-17,21.5,21.5,0,0,1,16.2-6.8c7.1,0,13.3,2.9,18.4,8.7V32h6.8V77.3h-6.8ZM126.6,42.5c-3.1,3-4.6,7.1-4.6,12.1s1.5,9.2,4.6,12.2A15.2,15.2,0,0,0,138,71.5a17.4,17.4,0,0,0,10.2-3.2,20.1,20.1,0,0,0,6.5-8V49a20.1,20.1,0,0,0-6.5-8A17.4,17.4,0,0,0,138,37.8,15.2,15.2,0,0,0,126.6,42.5Z"
         transform="translate(-0.1 0.7)" />
      <path class="cls-1" style="stroke: #013cfe; stroke-miterlimit: 10;  stroke-width: 2px; fill: #013cfe;"
         d="M182,77.3h-7.5V32h33.1v7H182Z" transform="translate(-0.1 0.7)" />
      <path class="cls-1" style="stroke: #013cfe; stroke-miterlimit: 10;  stroke-width: 2px; fill: #013cfe;"
         d="M211.3,54.6q0-11.1,6.9-17.4a22.1,22.1,0,0,1,15.7-6.4c5.5,0,10.1,1.4,13.7,4.2a19.5,19.5,0,0,1,7.2,10.2A26.3,26.3,0,0,1,255,58H218.9a12.9,12.9,0,0,0,5.9,10.1,23.9,23.9,0,0,0,12.8,3.4,30.8,30.8,0,0,0,14.9-3.7v7.4c-4.2,2.2-9.6,3.3-16.1,3.3s-13.1-2.1-17.9-6.2S211.3,62.3,211.3,54.6Zm37-3.3a11.5,11.5,0,0,0-.3-4.1,14.7,14.7,0,0,0-2.1-4.4,10.8,10.8,0,0,0-4.4-3.6,17.6,17.6,0,0,0-7.1-1.4,16.7,16.7,0,0,0-10.7,3.6,12.8,12.8,0,0,0-4.8,9.9Z"
         transform="translate(-0.1 0.7)" />
      <path class="cls-1" style="stroke: #013cfe; stroke-miterlimit: 10;  stroke-width: 2px; fill: #013cfe;"
         d="M290.7,82.8H285L256.9,5.7h5.6Z" transform="translate(-0.1 0.7)" />
      <path class="cls-1" style="stroke: #013cfe; stroke-miterlimit: 10;  stroke-width: 2px; fill: #013cfe;"
         d="M331.8,55.1v7.4L296.3,48V40.5L331.8,26v7.4L303.9,44.3Z" transform="translate(-0.1 0.7)" />
      <polygon class="cls-1" style="fill: #013cfe;"
         points="43.9 31.7 43.9 40.5 43.9 79.1 53.4 79.1 53.4 40.5 69.7 40.5 69.7 79.1 79.1 79.1 79.1 40.5 95.4 40.5 95.4 79.1 104.9 79.1 104.9 40.5 104.9 31.7 43.9 31.7" />
      <path class="cls-1" style="fill: #013cfe;"
         d="M23.8,44.3l-9.7,5.6L4.5,44.3H.1V65H4.5l8.6-5,1-.6,1.1.6,8.6,5h4.4V44.3ZM4.5,60V49.3l9.3,5.4Zm10-5.3,9.3-5.4V60Z"
         transform="translate(-0.1 0.7)" />
   </g>
   <g style="display: none" id="Nová_finální_verze-17" data-name="Nová finální verze">
      <path class="cls-1" style="stroke: #013cfe; stroke-miterlimit: 10;  stroke-width: 2px; fill: #013cfe;"
         d="M155.5,69.8c-5.1,5.8-11.3,8.7-18.4,8.7a21.5,21.5,0,0,1-16.2-6.8c-4.3-4.6-6.4-10.3-6.4-17.1a23.8,23.8,0,0,1,6.4-17,21.5,21.5,0,0,1,16.2-6.8c7.1,0,13.3,2.9,18.4,8.7V32h6.8V77.3h-6.8ZM126.6,42.5c-3.1,3-4.6,7.1-4.6,12.1s1.5,9.2,4.6,12.2A15.2,15.2,0,0,0,138,71.5a17.4,17.4,0,0,0,10.2-3.2,20.1,20.1,0,0,0,6.5-8V49a20.1,20.1,0,0,0-6.5-8A17.4,17.4,0,0,0,138,37.8,15.2,15.2,0,0,0,126.6,42.5Z"
         transform="translate(-0.1 0.7)" />
      <path class="cls-1" style="stroke: #013cfe; stroke-miterlimit: 10;  stroke-width: 2px; fill: #013cfe;"
         d="M182,77.3h-7.5V32h33.1v7H182Z" transform="translate(-0.1 0.7)" />
      <path class="cls-1" style="stroke: #013cfe; stroke-miterlimit: 10;  stroke-width: 2px; fill: #013cfe;"
         d="M261.5,66l12.2,11.3h-9.6L257,70.8c-6,5.1-13.5,7.7-22.6,7.7-7,0-12.4-1.6-16.4-4.8a15.2,15.2,0,0,1-5.9-12.3c0-6.9,4.6-13.1,14-18.6l-.2-.2c-5.3-5.1-7.9-10.3-7.9-15.5A15.3,15.3,0,0,1,223.9,15a22.1,22.1,0,0,1,14.6-5c5.3,0,9.6,1.4,12.9,4.1a12.6,12.6,0,0,1,4.9,10.5,14.1,14.1,0,0,1-1.7,6.6,18.3,18.3,0,0,1-4.8,5.7,56.2,56.2,0,0,1-5.7,4l-6,3.4,17.8,16.6a22.9,22.9,0,0,0,4.2-14.5H268A31.2,31.2,0,0,1,261.5,66ZM220,61.1a8.8,8.8,0,0,0,3.8,7.5c2.6,1.8,6.3,2.7,11,2.7a25.6,25.6,0,0,0,16.6-5.5l-20-18.1C223.8,51.8,220,56.3,220,61.1Zm18.4-43.9a14.2,14.2,0,0,0-9.1,2.9,8.9,8.9,0,0,0-3.5,7c0,3.6,2.3,7.7,7,12.2,10.5-4.8,15.7-9.5,15.7-14.1a7.1,7.1,0,0,0-2.6-5.8C244.1,17.9,241.6,17.2,238.4,17.2Z"
         transform="translate(-0.1 0.7)" />
      <path class="cls-1" style="stroke: #013cfe; stroke-miterlimit: 10;  stroke-width: 2px; fill: #013cfe;"
         d="M286.8,77.3h-7.5V32h7.5V50.9H296L310.3,32h8.8L301.9,54.6l19.3,22.7h-8.9L295.7,57.9h-8.9Z"
         transform="translate(-0.1 0.7)" />
      <polygon class="cls-1" style="fill: #013cfe;"
         points="43.9 31.7 43.9 40.5 43.9 79.1 53.4 79.1 53.4 40.5 69.7 40.5 69.7 79.1 79.1 79.1 79.1 40.5 95.4 40.5 95.4 79.1 104.9 79.1 104.9 40.5 104.9 31.7 43.9 31.7" />
      <path class="cls-1" style="fill: #013cfe;"
         d="M23.8,44.3l-9.7,5.6L4.5,44.3H.1V65H4.5l8.6-5,1-.6,1.1.6,8.6,5h4.4V44.3ZM4.5,60V49.3l9.3,5.4Zm10-5.3,9.3-5.4V60Z"
         transform="translate(-0.1 0.7)" />
   </g>
   <g style="display: none" id="Nová_finální_verze-18" data-name="Nová finální verze">
      <path class="cls-1" style="stroke: #013cfe; stroke-miterlimit: 10;  stroke-width: 2px; fill: #013cfe;"
         d="M155.5,69.8c-5.1,5.8-11.3,8.7-18.4,8.7a21.5,21.5,0,0,1-16.2-6.8c-4.3-4.6-6.4-10.3-6.4-17.1a23.8,23.8,0,0,1,6.4-17,21.5,21.5,0,0,1,16.2-6.8c7.1,0,13.3,2.9,18.4,8.7V32h6.8V77.3h-6.8ZM126.6,42.5c-3.1,3-4.6,7.1-4.6,12.1s1.5,9.1,4.6,12.2A15.2,15.2,0,0,0,138,71.5a17.4,17.4,0,0,0,10.2-3.2,20.1,20.1,0,0,0,6.5-8V49a20.1,20.1,0,0,0-6.5-8A17.4,17.4,0,0,0,138,37.8,15.2,15.2,0,0,0,126.6,42.5Z"
         transform="translate(-0.1 0.7)" />
      <path class="cls-1" style="stroke: #013cfe; stroke-miterlimit: 10;  stroke-width: 2px; fill: #013cfe;"
         d="M182,77.3h-7.5V32h33.1v7H182Z" transform="translate(-0.1 0.7)" />
      <path class="cls-1" style="stroke: #013cfe; stroke-miterlimit: 10;  stroke-width: 2px; fill: #013cfe;"
         d="M241.5,28.2h8.6V70.8h11.1v7.4H250.1V92.4h-7.9V78.2h-33V71.1Zm.7,42.6V39.3L218.6,70.8Z"
         transform="translate(-0.1 0.7)" />
      <path class="cls-1" style="stroke: #013cfe; stroke-miterlimit: 10;  stroke-width: 2px; fill: #013cfe;"
         d="M276.3,77.3h-7.5V32h7.5V50.9h9.2L299.9,32h8.7L291.4,54.5l19.3,22.8h-8.9L285.2,57.9h-8.9Z"
         transform="translate(-0.1 0.7)" />
      <polygon class="cls-1" style="fill: #013cfe;"
         points="43.9 31.7 43.9 40.5 43.9 79.1 53.4 79.1 53.4 40.5 69.7 40.5 69.7 79.1 79.1 79.1 79.1 40.5 95.4 40.5 95.4 79.1 104.9 79.1 104.9 40.5 104.9 31.7 43.9 31.7" />
      <path class="cls-1" style="fill: #013cfe;"
         d="M23.8,44.3l-9.7,5.6L4.5,44.3H.1V65H4.5l8.6-5,1-.6,1.1.6,8.6,5h4.4V44.3ZM4.5,60V49.3l9.3,5.4Zm10-5.3,9.3-5.4V60Z"
         transform="translate(-0.1 0.7)" />
   </g>
   <g id="MareKMediaLogoLoaded" data-name="Nová finální verze">
      <path class="cls-1" style="stroke: #013cfe; stroke-miterlimit: 10;  stroke-width: 2px; fill: #013cfe;"
         d="M155.5,69.8c-5.1,5.8-11.3,8.7-18.4,8.7a21.5,21.5,0,0,1-16.2-6.8c-4.3-4.6-6.4-10.3-6.4-17.1a23.8,23.8,0,0,1,6.4-17,21.5,21.5,0,0,1,16.2-6.8c7.1,0,13.3,2.9,18.4,8.7V32h6.8V77.3h-6.8ZM126.6,42.5c-3.1,3-4.6,7.1-4.6,12.1s1.5,9.1,4.6,12.2A15.2,15.2,0,0,0,138,71.5a17.4,17.4,0,0,0,10.2-3.2,20.1,20.1,0,0,0,6.5-8V49a20.1,20.1,0,0,0-6.5-8A17.4,17.4,0,0,0,138,37.8,15.2,15.2,0,0,0,126.6,42.5Z"
         transform="translate(-0.1 0.7)" />
      <path class="cls-1" style="stroke: #013cfe; stroke-miterlimit: 10;  stroke-width: 2px; fill: #013cfe;"
         d="M182,77.3h-7.5V32h33.1v7H182Z" transform="translate(-0.1 0.7)" />
      <path class="cls-1" style="stroke: #013cfe; stroke-miterlimit: 10;  stroke-width: 2px; fill: #013cfe;"
         d="M211.3,54.6q0-11.1,6.9-17.4a22.1,22.1,0,0,1,15.7-6.4c5.5,0,10.1,1.4,13.7,4.2a19.5,19.5,0,0,1,7.2,10.2A26.3,26.3,0,0,1,255,58H218.9a12.9,12.9,0,0,0,5.9,10.1,23.9,23.9,0,0,0,12.8,3.4,30.8,30.8,0,0,0,14.9-3.7v7.4c-4.2,2.2-9.6,3.3-16.1,3.3s-13.1-2.1-17.9-6.2S211.3,62.3,211.3,54.6Zm37-3.3a11.5,11.5,0,0,0-.3-4.1,14.7,14.7,0,0,0-2.1-4.4,10.8,10.8,0,0,0-4.4-3.6,17.6,17.6,0,0,0-7.1-1.4,16.7,16.7,0,0,0-10.7,3.6,12.8,12.8,0,0,0-4.8,9.9Z"
         transform="translate(-0.1 0.7)" />
      <path class="cls-1" style="stroke: #013cfe; stroke-miterlimit: 10;  stroke-width: 2px; fill: #013cfe;"
         d="M272,77.3h-7.6V32H272V50.9h9.1L295.5,32h8.8L287.1,54.5l19.3,22.8h-8.9L280.9,57.9H272Z"
         transform="translate(-0.1 0.7)" />
      <polygon class="cls-1" style="fill: #013cfe;"
         points="43.9 31.7 43.9 40.5 43.9 79.1 53.4 79.1 53.4 40.5 69.7 40.5 69.7 79.1 79.1 79.1 79.1 40.5 95.4 40.5 95.4 79.1 104.9 79.1 104.9 40.5 104.9 31.7 43.9 31.7" />
      <path class="cls-1" style="fill: #013cfe;"
         d="M23.8,44.3l-9.7,5.6L4.5,44.3H.1V65H4.5l8.6-5,1-.6,1.1.6,8.6,5h4.4V44.3ZM4.5,60V49.3l9.3,5.4Zm10-5.3,9.3-5.4V60Z"
         transform="translate(-0.1 0.7)" />
   </g>
</svg>