<svg id="Layer_1" data-name="Layer 1" xmlns="http://www.w3.org/2000/svg" viewBox="0 0 308.7 50"><defs><style>.cls-1{fill:#013cfe;}</style></defs><title>mm_logo_001_RGB_small</title><g id="Finální_verze" data-name="Finální verze"><path class="cls-1" d="M154.7,1.3V7.4A24.3,24.3,0,0,0,137.3.1a22.6,22.6,0,0,0-17,7.1A25.4,25.4,0,0,0,113.6,25a25.1,25.1,0,0,0,6.7,17.7,22.6,22.6,0,0,0,17,7.1A23.3,23.3,0,0,0,154,43.3v5.4h9.4V1.3ZM154,30.4a19.1,19.1,0,0,1-6.2,7.4,16.3,16.3,0,0,1-9.7,3.1,14.5,14.5,0,0,1-10.7-4.4c-2.9-2.9-4.3-6.8-4.3-11.5s1.4-8.7,4.3-11.6A14.5,14.5,0,0,1,138.1,9a16.3,16.3,0,0,1,9.7,3.1,19.1,19.1,0,0,1,6.2,7.4Z"/><polygon class="cls-1" points="171.9 48.6 181.4 48.6 181.4 10.2 207.1 10.2 207.1 1.3 171.9 1.3 171.9 48.6"/><path class="cls-1" d="M246.9,4.5C243.1,1.6,238.3.1,232.5.1a24.1,24.1,0,0,0-16.4,6.6c-4.7,4.4-7.2,10.6-7.2,18.3s2.6,14.1,7.6,18.4,11.2,6.4,18.6,6.4,12.2-1.2,16.5-3.4l.5-.3V36.5l-1.4.8a28.9,28.9,0,0,1-14.5,3.6A21.6,21.6,0,0,1,224,37.6a11.1,11.1,0,0,1-5.4-8.4h35.8l.2-.7a26.7,26.7,0,0,0-.2-13.2A20.2,20.2,0,0,0,246.9,4.5ZM218.5,20.7a12.2,12.2,0,0,1,4.4-8.3A16.2,16.2,0,0,1,233,9a15.4,15.4,0,0,1,6.7,1.4,8.6,8.6,0,0,1,4.1,3.2,13.6,13.6,0,0,1,1.9,4.1,10.3,10.3,0,0,1,.4,3Z"/><polygon class="cls-1" points="288.7 24.8 306.6 1.3 295.4 1.3 281 20.2 273.3 20.2 273.3 1.3 263.8 1.3 263.8 48.6 273.3 48.6 273.3 29.1 280.8 29.1 297.5 48.6 308.9 48.6 288.7 24.8"/><polygon class="cls-1" points="44 1.3 44 10.1 44 48.6 53.5 48.6 53.5 10.1 69.8 10.1 69.8 48.6 79.3 48.6 79.3 10.1 95.6 10.1 95.6 48.6 105 48.6 105 10.1 105 1.3 44 1.3"/><path class="cls-1" d="M23.8,14.6l-9.7,5.6L4.5,14.6H.1V35.3H4.5l8.6-5,1-.6,1.1.6,8.6,5h4.4V14.6ZM4.5,30.3V19.6L13.8,25Zm10-5.3,9.3-5.4V30.3Z"/></g></svg>