<svg id="Layer_1" data-name="Layer 1" xmlns="http://www.w3.org/2000/svg" viewBox="0 0 1904.9 750.2">
   <defs>
      <style>
         .cls-1 {
            fill: #0132d5;
         }

         .cls-2 {
            fill: #012fc6;
         }

         .cls-3 {
            fill: #03fcfc;
         }

         .cls-4 {
            fill: #fff;
         }
      </style>
   </defs>
   <title>Marek Marek web developer</title>
   <g>
      <path class="cls-1"
         d="M1156.6,103.5l-50.3-42.7V10.4l-28.1,29.8h-25.7L1082,10.4H977.4L949.9,38.2,829.1,10.4,751.8,88.6,720.4,10.4,634.9,96.8l-27.3-.7,2.7-85.7L527.4,94.2h0L483.7,10.4-365.7,869.5H295.6l106,148.1L1251,158.4Zm-281.8-1,75.1-64.3L886,102.8Z" />
      <path class="cls-2"
         d="M1350.6,311.3l-50.3-42.6V218.2L1272.1,248h-25.7l29.5-29.8H1171.3L1143.9,246l-120.8-27.8-77.4,78.2-31.4-78.2-85.4,86.4-27.3-.7,2.7-85.7L721.4,302h0l-43.8-83.8-849.4,859.1H489.5l106.1,148.1L1445,366.2Zm-281.9-1,75.2-64.3-64,64.6Z" />
      <path class="cls-3"
         d="M677.6,366.2v-148h32.2L757,303l47.3-84.8h31.2v148H800.7V285.8l-33.8,58.6h-21l-33.4-57.8v79.6Z" />
      <path class="cls-3"
         d="M845,366.2l69.3-148h30.4l69.3,148H975.4l-12.8-30H896.4l-12.8,30Zm84.2-107.7L909,306.6h40.8l-20.2-48.1Z" />
      <path class="cls-3"
         d="M1023.1,366.2v-148h71.2c16.8,0,29.7,4.1,38.9,12.3S1147,250,1147,264.6c0,11.1-2.8,20.3-8.3,27.8s-13.6,12.7-24.1,15.7c7.9,2.1,14.2,7.5,18.9,16.1l23.1,42h-42.4l-25.6-47a15.5,15.5,0,0,0-6.4-6.3,19.7,19.7,0,0,0-8.9-1.9h-11.6v55.2Zm38.6-82.5h25.6c15.3,0,22.9-6,22.9-18.1s-7.6-17.8-22.9-17.8h-25.6Z" />
      <path class="cls-3" d="M1171.3,366.2v-148h104.6V248h-67.6v28.1h62.8V306h-62.8v30.4h67.6v29.8Z" />
      <path class="cls-3"
         d="M1300.3,366.2v-148h38.6v63.4h.4l57.6-63.4h45.7l-65.9,70.3,68.3,77.7h-46l-59.7-66.7h-.4v66.7Z" />
      <path class="cls-3"
         d="M483.7,158.4V10.4h32.1l47.3,84.8,47.2-84.8h31.3v148H606.7V78l-33.8,58.6h-21L518.5,78.8v79.6Z" />
      <path class="cls-3"
         d="M651.1,158.4l69.3-148h30.4l69.3,148H781.5l-12.8-30H702.5l-12.8,30ZM735.3,50.7,715.1,98.8h40.7L735.7,50.7Z" />
      <path class="cls-3"
         d="M829.1,158.4V10.4h71.2c16.8,0,29.8,4.1,39,12.2S953,42.2,953,56.8c0,11-2.7,20.3-8.3,27.8s-13.5,12.7-24,15.6q11.7,3.1,18.9,16.2l23.1,42H920.3l-25.7-47a13.9,13.9,0,0,0-6.4-6.3,19.1,19.1,0,0,0-8.9-1.9H867.8v55.2Zm38.7-82.5h25.6c15.2,0,22.9-6,22.9-18.1S908.6,40,893.4,40H867.8Z" />
      <path class="cls-3" d="M977.4,158.4V10.4H1082V40.2h-67.7V68.3h62.8V98.1h-62.8v30.5H1082v29.8Z" />
      <path class="cls-3"
         d="M1106.3,158.4V10.4H1145V73.8h.4l57.5-63.4h45.8l-65.9,70.3,68.2,77.7h-46l-59.6-66.8h-.4v66.8Z" />
      <path class="cls-4"
         d="M698,454.4l-16.2-45.1h12l9.4,28.3,10.2-28.3h8.3l9.7,28.9,9.9-28.9h11.3l-16.3,45.1h-9.4l-9.7-27.1-9.8,27.1Z" />
      <path class="cls-4" d="M757.3,454.4V409.3h31.9v9.1H768.6V427h19.1v9H768.6v9.3h20.6v9.1Z" />
      <path class="cls-4"
         d="M796.6,454.4V409.3h21.8c4.9,0,8.6,1,11.3,3.2a10.1,10.1,0,0,1,4,8.4A10.5,10.5,0,0,1,827,431a10.8,10.8,0,0,1,5.9,3.9,11.1,11.1,0,0,1,2,6.7,11.5,11.5,0,0,1-4.2,9.4c-2.9,2.3-6.8,3.4-11.7,3.4Zm11.3-27.2h8.4a8.3,8.3,0,0,0,4.7-1.1,4.3,4.3,0,0,0,1.5-3.6,3.9,3.9,0,0,0-1.5-3.4,7.6,7.6,0,0,0-4.7-1.2h-8.4Zm0,18.6h9.5c2.2,0,3.8-.4,4.8-1.3a4.5,4.5,0,0,0,1.5-3.7,4.4,4.4,0,0,0-1.5-3.7,7.7,7.7,0,0,0-4.8-1.2h-9.5Z" />
      <path class="cls-4"
         d="M859.9,454.4V409.3h18.7c7.8,0,13.8,2,18.1,5.9s6.5,9.5,6.5,16.6-2.2,12.7-6.5,16.7-10.3,5.9-18.1,5.9Zm11.7-9.5h6.2q6.8,0,9.9-3.3c2.2-2.1,3.3-5.4,3.3-9.8s-1.1-7.6-3.3-9.8-5.5-3.2-9.9-3.2h-6.2Z" />
      <path class="cls-4" d="M910.2,454.4V409.3H942v9.1H921.4V427h19.2v9H921.4v9.3H942v9.1Z" />
      <path class="cls-4" d="M964.6,454.4,944,409.3h12.6l12.9,30,12.9-30h12.1l-20.6,45.1Z" />
      <path class="cls-4" d="M997.1,454.4V409.3H1029v9.1h-20.6V427h19.1v9h-19.1v9.3H1029v9.1Z" />
      <path class="cls-4" d="M1036.4,454.4V409.3h11.8v35.3h20.1v9.8Z" />
      <path class="cls-4"
         d="M1093.1,455.1a24.2,24.2,0,0,1-12-2.9,20.4,20.4,0,0,1-8-8.2,24,24,0,0,1-2.9-12.2,24.7,24.7,0,0,1,2.8-12.2,19.8,19.8,0,0,1,8.1-8.1,26.3,26.3,0,0,1,24,0,20.1,20.1,0,0,1,8,8.1,24.7,24.7,0,0,1,2.9,12.2,25,25,0,0,1-2.9,12.2,20.4,20.4,0,0,1-8,8.2A24.2,24.2,0,0,1,1093.1,455.1Zm0-9.8a9.4,9.4,0,0,0,7.8-3.6c1.9-2.4,2.9-5.7,2.9-9.9s-1-7.5-2.8-9.8a10.5,10.5,0,0,0-15.8,0c-1.9,2.3-2.8,5.6-2.8,9.8s.9,7.5,2.8,9.9A9.5,9.5,0,0,0,1093.1,445.3Z" />
      <path class="cls-4"
         d="M1123,454.4V409.3h21.7c5.1,0,9,1.3,11.8,3.9s4.2,6.3,4.2,10.9-1.4,8.2-4.2,10.8-6.7,4-11.8,4h-9.9v15.5Zm11.8-24.6h7.8q6.9,0,6.9-5.7c0-3.9-2.3-5.8-6.9-5.8h-7.8Z" />
      <path class="cls-4" d="M1166.2,454.4V409.3h31.9v9.1h-20.6V427h19.1v9h-19.1v9.3h20.6v9.1Z" />
      <path class="cls-4"
         d="M1205.5,454.4V409.3h21.7c5.2,0,9.1,1.2,11.9,3.7s4.2,6,4.2,10.4a13.8,13.8,0,0,1-2.5,8.5,13.4,13.4,0,0,1-7.4,4.8c2.4.6,4.3,2.3,5.8,4.9l7,12.8h-12.9l-7.8-14.3a4.3,4.3,0,0,0-1.9-1.9,6.1,6.1,0,0,0-2.8-.6h-3.5v16.8Zm11.8-25.1h7.8c4.7,0,7-1.9,7-5.5s-2.3-5.5-7-5.5h-7.8Z" />
   </g>
</svg>