<?xml version="1.0" encoding="utf-8"?>
<!-- Generator: Adobe Illustrator 24.0.1, SVG Export Plug-In . SVG Version: 6.00 Build 0)  -->
<svg version="1.1" id="Layer_1" xmlns="http://www.w3.org/2000/svg" xmlns:xlink="http://www.w3.org/1999/xlink" x="0px" y="0px"
	 viewBox="0 0 200 200" style="enable-background:new 0 0 200 200;" xml:space="preserve">
<style type="text/css">
	.st0{fill:#013CFE;}
	.st1{fill:#FFFFFF;}
</style>
<g>
	<g>
		<rect x="13.33" y="23" class="st0" width="174.47" height="167.14"/>
		<path class="st1" d="M189.45,18.8h-33.98V8.66c0-4.59-3.61-8.28-8.1-8.28c-4.49,0-8.1,3.69-8.1,8.28V18.8H61.3V8.66
			c0-4.59-3.61-8.28-8.1-8.28s-8.1,3.69-8.1,8.28V18.8H11.12c-4.49,0-8.1,3.69-8.1,8.28v163.89c0,4.59,3.61,8.28,8.1,8.28h178.32
			c4.49,0,8.1-3.69,8.1-8.28V27.08C197.54,22.5,193.93,18.8,189.45,18.8z M45.1,32.08v6.27c0,4.49,3.61,8.1,8.1,8.1
			s8.1-3.61,8.1-8.1v-6.27h77.93v6.27c0,4.49,3.61,8.1,8.1,8.1s8.14-3.61,8.14-8.1v-6.27h25.88v32.95H19.22V32.08H45.1z
			 M19.22,187.08V92.12h162.09v94.92H19.22V187.08z"/>
	</g>
	<rect x="19.25" y="63.83" class="st0" width="162.08" height="30"/>
	<g>
		<path class="st1" d="M64.86,143.82v-7.71l14.81-15.55c1.88-2.05,3.23-3.85,4.06-5.4c0.83-1.54,1.24-3.09,1.24-4.66
			c0-4.02-2.48-6.03-7.44-6.03c-1.92,0-3.84,0.37-5.76,1.11c-1.92,0.74-3.8,1.87-5.63,3.38l-3.35-7.64c1.97-1.7,4.39-3.04,7.27-4.02
			c2.88-0.98,5.84-1.47,8.88-1.47c5.27,0,9.31,1.17,12.1,3.52c2.79,2.35,4.19,5.69,4.19,10.02c0,2.86-0.66,5.6-1.98,8.21
			c-1.32,2.61-3.48,5.44-6.47,8.48l-9.12,9.25h19.3v8.51H64.86z"/>
		<path class="st1" d="M106.81,143.82v-8.51h10.59v-27.14l-8.11,4.76l-3.96-7.57l15.08-8.78h7.37v38.74h9.92v8.51H106.81z"/>
	</g>
	<g>
		<path class="st1" d="M37.44,74.98V57.26h8.09c1.98,0,3.5,0.5,4.57,1.5s1.61,2.38,1.61,4.16c0,1.78-0.54,3.17-1.61,4.17
			s-2.6,1.51-4.57,1.51h-4.2v6.38H37.44z M41.33,65.58h3.54c2.06,0,3.09-0.89,3.09-2.66c0-1.74-1.03-2.61-3.09-2.61h-3.54V65.58z"/>
		<path class="st1" d="M54.13,74.98V57.26h8.09c1.98,0,3.5,0.48,4.57,1.43s1.61,2.29,1.61,4c0,1.32-0.34,2.43-1.02,3.31
			c-0.68,0.88-1.65,1.48-2.9,1.8c0.89,0.27,1.62,0.91,2.19,1.94l2.87,5.25h-4.3l-3.07-5.66c-0.25-0.45-0.56-0.77-0.93-0.94
			c-0.37-0.18-0.8-0.26-1.31-0.26h-1.91v6.86H54.13z M58.02,65.3h3.49c2.09,0,3.14-0.84,3.14-2.51c0-1.66-1.05-2.49-3.14-2.49h-3.49
			V65.3z"/>
		<path class="st1" d="M79.72,75.25c-1.74,0-3.27-0.38-4.59-1.14c-1.32-0.76-2.34-1.83-3.07-3.19s-1.09-2.97-1.09-4.81
			c0-1.84,0.36-3.45,1.09-4.81s1.75-2.43,3.05-3.18c1.31-0.75,2.84-1.13,4.6-1.13c1.76,0,3.3,0.38,4.61,1.13s2.34,1.81,3.07,3.18
			s1.09,2.96,1.09,4.79c0,1.84-0.36,3.45-1.09,4.83c-0.73,1.37-1.75,2.44-3.07,3.2C83.01,74.87,81.48,75.25,79.72,75.25z
			 M79.72,71.94c1.47,0,2.63-0.52,3.46-1.55c0.83-1.03,1.24-2.46,1.24-4.29c0-1.84-0.41-3.27-1.23-4.29
			c-0.82-1.01-1.98-1.52-3.47-1.52c-1.46,0-2.6,0.51-3.43,1.52s-1.24,2.44-1.24,4.29c0,1.83,0.41,3.25,1.24,4.29
			C77.11,71.42,78.26,71.94,79.72,71.94z"/>
		<path class="st1" d="M97.84,75.25c-1.39,0-2.7-0.18-3.93-0.53c-1.23-0.35-2.26-0.83-3.08-1.43l1.13-3.07
			c0.79,0.55,1.69,0.99,2.7,1.31c1.01,0.32,2.07,0.48,3.18,0.48c1.21,0,2.07-0.19,2.6-0.57s0.79-0.85,0.79-1.42
			c0-0.49-0.18-0.87-0.55-1.16c-0.37-0.28-1.01-0.53-1.94-0.73l-2.84-0.6c-3.17-0.67-4.75-2.31-4.75-4.93c0-1.12,0.3-2.11,0.9-2.95
			c0.6-0.85,1.45-1.5,2.53-1.97c1.08-0.47,2.33-0.7,3.76-0.7c1.22,0,2.37,0.18,3.44,0.53c1.07,0.35,1.96,0.85,2.66,1.48l-1.13,2.87
			c-1.37-1.09-3.04-1.63-5-1.63c-1.06,0-1.87,0.21-2.45,0.62c-0.58,0.41-0.87,0.94-0.87,1.6c0,0.49,0.18,0.88,0.53,1.18
			c0.35,0.3,0.96,0.54,1.83,0.73l2.84,0.6c3.25,0.7,4.88,2.3,4.88,4.78c0,1.11-0.3,2.07-0.89,2.9s-1.43,1.47-2.51,1.94
			C100.59,75.02,99.31,75.25,97.84,75.25z"/>
		<path class="st1" d="M107.61,74.98V57.26h3.9v17.72H107.61z"/>
		<path class="st1" d="M115.05,74.98V57.26h2.89l8.85,11.29V57.26h3.62v17.72h-2.87l-8.87-11.31v11.31H115.05z"/>
		<path class="st1" d="M133.98,74.98V57.26h12.14v3.04h-8.42v4.15h7.87v3.07h-7.87v4.42h8.42v3.04H133.98z"/>
		<path class="st1" d="M157.78,75.25c-1.91,0-3.54-0.38-4.9-1.13s-2.4-1.81-3.13-3.18c-0.73-1.37-1.09-2.98-1.09-4.84
			c0-1.84,0.36-3.45,1.09-4.81c0.73-1.37,1.77-2.43,3.13-3.18s2.99-1.13,4.9-1.13c1.17,0,2.29,0.18,3.37,0.55
			c1.07,0.37,1.95,0.87,2.64,1.51l-1.21,3.09c-0.75-0.59-1.51-1.02-2.28-1.29s-1.56-0.41-2.4-0.41c-1.69,0-2.97,0.49-3.83,1.47
			s-1.29,2.38-1.29,4.21c0,1.83,0.43,3.23,1.29,4.22c0.86,0.99,2.14,1.48,3.83,1.48c0.84,0,1.64-0.14,2.4-0.41s1.52-0.71,2.28-1.29
			l1.21,3.09c-0.69,0.62-1.57,1.12-2.64,1.5C160.08,75.07,158.96,75.25,157.78,75.25z"/>
	</g>
	<g>
		<path class="st1" d="M122.51,177.1v-2.66h3.31v-8.48l-2.54,1.49l-1.24-2.37l4.71-2.74h2.3v12.11h3.1v2.66H122.51z"/>
		<path class="st1" d="M138.05,177.33c-0.8,0-1.58-0.14-2.36-0.42c-0.78-0.28-1.46-0.68-2.04-1.19l1.05-2.41
			c0.5,0.43,1.04,0.76,1.62,0.98c0.58,0.22,1.17,0.33,1.77,0.33c2.3,0,3.46-1.5,3.46-4.5v-0.4c-0.29,0.68-0.75,1.22-1.36,1.61
			s-1.33,0.59-2.14,0.59c-0.82,0-1.56-0.21-2.22-0.62s-1.17-0.98-1.55-1.7c-0.38-0.72-0.57-1.54-0.57-2.46
			c0-0.98,0.21-1.85,0.64-2.61s1.01-1.36,1.76-1.79s1.61-0.65,2.59-0.65c1.9,0,3.36,0.65,4.38,1.94c1.02,1.29,1.53,3.12,1.53,5.48
			c0,1.65-0.26,3.05-0.79,4.21c-0.52,1.16-1.27,2.05-2.25,2.67C140.59,177.02,139.42,177.33,138.05,177.33z M138.89,169.39
			c0.64,0,1.17-0.22,1.57-0.66c0.41-0.44,0.61-1.01,0.61-1.71c0-0.71-0.2-1.29-0.61-1.74c-0.41-0.45-0.93-0.67-1.57-0.67
			c-0.64,0-1.17,0.22-1.57,0.67c-0.41,0.45-0.61,1.03-0.61,1.74c0,0.7,0.2,1.27,0.61,1.71
			C137.72,169.17,138.25,169.39,138.89,169.39z"/>
		<path class="st1" d="M151.83,177.33c-1.76,0-3.13-0.37-4.13-1.12c-0.99-0.75-1.49-1.79-1.49-3.13c0-0.87,0.22-1.61,0.66-2.24
			s1.02-1.08,1.75-1.34c-0.61-0.31-1.11-0.76-1.48-1.35c-0.37-0.59-0.56-1.27-0.56-2.02c0-1.26,0.47-2.24,1.41-2.95
			s2.22-1.07,3.82-1.07c1.61,0,2.88,0.36,3.83,1.07c0.95,0.71,1.42,1.7,1.42,2.95c0,0.77-0.19,1.45-0.55,2.05
			c-0.37,0.6-0.86,1.04-1.48,1.32c0.73,0.28,1.31,0.73,1.74,1.36c0.43,0.63,0.65,1.37,0.65,2.22c0,1.34-0.5,2.38-1.49,3.13
			C154.97,176.96,153.59,177.33,151.83,177.33z M151.83,174.84c1.76,0,2.64-0.66,2.64-1.99c0-1.31-0.88-1.97-2.64-1.97
			c-0.85,0-1.5,0.16-1.96,0.49s-0.68,0.82-0.68,1.48s0.23,1.15,0.68,1.49S150.98,174.84,151.83,174.84z M151.83,168.39
			c0.71,0,1.27-0.17,1.67-0.51c0.4-0.34,0.6-0.81,0.6-1.39c0-0.59-0.2-1.05-0.6-1.38c-0.4-0.33-0.95-0.5-1.67-0.5
			c-0.71,0-1.26,0.17-1.65,0.5s-0.59,0.8-0.59,1.38c0,0.59,0.2,1.05,0.59,1.39C150.57,168.22,151.12,168.39,151.83,168.39z"/>
		<path class="st1" d="M164.4,177.33c-1.76,0-3.13-0.37-4.13-1.12c-0.99-0.75-1.49-1.79-1.49-3.13c0-0.87,0.22-1.61,0.66-2.24
			s1.02-1.08,1.75-1.34c-0.61-0.31-1.11-0.76-1.48-1.35c-0.37-0.59-0.56-1.27-0.56-2.02c0-1.26,0.47-2.24,1.41-2.95
			s2.22-1.07,3.82-1.07c1.61,0,2.88,0.36,3.83,1.07c0.95,0.71,1.42,1.7,1.42,2.95c0,0.77-0.19,1.45-0.55,2.05
			c-0.37,0.6-0.86,1.04-1.48,1.32c0.73,0.28,1.31,0.73,1.74,1.36c0.43,0.63,0.65,1.37,0.65,2.22c0,1.34-0.5,2.38-1.49,3.13
			C167.54,176.96,166.16,177.33,164.4,177.33z M164.4,174.84c1.76,0,2.64-0.66,2.64-1.99c0-1.31-0.88-1.97-2.64-1.97
			c-0.85,0-1.5,0.16-1.96,0.49s-0.68,0.82-0.68,1.48s0.23,1.15,0.68,1.49S163.55,174.84,164.4,174.84z M164.4,168.39
			c0.71,0,1.27-0.17,1.67-0.51c0.4-0.34,0.6-0.81,0.6-1.39c0-0.59-0.2-1.05-0.6-1.38c-0.4-0.33-0.95-0.5-1.67-0.5
			c-0.71,0-1.26,0.17-1.65,0.5s-0.59,0.8-0.59,1.38c0,0.59,0.2,1.05,0.59,1.39C163.14,168.22,163.69,168.39,164.4,168.39z"/>
	</g>
</g>
</svg>
