<?xml version="1.0" encoding="utf-8"?>
<!-- Generator: Adobe Illustrator 22.0.1, SVG Export Plug-In . SVG Version: 6.00 Build 0)  -->
<svg version="1.1" id="Capa_1" xmlns="http://www.w3.org/2000/svg" xmlns:xlink="http://www.w3.org/1999/xlink" x="0px"
	y="0px" viewBox="0 0 458 458" style="enable-background:new 0 0 458 458;" xml:space="preserve">
	<g>
		<g>
			<rect x="11.3" y="24" fill="#013CFE" width="178" height="168.3" />
			<path fill="#FFFFFF" d="M189.4,18.8h-34V8.7c0-4.6-3.6-8.3-8.1-8.3c-4.5,0-8.1,3.7-8.1,8.3v10.1h-78V8.7c0-4.6-3.6-8.3-8.1-8.3
			s-8.1,3.7-8.1,8.3v10.1h-34c-4.5,0-8.1,3.7-8.1,8.3V191c0,4.6,3.6,8.3,8.1,8.3h178.3c4.5,0,8.1-3.7,8.1-8.3V27.1
			C197.5,22.5,193.9,18.8,189.4,18.8z M45.1,32.1v6.3c0,4.5,3.6,8.1,8.1,8.1s8.1-3.6,8.1-8.1v-6.3h77.9v6.3c0,4.5,3.6,8.1,8.1,8.1
			s8.1-3.6,8.1-8.1v-6.3h25.9V65H19.2V32.1H45.1z M19.2,187.1v-95h162.1V187L19.2,187.1L19.2,187.1z" />
		</g>
		<rect x="19.3" y="63.8" fill="#013CFE" width="162.1" height="30" />
		<g>
			<path fill="#FFFFFF" d="M96.8,135.4v8.4H64.3v-7.7L80,119.4c3.3-3.5,5-6.7,5-9.7c0-3.8-2.1-5.6-6.4-5.6c-2,0-4,0.4-6.2,1.2
			c-2.1,0.8-4.2,1.9-6.3,3.4l-3.3-7.4c1.9-1.6,4.3-2.9,7.2-3.9c2.9-1,6-1.4,9-1.4c4.9,0,8.8,1.2,11.8,3.6c2.9,2.4,4.4,5.5,4.4,9.5
			c0,2.7-0.6,5.3-1.7,7.6c-1.1,2.3-3,4.9-5.7,7.8l-10.5,11.1H96.8z" />
			<path fill="#FFFFFF" d="M127.8,135.4H138v8.4h-30.8v-8.4h10.2v-27.3l-8,4.7l-4-7.5l15-8.8h7.4V135.4z" />
		</g>
		<g>
			<path fill="#FFFFFF" d="M37.5,57.3h8.1c1.9,0,3.4,0.5,4.5,1.5c1.1,1,1.6,2.3,1.6,4.1c0,1.7-0.5,3.1-1.6,4.1
			c-1.1,1-2.6,1.5-4.5,1.5h-4.2V75h-3.9V57.3z M45.2,65.4c2,0,2.9-0.8,2.9-2.5c0-0.9-0.2-1.5-0.7-1.9c-0.5-0.4-1.2-0.6-2.2-0.6h-3.7
			v5.1H45.2z" />
			<path fill="#FFFFFF" d="M69.7,75h-4.3l-3.1-5.7c-0.3-0.4-0.6-0.7-0.9-0.9c-0.4-0.2-0.8-0.3-1.3-0.3h-1.9V75h-3.9V57.3h8.1
			c2.1,0,3.6,0.5,4.7,1.4c1.1,0.9,1.6,2.2,1.6,4c0,1.3-0.4,2.5-1.1,3.4s-1.8,1.5-3.2,1.8c0.9,0.2,1.7,0.9,2.3,2L69.7,75z M64.3,64.5
			c0.5-0.4,0.8-1,0.8-1.8c0-0.9-0.3-1.5-0.8-1.9c-0.5-0.4-1.3-0.6-2.4-0.6h-3.7v4.9h3.7C63,65.1,63.8,64.9,64.3,64.5z" />
			<path fill="#FFFFFF"
				d="M75.4,74.1c-1.3-0.7-2.3-1.8-3-3.2c-0.7-1.4-1.1-3-1.1-4.8c0-1.8,0.4-3.4,1.1-4.8c0.7-1.4,1.7-2.4,3-3.2
			c1.3-0.7,2.8-1.1,4.6-1.1c1.8,0,3.3,0.4,4.6,1.1c1.3,0.7,2.3,1.8,3,3.2s1.1,3,1.1,4.8c0,1.8-0.4,3.4-1.1,4.8s-1.7,2.4-3,3.2
			c-1.3,0.7-2.8,1.1-4.6,1.1C78.2,75.2,76.7,74.8,75.4,74.1z M83.4,70.6c0.8-1,1.3-2.5,1.3-4.5s-0.4-3.5-1.3-4.5
			c-0.8-1-2-1.5-3.5-1.5s-2.7,0.5-3.5,1.5c-0.8,1-1.2,2.5-1.2,4.5s0.4,3.5,1.3,4.5c0.8,1,2,1.6,3.5,1.6S82.6,71.6,83.4,70.6z" />
			<path fill="#FFFFFF" d="M93.9,74.7c-1.2-0.4-2.3-0.9-3.1-1.5l1.3-2.8c1.7,1.2,3.6,1.8,5.8,1.8c1.1,0,2-0.2,2.6-0.5
			s0.9-0.9,0.9-1.5c0-0.6-0.3-1-0.8-1.3c-0.5-0.3-1.5-0.6-2.9-0.9c-1.6-0.3-2.8-0.7-3.7-1.2c-0.9-0.5-1.6-1-2-1.7
			c-0.4-0.7-0.6-1.5-0.6-2.5c0-1.1,0.3-2,0.9-2.9c0.6-0.8,1.4-1.5,2.5-2s2.3-0.7,3.7-0.7c1.3,0,2.5,0.2,3.6,0.6
			c1.2,0.4,2.1,0.9,2.8,1.5l-1.3,2.8c-1.6-1.2-3.3-1.8-5.1-1.8c-1,0-1.8,0.2-2.4,0.6c-0.6,0.4-0.9,0.9-0.9,1.6c0,0.4,0.1,0.7,0.3,1
			c0.2,0.3,0.6,0.5,1.1,0.7s1.3,0.4,2.2,0.6c2.3,0.5,3.9,1.1,4.9,1.9c1,0.8,1.5,1.9,1.5,3.3c0,1.7-0.6,3-1.9,4
			c-1.3,1-3.1,1.4-5.4,1.4C96.4,75.2,95.2,75,93.9,74.7z" />
			<path fill="#FFFFFF" d="M107.9,75V57.3h3.9V75H107.9z" />
			<path fill="#FFFFFF" d="M127.1,57.3h3.7V75h-2.9L119,63.7V75h-3.6V57.3h2.9l8.8,11.2V57.3z" />
			<path fill="#FFFFFF" d="M134.3,75V57.3h12.2v3h-8.4v4.1h7.9v3h-7.9v4.4h8.4v3H134.3z" />
			<path fill="#FFFFFF"
				d="M152.8,74.1c-1.3-0.8-2.4-1.8-3.1-3.2c-0.7-1.4-1.1-3-1.1-4.8s0.4-3.4,1.1-4.8c0.7-1.4,1.7-2.4,3.1-3.2
			c1.3-0.7,2.9-1.1,4.7-1.1c1.2,0,2.3,0.2,3.4,0.5c1.1,0.4,2,0.9,2.6,1.5l-1.3,2.8c-0.8-0.6-1.5-1-2.3-1.3s-1.6-0.4-2.4-0.4
			c-1.6,0-2.8,0.5-3.6,1.5c-0.8,1-1.3,2.5-1.3,4.4c0,1.9,0.4,3.4,1.3,4.4c0.8,1,2.1,1.5,3.6,1.5c0.8,0,1.6-0.1,2.4-0.4
			c0.8-0.3,1.5-0.7,2.3-1.3l1.3,2.8c-0.7,0.6-1.6,1.1-2.6,1.5c-1.1,0.4-2.2,0.5-3.4,0.5C155.7,75.2,154.2,74.8,152.8,74.1z" />
		</g>
		<g>
			<path fill="#FFFFFF" d="M129.1,174.5h3.2v2.6h-9.6v-2.6h3.2V166l-2.5,1.5l-1.2-2.3l4.7-2.7h2.3V174.5z" />
			<path fill="#FFFFFF" d="M143.2,164.1c1,1.3,1.6,3.1,1.6,5.4c0,1.6-0.2,3-0.7,4.2c-0.5,1.2-1.2,2.1-2.2,2.7s-2.1,0.9-3.3,0.9
			c-0.9,0-1.8-0.1-2.6-0.4s-1.6-0.7-2.2-1.2l1-2.3c1.3,0.9,2.5,1.4,3.6,1.4c1,0,1.7-0.4,2.2-1.2s0.8-1.9,0.9-3.4
			c-0.3,0.5-0.8,1-1.4,1.3c-0.6,0.3-1.2,0.5-2,0.5c-0.9,0-1.6-0.2-2.3-0.6c-0.7-0.4-1.2-1-1.6-1.7c-0.4-0.7-0.6-1.5-0.6-2.5
			c0-1,0.2-1.8,0.6-2.6c0.4-0.8,1-1.4,1.8-1.8c0.8-0.4,1.6-0.6,2.6-0.6C140.7,162.1,142.2,162.8,143.2,164.1z M140.5,168.7
			c0.4-0.4,0.6-1,0.6-1.7s-0.2-1.3-0.6-1.7c-0.4-0.4-0.9-0.7-1.6-0.7c-0.7,0-1.2,0.2-1.6,0.6c-0.4,0.4-0.6,1-0.6,1.7
			c0,0.7,0.2,1.3,0.6,1.7c0.4,0.4,0.9,0.6,1.6,0.6C139.6,169.4,140.1,169.2,140.5,168.7z" />
			<path fill="#FFFFFF" d="M156.8,170.8c0.5,0.6,0.7,1.4,0.7,2.3c0,1.3-0.5,2.3-1.5,3.1c-1,0.7-2.4,1.1-4.2,1.1s-3.2-0.4-4.2-1.1
			c-1-0.7-1.5-1.8-1.5-3.1c0-0.9,0.2-1.7,0.7-2.3s1.1-1,2-1.3c-0.7-0.3-1.3-0.7-1.7-1.3c-0.4-0.6-0.6-1.3-0.6-2.1
			c0-1.2,0.5-2.2,1.4-2.9c0.9-0.7,2.2-1.1,3.9-1.1c1.6,0,2.9,0.4,3.9,1.1s1.4,1.7,1.4,2.9c0,0.8-0.2,1.5-0.6,2.1
			c-0.4,0.6-1,1-1.7,1.3C155.7,169.8,156.4,170.2,156.8,170.8z M154.5,172.8c0-1.3-0.9-1.9-2.6-1.9c-1.8,0-2.6,0.6-2.6,1.9
			c0,1.3,0.9,1.9,2.6,1.9C153.6,174.8,154.5,174.1,154.5,172.8z M149.6,166.5c0,1.3,0.7,1.9,2.2,1.9s2.2-0.6,2.2-1.9
			c0-1.2-0.7-1.9-2.2-1.9S149.6,165.3,149.6,166.5z" />
			<path fill="#FFFFFF" d="M169.4,170.8c0.5,0.6,0.7,1.4,0.7,2.3c0,1.3-0.5,2.3-1.5,3.1c-1,0.7-2.4,1.1-4.2,1.1s-3.2-0.4-4.2-1.1
			c-1-0.7-1.5-1.8-1.5-3.1c0-0.9,0.2-1.7,0.7-2.3s1.1-1,2-1.3c-0.7-0.3-1.3-0.7-1.7-1.3c-0.4-0.6-0.6-1.3-0.6-2.1
			c0-1.2,0.5-2.2,1.4-2.9c0.9-0.7,2.2-1.1,3.9-1.1c1.6,0,2.9,0.4,3.9,1.1s1.4,1.7,1.4,2.9c0,0.8-0.2,1.5-0.6,2.1
			c-0.4,0.6-1,1-1.7,1.3C168.3,169.8,168.9,170.2,169.4,170.8z M167,172.8c0-1.3-0.9-1.9-2.6-1.9c-1.8,0-2.6,0.6-2.6,1.9
			c0,1.3,0.9,1.9,2.6,1.9C166.2,174.8,167,174.1,167,172.8z M162.2,166.5c0,1.3,0.7,1.9,2.2,1.9s2.2-0.6,2.2-1.9
			c0-1.2-0.7-1.9-2.2-1.9S162.2,165.3,162.2,166.5z" />
		</g>
	</g>
</svg>