<?xml version="1.0" encoding="utf-8"?>
<!-- Generator: Adobe Illustrator 24.0.1, SVG Export Plug-In . SVG Version: 6.00 Build 0)  -->
<svg version="1.1" id="Layer_1" xmlns="http://www.w3.org/2000/svg" xmlns:xlink="http://www.w3.org/1999/xlink" x="0px" y="0px"
	 viewBox="0 0 200 200" style="enable-background:new 0 0 200 200;" xml:space="preserve">
<style type="text/css">
	.st0{display:none;}
	.st1{display:inline;}
	.st2{fill:#013CFE;}
	.st3{fill:#FFFFFF;}
	.st4{display:inline;fill:#013CFE;}
</style>
<g class="st0">
	<g class="st1">
		<rect x="13.3" y="23" class="st2" width="174.5" height="167.1"/>
		<path class="st3" d="M189.4,18.8h-34V8.7c0-4.6-3.6-8.3-8.1-8.3s-8.1,3.7-8.1,8.3v10.1h-78V8.7c0-4.6-3.6-8.3-8.1-8.3
			s-8.1,3.7-8.1,8.3v10.1h-34c-4.5,0-8.1,3.7-8.1,8.3V191c0,4.6,3.6,8.3,8.1,8.3h178.3c4.5,0,8.1-3.7,8.1-8.3V27.1
			C197.5,22.5,193.9,18.8,189.4,18.8z M45.1,32.1v6.3c0,4.5,3.6,8.1,8.1,8.1s8.1-3.6,8.1-8.1v-6.3h77.9v6.3c0,4.5,3.6,8.1,8.1,8.1
			s8.1-3.6,8.1-8.1v-6.3h25.9v33H19.2v-33H45.1z M19.2,187.1v-95h162.1V187L19.2,187.1L19.2,187.1z"/>
	</g>
	<rect x="19.3" y="63.8" class="st4" width="162.1" height="30"/>
	<g class="st1">
		<path class="st3" d="M64.9,143.8v-7.7l14.8-15.6c1.9-2.1,3.2-3.8,4.1-5.4c0.8-1.5,1.2-3.1,1.2-4.7c0-4-2.5-6-7.4-6
			c-1.9,0-3.8,0.4-5.8,1.1c-1.9,0.7-3.8,1.9-5.6,3.4l-3.3-7.6c2-1.7,4.4-3,7.3-4c2.9-1,5.8-1.5,8.9-1.5c5.3,0,9.3,1.2,12.1,3.5
			s4.2,5.7,4.2,10c0,2.9-0.7,5.6-2,8.2s-3.5,5.4-6.5,8.5l-9.1,9.3H97v8.5L64.9,143.8L64.9,143.8z"/>
		<path class="st3" d="M106.8,143.8v-8.5h10.6v-27.1l-8.1,4.8l-4-7.6l15.1-8.8h7.4v38.7h9.9v8.5L106.8,143.8L106.8,143.8z"/>
	</g>
	<g class="st1">
		<path class="st3" d="M37.4,75V57.3h8.1c2,0,3.5,0.5,4.6,1.5s1.6,2.4,1.6,4.2s-0.5,3.2-1.6,4.2s-2.6,1.5-4.6,1.5h-4.2V75
			C41.3,75,37.4,75,37.4,75z M41.3,65.6h3.5c2.1,0,3.1-0.9,3.1-2.7c0-1.7-1-2.6-3.1-2.6h-3.5V65.6z"/>
		<path class="st3" d="M54.1,75V57.3h8.1c2,0,3.5,0.5,4.6,1.4s1.6,2.3,1.6,4c0,1.3-0.3,2.4-1,3.3c-0.7,0.9-1.7,1.5-2.9,1.8
			c0.9,0.3,1.6,0.9,2.2,1.9l2.9,5.3h-4.3l-3.1-5.7c-0.3-0.4-0.6-0.8-0.9-0.9c-0.4-0.2-0.8-0.3-1.3-0.3H58V75L54.1,75L54.1,75z
			 M58,65.3h3.5c2.1,0,3.1-0.8,3.1-2.5c0-1.7-1-2.5-3.1-2.5H58V65.3z"/>
		<path class="st3" d="M79.7,75.3c-1.7,0-3.3-0.4-4.6-1.1s-2.3-1.8-3.1-3.2s-1.1-3-1.1-4.8s0.4-3.5,1.1-4.8s1.8-2.4,3.1-3.2
			c1.3-0.8,2.8-1.1,4.6-1.1s3.3,0.4,4.6,1.1s2.3,1.8,3.1,3.2s1.1,3,1.1,4.8c0,1.8-0.4,3.4-1.1,4.8c-0.7,1.4-1.8,2.4-3.1,3.2
			C83,74.9,81.5,75.3,79.7,75.3z M79.7,71.9c1.5,0,2.6-0.5,3.5-1.6c0.8-1,1.2-2.5,1.2-4.3c0-1.8-0.4-3.3-1.2-4.3
			c-0.8-1-2-1.5-3.5-1.5c-1.5,0-2.6,0.5-3.4,1.5S75,64.3,75,66.1c0,1.8,0.4,3.3,1.2,4.3C77.1,71.4,78.3,71.9,79.7,71.9z"/>
		<path class="st3" d="M97.8,75.3c-1.4,0-2.7-0.2-3.9-0.5s-2.3-0.8-3.1-1.4l1.1-3.1c0.8,0.6,1.7,1,2.7,1.3c1,0.3,2.1,0.5,3.2,0.5
			c1.2,0,2.1-0.2,2.6-0.6s0.8-0.8,0.8-1.4c0-0.5-0.2-0.9-0.6-1.2c-0.4-0.3-1-0.5-1.9-0.7l-2.8-0.6c-3.2-0.7-4.8-2.3-4.8-4.9
			c0-1.1,0.3-2.1,0.9-3c0.6-0.8,1.4-1.5,2.5-2s2.3-0.7,3.8-0.7c1.2,0,2.4,0.2,3.4,0.5s2,0.8,2.7,1.5l-1.1,2.9c-1.4-1.1-3-1.6-5-1.6
			c-1.1,0-1.9,0.2-2.4,0.6c-0.6,0.4-0.9,0.9-0.9,1.6c0,0.5,0.2,0.9,0.5,1.2s1,0.5,1.8,0.7l2.8,0.6c3.3,0.7,4.9,2.3,4.9,4.8
			c0,1.1-0.3,2.1-0.9,2.9s-1.4,1.5-2.5,1.9C100.6,75,99.3,75.3,97.8,75.3z"/>
		<path class="st3" d="M107.6,75V57.3h3.9V75C111.5,75,107.6,75,107.6,75z"/>
		<path class="st3" d="M115.1,75V57.3h2.9l8.8,11.3V57.3h3.6V75h-2.9l-8.9-11.3V75C118.7,75,115.1,75,115.1,75z"/>
		<path class="st3" d="M134,75V57.3h12.1v3h-8.4v4.1h7.9v3.1h-7.9v4.4h8.4v3C146.1,75,134,75,134,75z"/>
		<path class="st3" d="M157.8,75.3c-1.9,0-3.5-0.4-4.9-1.1s-2.4-1.8-3.1-3.2c-0.7-1.4-1.1-3-1.1-4.8c0-1.8,0.4-3.5,1.1-4.8
			c0.7-1.4,1.8-2.4,3.1-3.2s3-1.1,4.9-1.1c1.2,0,2.3,0.2,3.4,0.5c1.1,0.4,1.9,0.9,2.6,1.5l-1.2,3.1c-0.8-0.6-1.5-1-2.3-1.3
			s-1.6-0.4-2.4-0.4c-1.7,0-3,0.5-3.8,1.5s-1.3,2.4-1.3,4.2s0.4,3.2,1.3,4.2s2.1,1.5,3.8,1.5c0.8,0,1.6-0.1,2.4-0.4s1.5-0.7,2.3-1.3
			l1.2,3.1c-0.7,0.6-1.6,1.1-2.6,1.5C160.1,75.1,159,75.3,157.8,75.3z"/>
	</g>
	<g class="st1">
		<path class="st3" d="M122.5,177.1v-2.7h3.3V166l-2.5,1.5l-1.2-2.4l4.7-2.7h2.3v12.1h3.1v2.7L122.5,177.1L122.5,177.1z"/>
		<path class="st3" d="M138.1,177.3c-0.8,0-1.6-0.1-2.4-0.4s-1.5-0.7-2-1.2l1.1-2.4c0.5,0.4,1,0.8,1.6,1s1.2,0.3,1.8,0.3
			c2.3,0,3.5-1.5,3.5-4.5v-0.4c-0.3,0.7-0.8,1.2-1.4,1.6s-1.3,0.6-2.1,0.6c-0.8,0-1.6-0.2-2.2-0.6s-1.2-1-1.6-1.7s-0.6-1.5-0.6-2.5
			c0-1,0.2-1.9,0.6-2.6s1-1.4,1.8-1.8s1.6-0.6,2.6-0.6c1.9,0,3.4,0.6,4.4,1.9c1,1.3,1.5,3.1,1.5,5.5c0,1.6-0.3,3.1-0.8,4.2
			c-0.5,1.2-1.3,2.1-2.3,2.7C140.6,177,139.4,177.3,138.1,177.3z M138.9,169.4c0.6,0,1.2-0.2,1.6-0.7c0.4-0.4,0.6-1,0.6-1.7
			c0-0.7-0.2-1.3-0.6-1.7c-0.4-0.4-0.9-0.7-1.6-0.7c-0.6,0-1.2,0.2-1.6,0.7c-0.4,0.4-0.6,1-0.6,1.7c0,0.7,0.2,1.3,0.6,1.7
			C137.7,169.2,138.3,169.4,138.9,169.4z"/>
		<path class="st3" d="M151.8,177.3c-1.8,0-3.1-0.4-4.1-1.1c-1-0.8-1.5-1.8-1.5-3.1c0-0.9,0.2-1.6,0.7-2.2s1-1.1,1.8-1.3
			c-0.6-0.3-1.1-0.8-1.5-1.4c-0.4-0.6-0.6-1.3-0.6-2c0-1.3,0.5-2.2,1.4-2.9s2.2-1.1,3.8-1.1c1.6,0,2.9,0.4,3.8,1.1s1.4,1.7,1.4,2.9
			c0,0.8-0.2,1.4-0.6,2.1c-0.4,0.6-0.9,1-1.5,1.3c0.7,0.3,1.3,0.7,1.7,1.4c0.4,0.6,0.6,1.4,0.6,2.2c0,1.3-0.5,2.4-1.5,3.1
			C155,177,153.6,177.3,151.8,177.3z M151.8,174.8c1.8,0,2.6-0.7,2.6-2c0-1.3-0.9-2-2.6-2c-0.9,0-1.5,0.2-2,0.5s-0.7,0.8-0.7,1.5
			s0.2,1.1,0.7,1.5S151,174.8,151.8,174.8z M151.8,168.4c0.7,0,1.3-0.2,1.7-0.5s0.6-0.8,0.6-1.4c0-0.6-0.2-1.1-0.6-1.4
			c-0.4-0.3-0.9-0.5-1.7-0.5c-0.7,0-1.3,0.2-1.6,0.5s-0.6,0.8-0.6,1.4c0,0.6,0.2,1.1,0.6,1.4S151.1,168.4,151.8,168.4z"/>
		<path class="st3" d="M164.4,177.3c-1.8,0-3.1-0.4-4.1-1.1c-1-0.8-1.5-1.8-1.5-3.1c0-0.9,0.2-1.6,0.7-2.2s1-1.1,1.8-1.3
			c-0.6-0.3-1.1-0.8-1.5-1.4c-0.4-0.6-0.6-1.3-0.6-2c0-1.3,0.5-2.2,1.4-2.9s2.2-1.1,3.8-1.1c1.6,0,2.9,0.4,3.8,1.1s1.4,1.7,1.4,2.9
			c0,0.8-0.2,1.4-0.6,2.1c-0.4,0.6-0.9,1-1.5,1.3c0.7,0.3,1.3,0.7,1.7,1.4c0.4,0.6,0.6,1.4,0.6,2.2c0,1.3-0.5,2.4-1.5,3.1
			C167.5,177,166.2,177.3,164.4,177.3z M164.4,174.8c1.8,0,2.6-0.7,2.6-2c0-1.3-0.9-2-2.6-2c-0.9,0-1.5,0.2-2,0.5s-0.7,0.8-0.7,1.5
			s0.2,1.1,0.7,1.5S163.6,174.8,164.4,174.8z M164.4,168.4c0.7,0,1.3-0.2,1.7-0.5s0.6-0.8,0.6-1.4c0-0.6-0.2-1.1-0.6-1.4
			c-0.4-0.3-0.9-0.5-1.7-0.5c-0.7,0-1.3,0.2-1.6,0.5s-0.6,0.8-0.6,1.4c0,0.6,0.2,1.1,0.6,1.4S163.7,168.4,164.4,168.4z"/>
	</g>
</g>
<g>
	<path class="st3" d="M182.8,193.1H17c-9,0-16.3-7.3-16.3-16.3V36C0.7,27,8,19.7,17,19.7h165.9c9,0,16.3,7.3,16.3,16.3v140.8
		C199.1,185.8,191.8,193.1,182.8,193.1z M17,31.7c-2.4,0-4.3,1.9-4.3,4.3v140.8c0,2.4,1.9,4.3,4.3,4.3h165.9c2.4,0,4.3-1.9,4.3-4.3
		V36c0-2.4-1.9-4.3-4.3-4.3H17z"/>
</g>
<g>
	<path class="st3" d="M53.2,43.1h0.3c3.2,0,5.9-2.6,5.9-5.9V14.2c0-3.2-2.6-5.9-5.9-5.9h-0.3c-3.2,0-5.9,2.6-5.9,5.9v23.1
		C47.4,40.5,50,43.1,53.2,43.1z"/>
</g>
<g>
	<path class="st3" d="M147.2,43.1h0.3c3.2,0,5.9-2.6,5.9-5.9V14.2c0-3.2-2.6-5.9-5.9-5.9h-0.3c-3.2,0-5.9,2.6-5.9,5.9v23.1
		C141.3,40.5,144,43.1,147.2,43.1z"/>
</g>
<g>
	<path class="st3" d="M37,74.9V58.7h6.7c2.8,0,5,0.7,6.5,2.1c1.5,1.4,2.3,3.4,2.3,6c0,2.6-0.8,4.6-2.3,6c-1.5,1.4-3.7,2.1-6.5,2.1
		H37z M41.2,71.5h2.2c1.6,0,2.8-0.4,3.6-1.2s1.2-2,1.2-3.5c0-1.6-0.4-2.8-1.2-3.5c-0.8-0.8-2-1.1-3.6-1.1h-2.2V71.5z"/>
	<path class="st3" d="M55,74.9V58.7h11.5V62h-7.4v3.1H66v3.3h-6.9v3.3h7.4v3.3H55z"/>
	<path class="st3" d="M77.4,75.2c-1.8,0-3.3-0.3-4.6-1s-2.3-1.7-3-2.9c-0.7-1.3-1-2.7-1-4.4c0-1.7,0.3-3.2,1-4.4
		c0.7-1.2,1.7-2.2,3-2.9s2.8-1,4.6-1c1.1,0,2.1,0.2,3.1,0.5c1,0.3,1.8,0.8,2.4,1.3l-1.3,3.3c-0.7-0.5-1.3-0.9-2-1.1
		c-0.7-0.2-1.4-0.4-2.1-0.4c-1.4,0-2.5,0.4-3.2,1.2c-0.7,0.8-1.1,2-1.1,3.5c0,1.5,0.4,2.7,1.1,3.5c0.7,0.8,1.8,1.2,3.2,1.2
		c0.7,0,1.4-0.1,2.1-0.4c0.7-0.2,1.3-0.6,2-1.1l1.3,3.3c-0.6,0.5-1.4,1-2.4,1.3C79.5,75,78.5,75.2,77.4,75.2z"/>
	<path class="st3" d="M85,74.9V58.7h11.5V62h-7.4v3.1h6.9v3.3h-6.9v3.3h7.4v3.3H85z"/>
	<path class="st3" d="M99.2,74.9V58.7h3.5l5.2,9.3l5.2-9.3h3.4v16.2h-3.8v-8.8l-3.7,6.4h-2.3l-3.7-6.3v8.7H99.2z"/>
	<path class="st3" d="M119.5,74.9V58.7h7.8c1.7,0,3.1,0.4,4.1,1.1c1,0.8,1.4,1.8,1.4,3c0,0.8-0.2,1.6-0.6,2.2s-1,1.1-1.8,1.4
		c0.9,0.3,1.6,0.7,2.1,1.4c0.5,0.7,0.7,1.5,0.7,2.4c0,1.4-0.5,2.5-1.5,3.4s-2.4,1.2-4.2,1.2H119.5z M123.5,65.2h3
		c0.8,0,1.3-0.1,1.7-0.4s0.5-0.7,0.5-1.3c0-0.6-0.2-1-0.5-1.3c-0.4-0.3-0.9-0.4-1.7-0.4h-3V65.2z M123.5,71.8h3.4
		c0.8,0,1.4-0.1,1.7-0.4c0.4-0.3,0.5-0.7,0.5-1.3s-0.2-1-0.5-1.3c-0.4-0.3-0.9-0.4-1.7-0.4h-3.4V71.8z"/>
	<path class="st3" d="M135.6,74.9V58.7h11.5V62h-7.4v3.1h6.9v3.3h-6.9v3.3h7.4v3.3H135.6z"/>
	<path class="st3" d="M149.7,74.9V58.7h7.8c1.8,0,3.3,0.4,4.3,1.3c1,0.9,1.5,2.1,1.5,3.7c0,1.2-0.3,2.2-0.9,3
		c-0.6,0.8-1.5,1.4-2.6,1.7c0.9,0.2,1.5,0.8,2.1,1.8l2.5,4.6h-4.6l-2.8-5.2c-0.2-0.3-0.4-0.6-0.7-0.7c-0.3-0.1-0.6-0.2-1-0.2H154v6
		H149.7z M154,65.9h2.8c1.7,0,2.5-0.7,2.5-2c0-1.3-0.8-2-2.5-2H154V65.9z"/>
</g>
<g>
	<path class="st3" d="M65.5,139.1v-8.8l13.8-14.4c1.7-1.8,2.9-3.4,3.6-4.7c0.7-1.3,1.1-2.6,1.1-3.9c0-3.3-2.1-4.9-6.3-4.9
		c-1.7,0-3.5,0.3-5.3,1c-1.8,0.6-3.6,1.6-5.4,3l-3.7-8.7c2-1.6,4.4-2.8,7.2-3.7c2.8-0.9,5.8-1.4,8.8-1.4c5.3,0,9.3,1.1,12.1,3.4
		c2.8,2.3,4.2,5.6,4.2,9.9c0,2.8-0.6,5.4-1.9,8c-1.3,2.5-3.4,5.2-6.3,8.1l-7.4,7.4h17.3v9.7H65.5z"/>
	<path class="st3" d="M105.8,139.1v-9.7h10.2v-23.1l-7.7,4.4l-4.4-8.6l15.6-8.8h8.4v36.1h9.6v9.7H105.8z"/>
</g>
<g>
	<path class="st3" d="M121.2,172.7v-3.4h3.6v-8.2l-2.7,1.6l-1.5-3.1l5.5-3.1h3v12.8h3.4v3.4H121.2z"/>
	<path class="st3" d="M138.4,173c-0.9,0-1.8-0.1-2.6-0.4c-0.9-0.3-1.6-0.7-2.3-1.3l1.3-3.1c1.1,0.9,2.3,1.3,3.6,1.3
		c2.3,0,3.5-1.4,3.5-4.3V165c-0.3,0.7-0.8,1.2-1.5,1.6c-0.6,0.4-1.4,0.6-2.2,0.6c-0.9,0-1.7-0.2-2.4-0.7c-0.7-0.5-1.3-1.1-1.7-1.9
		c-0.4-0.8-0.6-1.7-0.6-2.7c0-1.1,0.2-2.1,0.7-2.9c0.5-0.8,1.1-1.5,2-2c0.8-0.5,1.8-0.7,2.9-0.7c2.1,0,3.8,0.7,4.9,2.1
		c1.2,1.4,1.7,3.5,1.7,6.1c0,1.8-0.3,3.3-0.9,4.6c-0.6,1.3-1.4,2.2-2.6,2.9S140,173,138.4,173z M139.4,163.9c0.6,0,1.1-0.2,1.4-0.6
		c0.4-0.4,0.5-0.9,0.5-1.6s-0.2-1.2-0.5-1.6c-0.4-0.4-0.8-0.6-1.4-0.6c-0.6,0-1.1,0.2-1.4,0.6c-0.4,0.4-0.5,0.9-0.5,1.6
		s0.2,1.2,0.5,1.6C138.3,163.7,138.8,163.9,139.4,163.9z"/>
	<path class="st3" d="M153.6,173c-2,0-3.5-0.4-4.6-1.2s-1.7-2-1.7-3.4c0-1,0.2-1.8,0.7-2.5c0.5-0.7,1.1-1.2,1.9-1.5
		c-0.6-0.3-1.2-0.8-1.5-1.5c-0.4-0.6-0.6-1.4-0.6-2.2c0-1.4,0.5-2.5,1.6-3.3c1.1-0.8,2.5-1.2,4.3-1.2c1.8,0,3.2,0.4,4.3,1.2
		c1.1,0.8,1.6,1.9,1.6,3.3c0,0.8-0.2,1.6-0.6,2.2c-0.4,0.6-0.9,1.1-1.5,1.4c0.8,0.3,1.4,0.8,1.8,1.5c0.5,0.7,0.7,1.5,0.7,2.4
		c0,1.5-0.6,2.6-1.7,3.4S155.6,173,153.6,173z M153.6,169.8c1.7,0,2.5-0.6,2.5-1.8s-0.8-1.8-2.5-1.8c-0.8,0-1.4,0.2-1.9,0.5
		c-0.4,0.3-0.6,0.8-0.6,1.4s0.2,1.1,0.6,1.4C152.2,169.7,152.8,169.8,153.6,169.8z M153.6,162.9c0.6,0,1.1-0.2,1.5-0.5
		c0.4-0.3,0.6-0.7,0.6-1.3c0-0.5-0.2-1-0.6-1.3s-0.9-0.5-1.5-0.5c-0.6,0-1.1,0.2-1.5,0.5s-0.5,0.7-0.5,1.3c0,0.5,0.2,1,0.5,1.3
		C152.5,162.8,153,162.9,153.6,162.9z"/>
	<path class="st3" d="M167.4,173c-2,0-3.5-0.4-4.6-1.2s-1.7-2-1.7-3.4c0-1,0.2-1.8,0.7-2.5c0.5-0.7,1.1-1.2,1.9-1.5
		c-0.6-0.3-1.2-0.8-1.5-1.5c-0.4-0.6-0.6-1.4-0.6-2.2c0-1.4,0.5-2.5,1.6-3.3c1.1-0.8,2.5-1.2,4.3-1.2c1.8,0,3.2,0.4,4.3,1.2
		c1.1,0.8,1.6,1.9,1.6,3.3c0,0.8-0.2,1.6-0.6,2.2c-0.4,0.6-0.9,1.1-1.5,1.4c0.8,0.3,1.4,0.8,1.8,1.5c0.5,0.7,0.7,1.5,0.7,2.4
		c0,1.5-0.6,2.6-1.7,3.4S169.4,173,167.4,173z M167.4,169.8c1.7,0,2.5-0.6,2.5-1.8s-0.8-1.8-2.5-1.8c-0.8,0-1.4,0.2-1.9,0.5
		c-0.4,0.3-0.6,0.8-0.6,1.4s0.2,1.1,0.6,1.4C166,169.7,166.6,169.8,167.4,169.8z M167.4,162.9c0.6,0,1.1-0.2,1.5-0.5
		c0.4-0.3,0.6-0.7,0.6-1.3c0-0.5-0.2-1-0.6-1.3s-0.9-0.5-1.5-0.5c-0.6,0-1.1,0.2-1.5,0.5s-0.5,0.7-0.5,1.3c0,0.5,0.2,1,0.5,1.3
		C166.3,162.8,166.8,162.9,167.4,162.9z"/>
</g>
</svg>
