<?xml version="1.0" encoding="utf-8"?>
<!-- Generator: Adobe Illustrator 22.0.1, SVG Export Plug-In . SVG Version: 6.00 Build 0)  -->
<svg version="1.1" id="Layer_1" xmlns="http://www.w3.org/2000/svg" xmlns:xlink="http://www.w3.org/1999/xlink" x="0px" y="0px"
	 viewBox="0 0 15 15" style="enable-background:new 0 0 15 15;" xml:space="preserve">
<style type="text/css">
	.st0{fill:#FFFFFF;}
</style>
<path class="st0" d="M6.8,1.2l0.4,0.4l0,0L6.8,1.2z M1.2,6.8L0.9,6.4l0,0L1.2,6.8z M1.2,8.2l0.4-0.4l0,0L1.2,8.2z M6.8,13.8
	l-0.4,0.4L6.8,13.8z M8.2,13.8l-0.4-0.4L8.2,13.8z M13.8,8.2l0.4,0.4L13.8,8.2z M13.8,6.8l-0.4,0.4L13.8,6.8z M8.2,1.2l0.4-0.4l0,0
	L8.2,1.2z M6.4,0.9L0.9,6.4l0.7,0.7l5.6-5.6L6.4,0.9z M0.9,8.6l5.6,5.6l0.7-0.7L1.6,7.9L0.9,8.6z M8.6,14.1l5.6-5.6l-0.7-0.7
	l-5.6,5.6L8.6,14.1z M14.1,6.4L8.6,0.9L7.9,1.6l5.6,5.6L14.1,6.4z M14.1,8.6c0.6-0.6,0.6-1.5,0-2.1l-0.7,0.7c0.2,0.2,0.2,0.5,0,0.7
	L14.1,8.6z M6.4,14.1c0.6,0.6,1.5,0.6,2.1,0l-0.7-0.7c-0.2,0.2-0.5,0.2-0.7,0L6.4,14.1z M0.9,6.4C0.3,7,0.3,8,0.9,8.6l0.7-0.7
	c-0.2-0.2-0.2-0.5,0-0.7L0.9,6.4z M7.1,1.6c0.2-0.2,0.5-0.2,0.7,0l0.7-0.7C8,0.3,7,0.3,6.4,0.9L7.1,1.6z M5.1,2.9l1,1l0.7-0.7l-1-1
	L5.1,2.9z M7.5,5C7.2,5,7,4.8,7,4.5H6C6,5.3,6.7,6,7.5,6V5z M8,4.5C8,4.8,7.8,5,7.5,5v1C8.3,6,9,5.3,9,4.5H8z M7.5,4
	C7.8,4,8,4.2,8,4.5h1C9,3.7,8.3,3,7.5,3V4z M7.5,3C6.7,3,6,3.7,6,4.5h1C7,4.2,7.2,4,7.5,4V3z M8.1,5.9l1.5,1.5l0.7-0.7L8.9,5.1
	L8.1,5.9z M10.5,8C10.2,8,10,7.8,10,7.5H9C9,8.3,9.7,9,10.5,9V8z M11,7.5C11,7.8,10.8,8,10.5,8v1C11.3,9,12,8.3,12,7.5H11z M10.5,7
	C10.8,7,11,7.2,11,7.5h1C12,6.7,11.3,6,10.5,6V7z M10.5,6C9.7,6,9,6.7,9,7.5h1C10,7.2,10.2,7,10.5,7V6z M7,5.5v4h1v-4H7z M7.5,11
	C7.2,11,7,10.8,7,10.5H6C6,11.3,6.7,12,7.5,12V11z M8,10.5C8,10.8,7.8,11,7.5,11v1C8.3,12,9,11.3,9,10.5H8z M7.5,10
	C7.8,10,8,10.2,8,10.5h1C9,9.7,8.3,9,7.5,9V10z M7.5,9C6.7,9,6,9.7,6,10.5h1C7,10.2,7.2,10,7.5,10V9z"/>
</svg>
