<?xml version="1.0" encoding="utf-8"?>
<!-- Generator: Adobe Illustrator 24.0.1, SVG Export Plug-In . SVG Version: 6.00 Build 0)  -->
<svg version="1.1" id="Layer_1" xmlns="http://www.w3.org/2000/svg" xmlns:xlink="http://www.w3.org/1999/xlink" x="0px" y="0px"
	 viewBox="0 0 76 76" style="enable-background:new 0 0 76 76;" xml:space="preserve">
<style type="text/css">
	.st0{fill:#FFFFFF;}
</style>
<path class="st0" d="M30.5,22.8h6.9l9.6,29.5h-5.8l-2.7-8.3h-9.4l-2.5,8.3H21L30.5,22.8z M32.3,32.6L30,39.8h7.6l-2.3-7.3
	c-0.6-1.8-1-3.8-1.5-5.5h-0.1C33.2,28.8,32.8,30.8,32.3,32.6z M48.7,25c0-1.7,1.2-2.9,3-2.9c1.8,0,3,1.3,3,2.9
	c0,1.6-1.2,2.9-3.1,2.9C49.9,27.9,48.7,26.6,48.7,25z M49,52.3V31h5.4v21.3H49z"/>
</svg>
