<?xml version="1.0" encoding="utf-8"?>
<!-- Generator: Adobe Illustrator 24.0.1, SVG Export Plug-In . SVG Version: 6.00 Build 0)  -->
<svg version="1.1" id="Layer_1" xmlns="http://www.w3.org/2000/svg" xmlns:xlink="http://www.w3.org/1999/xlink" x="0px" y="0px"
	 viewBox="0 0 512 115.9" style="enable-background:new 0 0 512 115.9;" xml:space="preserve">
<style type="text/css">
	.st0{fill-rule:evenodd;clip-rule:evenodd;fill:#FFFFFF;}
</style>
<g>
	<g>
		<path class="st0" d="M489.7,8.6l21.4,0.1c0,0-39.8,54-43.1,58.4c-1.1,1.4-2.7,3-3.5,4.9c-2.1,4.8-4.2,15.3-4.2,15.3l-19.6,0.1
			c0,0,3-10.9,2.9-16.8c-0.1-5.1-2.7-10.2-4.2-15.3c-1.5-5.2-3.5-15.3-3.5-15.3h20.1l2.8,11.1L489.7,8.6"/>
		<path class="st0" d="M449.2,19.9c4,2.4,6.4,15.5,6.4,15.5s-20.7,0.3-31.9,0.3h-9.7l-11.8,51.4H384c0,0,11.2-55.9,13.9-66
			c0.9-3.3,5.9-2.7,14.4-2.7h13.6C434.6,18.5,444.8,17.4,449.2,19.9"/>
		<path class="st0" d="M365.1,45c0,0,0.6-3.3-1.9-7.1c-2.1-3.3-4.1-4-9.6-4.2c-15.7-0.5-15.4,11.1-15.4,11.1L365.1,45L365.1,45z
			 M382.1,31.7c2.3,8.3-2.1,27.8-2.1,27.8s-22.9-0.4-35.4,0c-3.9,0.1-8.6-0.4-9.7,1.4c-1.6,2.5,0.6,6.5,2.5,8.1
			c2.2,1.9,6.4,2.1,7.9,2.3c10.2,1.3,31.5,0.3,31.5,0.3L373,87.9c0,0-30.1,1.5-45.2-2.1c-3-0.7-5.8-2.1-7.6-4.2
			c-0.5-0.6-1-1.3-1.4-2c-0.4-0.5-1.5-2.2-2-3.6c-3.4-9.2,0.4-26.7,4.2-36.1c0.4-1.1,1-2.5,1.6-3.6c0.7-1.5,1.3-3.1,1.9-4
			c0.4-0.6,0.9-1,1.3-1.6c0.5-0.7,1-1.3,1.5-1.9c1.4-1.6,3-2.8,4.9-4.2c6.3-4.7,17.6-8.3,31.3-6.9c5.1,0.5,12.9,2.4,16.7,7.6
			C381,26.8,381.5,29.6,382.1,31.7L382.1,31.7L382.1,31.7z"/>
		<path class="st0" d="M299.2,18.4l17.5-0.1c0,0-9.8,46.3-14.7,68.9h-20.1c-14.1,0-26.6,1.7-32-8.3c-5.2-9.8-0.2-25.9,2.1-36.8
			c1.6-7.7,5.1-23.6,5.1-23.6l18.1-0.2c0,0-5.1,24.6-7.3,36.9c-0.8,4.4-2.3,8.6-0.7,11.8c1.6,3.1,3.8,3.3,10.4,3.5c2.1,0,9,0,9,0
			L299.2,18.4"/>
		<path class="st0" d="M217.2,51.8c1.8-6.5,4.5-13.6,4.2-19.5c-0.4-6.3-5.6-12-9-13.2c-10.2-3.6-19.8,1.4-23.6,5.6
			c-4.9,5.3-6.6,11.6-8.3,20.1c-1.3,6.4-2.4,13.1,0,18.1c4.2,8.8,17.2,6.9,31.3,6.9C213.8,64.2,215.5,58,217.2,51.8L217.2,51.8
			L217.2,51.8z M241.6,26.1c2,14.5-5.7,30.6-11,44.6c5.4,0.5,10.1-0.1,10.5,0.3c0.4,0.5-3.6,16.7-5,16.7c-4.3,0.1-18.5,0.2-24.4,0.2
			c-19.3,0-37.3,1.3-46.5-8.3c-3.7-3.9-6.3-10.6-6.9-15.3c-1-7.9,0.3-16.5,2.1-23.6c1.6-6.4,3.8-12.5,6.9-18.1
			c8.1-14.2,22.2-24.7,45.9-22.2c4.6,0.5,11.2,2.5,15.3,4.9c0.3,0.2,1.3,1,1.5,1.1C235.4,9.8,240.5,18.3,241.6,26.1L241.6,26.1
			L241.6,26.1z"/>
		<path class="st0" d="M156.2,18.5c-1.2,5.3-2.3,11.3-3.6,16.6h-19.5c1.5-5.8,2.7-11.6,4.2-16.7C143.6,18.4,149.4,18.5,156.2,18.5"
			/>
		<path class="st0" d="M132.5,40h18.8c-2.5,13.6-7.3,35.5-11.1,50.7c-2.4,9.5-4,16.5-10.4,21.5c-0.6,0.5-0.9,0.2-1.4,0.7
			c-1.2,1.1-6.7,2.4-9.7,2.8c-4.9,0.5-10.5,0.1-16.6-0.1c1.6-5.8,3.4-12.8,4.8-18c14.8,1.8,15.2-12.2,18.1-25.7
			C126.5,64.1,131.5,43.1,132.5,40"/>
		<g transform="translate(0.000000, 8.827586)">
			<path class="st0" d="M88.7,66.6l-0.4,1c-6.9,13.3-19,21.5-36.3,21.9c-8.1,0.2-15.8-1.9-20.8-4.2c-10.9-4.9-20-13.9-25-23.6
				C-1,47.8-2.3,28.5,12.6,14.1c0.2,0-1.8,3.1-1.6,3.1l-0.4,1.3C-0.1,52.2,32.9,81,65.1,77.7C72.8,76.9,82.7,72.7,88.7,66.6"/>
			<path class="st0" d="M69.3,52.7c8.1,0.1,16.5-3.7,21.5-9c-4.4,11.1-17,18.3-34,16C42.5,57.7,29,43.4,27.6,29
				c-1-10.4,2.6-16.7,8.6-24.2c-2.1,4-2.9,7-3.1,8.9C30.8,36.3,51.2,52.5,69.3,52.7"/>
			<path class="st0" d="M90,24.6c-1.3,2.9-8.5,8.3-11.7,9c-12.7,2.7-20.8-3.3-25-10.1c-0.6-1-1.8-3.8-2-4.5
				c-1.6-5.6-0.9-14.1,4-18.5c-1.5,4.2-1.7,9-0.9,12.2c0.5,1.9,1.9,5.2,3.3,7.3c2.6,3.8,4.3,4.7,7.6,6.8c1.5,0.9,3.1,1.6,3.8,1.8
				C72.4,29.5,79.1,32,90,24.6"/>
		</g>
	</g>
</g>
</svg>
