<?xml version="1.0" encoding="utf-8"?>
<!-- Generator: Adobe Illustrator 24.0.1, SVG Export Plug-In . SVG Version: 6.00 Build 0)  -->
<svg version="1.1" id="Layer_1" xmlns="http://www.w3.org/2000/svg" xmlns:xlink="http://www.w3.org/1999/xlink" x="0px" y="0px"
	 viewBox="0 0 944.1 30" style="enable-background:new 0 0 944.1 30;" xml:space="preserve">
<style type="text/css">
	.st0{fill:none;stroke:#FFFFFF;stroke-width:10;stroke-miterlimit:10;}
</style>
<g>
	<polyline class="st0" points="-3,8.3 16,22.3 34.9,8.3 53.8,22.3 72.8,8.3 91.7,22.3 110.7,8.3 129.6,22.3 148.5,8.3 167.5,22.3 
		186.4,8.3 205.4,22.3 224.3,8.3 243.2,22.3 262.2,8.3 281.1,22.3 300,8.3 319,22.3 337.9,8.3 356.9,22.3 375.8,8.3 394.7,22.3 
		413.7,8.3 432.6,22.3 451.6,8.3 470.5,22.3 489.4,8.3 508.4,22.3 527.3,8.3 546.3,22.3 565.2,8.3 584.1,22.3 603.1,8.3 622,22.3 
		641,8.3 659.9,22.3 678.9,8.3 697.8,22.3 716.7,8.3 735.7,22.3 754.6,8.3 773.6,22.3 792.5,8.3 811.5,22.3 830.4,8.3 849.3,22.3 
		868.3,8.3 887.2,22.3 906.2,8.3 925.1,22.3 944.1,8.3 963,22.3 	"/>
</g>
</svg>
