<?xml version="1.0" encoding="utf-8"?>
<!-- Generator: Adobe Illustrator 22.0.1, SVG Export Plug-In . SVG Version: 6.00 Build 0)  -->
<svg version="1.1" id="Layer_1" xmlns="http://www.w3.org/2000/svg" xmlns:xlink="http://www.w3.org/1999/xlink" x="0px" y="0px"
	 viewBox="0 0 20 20" style="enable-background:new 0 0 20 20;" xml:space="preserve">
<style type="text/css">
	.st0{fill:#FFFFFF;}
</style>
<path class="st0" d="M18.3,2.5c0.9,0,1.7,0.7,1.7,1.7v11.7c0,0.9-0.7,1.7-1.7,1.7H1.7c-0.9,0-1.7-0.7-1.7-1.7V4.2
	c0-0.9,0.7-1.7,1.7-1.7H18.3z M7.2,11.3l-4.9,4.9h15.3l-4.9-4.8L10,13.3L7.2,11.3z M18.6,7.3l-4.8,3.3l4.8,4.7V7.3z M1.4,7.4v7.8
	L6,10.6L1.4,7.4z M18.3,3.8H1.7c-0.1,0-0.2,0-0.3,0.1S1.4,4,1.4,4.1v1.6l8.6,5.9l8.6-6V4.2c0-0.1,0-0.2-0.1-0.3
	C18.5,3.8,18.4,3.8,18.3,3.8z"/>
</svg>
