<?xml version="1.0" encoding="utf-8"?>
<!-- Generator: Adobe Illustrator 24.0.1, SVG Export Plug-In . SVG Version: 6.00 Build 0)  -->
<svg version="1.1" id="Layer_1" xmlns="http://www.w3.org/2000/svg" xmlns:xlink="http://www.w3.org/1999/xlink" x="0px" y="0px"
	 viewBox="0 0 24 24" style="enable-background:new 0 0 24 24;" xml:space="preserve">
<style type="text/css">
	.st0{fill:none;}
	.st1{fill:#FFFFFF;}
</style>
<g>
	<path class="st0" d="M0,0h24v24H0V0z"/>
	<path class="st1" d="M12,20.69l5.33-5.33c2.94-2.94,2.94-7.71,0-10.65s-7.71-2.94-10.65,0c-2.94,2.94-2.94,7.71,0,10.65L12,20.69z
		 M12,23.73l-6.85-6.85c-3.78-3.78-3.78-9.91,0-13.69s9.91-3.78,13.69,0c3.78,3.78,3.78,9.91,0,13.69L12,23.73z M12,14.34
		c-2.38,0-4.3-1.93-4.3-4.3s1.93-4.3,4.3-4.3s4.3,1.93,4.3,4.3S14.38,14.34,12,14.34z"/>
</g>
</svg>
