<svg id="Layer_1" data-name="Layer 1" xmlns="http://www.w3.org/2000/svg" viewBox="0 0 960 548"><defs><style>.cls-1{fill:none;stroke:#fff;stroke-linecap:round;stroke-linejoin:round;stroke-width:5px;}</style></defs><title>map-czech-republic</title><polygon class="cls-1" points="949.7 322 948.9 320.1 947.4 316.4 946.7 314.3 945.8 306.9 945.2 305.2 943.1 303.6 941 303.9 938.9 305 936.8 305.2 935.1 304.1 932.3 300.8 930.5 299.2 928.6 298.7 924.4 298.3 922.4 297.1 921.6 295.5 920.2 289.2 916.8 282.4 914.5 275.9 914.5 270.1 918.2 265.7 914.5 263.8 914 261.1 913 257.6 912.1 253.6 910 252.4 904.6 255.6 901.4 255.6 891 250.1 885.6 248.2 880 249.7 880.8 249.7 881 249.8 881.2 250 881.4 250.4 877.4 253.8 875.5 254.1 872.6 251.8 871.7 250.4 870.8 247 870.3 245.7 868.6 244.5 865.2 243.7 863.6 243 859.1 239.1 857 237.8 847.9 236 846.1 233.9 847 229.8 838.7 224.2 834.4 223.1 835.1 228.2 835.9 228.5 836.9 228.2 838.6 228.2 839.6 229.4 839.8 231.5 839.1 232.4 834.6 233.8 829 233.9 826.5 234.6 822.5 238.3 817.4 239.9 812.3 238.9 803.2 229.9 801.6 227.8 800.5 225.2 799.6 222.5 798.8 220.1 797.2 218.2 796 216.9 795.6 215.7 796 214.5 796.2 213.4 796.2 212.7 795.3 212.4 791.4 210.4 789.7 209.9 788.1 210.3 786.9 211 785.4 211.1 783.3 210.3 776.5 201.7 776.1 200.1 777.2 198 778.8 197.3 785.4 197.1 789.1 195.7 795.1 192.2 797.9 189.7 799.1 186.4 797 182.4 795.6 181 795.3 178.9 795.6 176.8 797.2 172.7 797.4 172 797.4 170.8 797.2 170.3 794.6 166.7 793.7 166.1 791.4 165.2 790.5 165.7 790.2 167.3 789.5 169 785.3 174.8 782.8 176.8 779.7 177.6 767.2 175.4 760.5 176.1 756.5 181 755.8 181.5 755.1 181.7 754.4 181.5 753.7 181 752.5 176.9 749.5 174.5 746.3 174.7 744.7 178.7 742.8 177.3 741.8 175 741.6 172.2 741.8 169.4 741.1 168.9 740.5 168.2 740 167.5 739.7 166.6 742.3 165.5 739.3 164.3 732.8 164.5 729.5 163.6 724.6 160.5 723.2 159 722.3 157.1 721.4 154.3 720.9 151.8 721.2 151.3 719.7 150.8 715.4 151.7 714.4 151.7 712.6 150.8 709.2 148 707.6 147.1 693 143.2 689.8 143.5 683.8 139.9 680.6 139.5 676.7 141.8 676.7 144.7 681.3 151.3 682.9 155.3 684 159.8 685.4 164 688.1 166.6 691.4 168.5 694.1 171.3 695.5 175.1 695.7 180.3 697.7 182.7 697.8 185.5 696.9 187.4 695.2 186.7 693.8 184.5 693 183.3 692.2 182.7 690.2 182.7 689.8 183.3 689.8 186.2 689 187.5 687.7 187.5 685.1 186.3 683.8 186.3 682.3 187.6 680 190.7 678.6 191.9 675.4 192.8 672.6 192.6 669.8 193 666.7 195.6 664.2 199.5 662.6 202.4 660.9 204.9 657.7 207.2 653.3 213.1 647.7 213.5 641.9 210.3 637.2 206 634.8 202.8 633.5 200 632 192.6 630.4 188.6 626.2 184.2 624.4 181.1 622.5 178.3 619 171.8 617.1 169 613.9 166.9 607.8 164.6 605.3 161.3 605 159.3 605.1 157.4 605 155.3 604.1 153.2 602.9 152.9 596.5 152.9 594.9 153.3 593.9 154.1 592.8 154.3 591.1 152.9 590.4 151.7 588.6 146.1 584.1 145.2 582.8 141.3 583.9 137.8 586.7 138.5 586.5 137.8 585.8 134.9 586.7 134.9 587.9 134.5 588.6 134.1 590.7 132.4 593.2 131 595.3 129.2 596.3 126.4 598.4 125.7 603 126.9 605.5 126.4 606.7 124.6 609.5 121.8 610.7 120.1 609.8 121.2 609.8 119.9 609.7 118.2 609.8 117.1 610.6 115.9 611 115.4 611 114.7 610.4 112.9 614.8 111.2 613.6 107 601.6 94.3 597.4 91.8 592.9 90.8 587.7 90.6 586 90.9 584.9 93.2 583.9 96 582.1 98.2 579.8 98.7 577.7 97.6 573.3 94.3 567.3 93.8 558.7 102.2 552.8 103.3 552.4 102.5 552.4 101.6 552.8 101 554.7 99.4 555 96.7 554.3 93.8 553.1 90.8 551.3 87.3 549.4 85.5 547.1 85.2 538.9 88.3 535 88.3 534.1 88 527.1 76 526.8 74.6 526.4 73.1 522.9 72.7 511.3 75.5 509.9 75 508.9 73.9 506.9 71.1 505.4 70.1 477.4 60.3 471.7 60.8 470.4 62.4 469 64.6 467.4 66.2 465.5 65.5 464.6 63.8 464.8 61.7 465.2 59.4 465.2 56.3 463.4 52.1 461.3 50.4 458.8 49.2 456 46.9 454.6 44.5 453 40.8 451.8 37 451.4 33.9 452.5 29.9 453.7 27.6 453.9 25.6 451.6 21.9 447.9 20.2 440 20 438.8 16.7 438.1 13.4 436.5 12.5 434.7 13.8 433.5 16.7 433 19 431.4 19.3 429.4 18.3 427.9 16.7 426.6 14.6 419.6 13 416.9 10.6 416.6 12.4 415.9 13.4 413.8 14.8 413.1 15 412.2 15.3 411.5 15.8 410.8 16.5 411.5 19 413.8 20.7 415.9 23.8 416.1 30.1 415.7 31.3 414.3 32.9 413.9 33.6 413.8 34.8 413.8 35.6 414.1 36.3 414.3 44 413.9 45.9 397.9 44.7 392.8 46.1 389.8 45.9 387.9 51.8 386.5 54.4 385.1 56 382.8 56.5 379.8 56.3 374.5 55.1 369.1 51.1 367.1 50.1 362.2 48.7 361.5 47.1 362 43.1 364.3 37.6 365.2 34.6 364.5 32.2 362.7 32.2 354.8 34.9 353.2 33.7 353.9 31.1 355.7 28 356.8 25.4 356.9 22.1 356.6 20 355.5 18.3 353.8 16.2 352 14.8 348.3 13.9 346.5 12.7 345.3 11 344.8 9.8 344.4 8.4 343.6 6.5 342.3 9.6 340.7 10.4 335.6 10.1 331.8 11.8 330.2 11.8 328.6 11 327.8 9.8 327.1 8.6 326 7.5 320.9 5.8 316.5 6.5 313.3 9.8 311.4 16 309.8 18.2 311.4 19.3 316 19.9 318.8 21 318.6 21.5 317.4 22.4 317.2 24.6 320.7 28 325.7 29.6 329.3 31.7 328.5 37 324.5 40.5 313.8 39.6 308.8 40.6 307.2 42 304.6 45.8 302.9 47.4 281.5 57.2 278.9 57.4 273.9 56.7 271.2 57.2 269.8 58.2 267.7 61 266.3 62 264.6 62.4 263.2 62 262.1 62 260.8 63.7 260.2 65.9 260.4 68 260.8 69.6 260.8 70.9 259.7 72.4 258.8 72.8 257.4 72.8 253.4 75.5 250.9 76.1 244.6 75.4 241.6 75.7 236.4 77.6 233.7 77.6 221.1 77.6 214.8 79.4 209 82.9 210.6 86.2 210.1 89.2 208.1 91.7 205.8 93.4 206.7 95.2 206.5 96.6 205.7 97.6 204.3 98.5 201.8 101.5 199.5 103.6 196.9 104.3 193.7 102.7 192.9 101.5 190.9 98.2 190.2 97.3 188.5 96.6 187.9 96.8 187.9 97.6 187.2 98.5 182 102.2 181.1 103.6 179.7 108 176.7 109.4 174.4 108.3 172.2 106.8 169.5 106.6 165 119 163 122.7 159.5 125.4 152.2 125 148.1 126.4 146.9 126.8 145.7 126.9 144.4 126.8 143.2 126.4 142.2 125.7 141.1 125.5 139.9 125.9 138.7 126.8 137.8 135.7 136.9 139.7 135 142 130.8 146.1 126 145.7 113 137.8 111.8 137.5 110.6 137.6 109.7 139 108.8 139.4 106.4 139 104.1 139.2 101.8 140.1 100.1 141.9 96.9 146.6 95.3 148.2 93.6 148.3 86 146.9 75.7 147.6 70.1 149.4 66.2 152.7 65.1 153.6 64.6 154.6 64.3 155.7 63.6 156.6 63.6 157.1 64.8 157.8 64.8 158.8 64.4 159.7 63.9 160 62.6 160 62.1 160.4 60.3 161.8 56.1 164.1 54.5 165.5 49.9 173.4 48.3 174.9 46.6 176 45.4 177.7 45 181.3 42.1 184.8 41.4 186.9 40.8 190.7 41.2 193.4 42.1 195.7 42.1 197 40.2 198.4 38 198.1 36.6 195.8 34.9 189.7 34.8 188.6 34.6 187.3 34.1 185.9 33.6 185 31.2 182.5 30.8 182 30.7 181.4 30.8 181.1 31.2 180.7 31.3 180.5 31.5 180.4 31.9 180.4 32.5 179.1 32.5 178 32 177.3 31 176.8 26.7 176.8 24.6 176.4 23 175 21.8 173.2 21.8 169.6 21.6 167.6 19 165.7 8.8 165 12 168.3 13.2 170.3 13.7 173.4 13.6 176.2 12.7 177.3 11.3 178.2 9.5 180.8 10.9 183.4 17.8 187.6 21.1 191.5 22.7 194 23.8 196.6 24.1 199.9 23 204.8 23 208.1 24.1 211.5 25.9 213.2 28.1 214.5 29.9 216.2 31 218.3 31.3 220.6 31.3 222.5 31.8 223.9 51.5 235.3 53.7 235.3 55.8 237.4 60.9 238 63.1 240.2 63.5 243.4 62.5 246.4 62.3 248.7 68.1 252 70 252.7 70.9 254.3 70.4 258.5 69.3 261.8 66 267.8 64.9 271.1 62.1 270.2 61.2 273.2 61.2 277.8 60.9 281.3 58.6 283.6 52.8 286 51.2 289.4 51.9 291.6 53.3 294.5 56.1 298.7 58.2 300.4 60.3 301.8 64.9 304.1 66.8 305.2 68.1 307.4 68.3 310.2 67 312.9 67.4 313 68.6 313.6 67.9 315.3 67.7 315.8 69.1 317.6 72.5 319.5 73.9 321.1 74.9 323.4 75.6 328.1 76.2 330.6 77.9 333.6 78.8 335.5 79.9 337.1 81.4 338.7 83 339.2 84.4 339 85.5 339.9 85.7 343.6 86 350.6 86.7 354.1 88.3 357.2 91.1 359.5 97.4 362.5 100.3 365.5 104.8 375.7 106.9 378 109.7 379 118 380.2 120.6 379.9 120.1 377.1 122 376.4 127.5 377.8 129.8 379 131.7 380.6 135.6 384.8 138 385.8 138.8 387.6 138.9 389.7 139.6 391.6 144 396.9 145.8 397.9 158.8 415.7 160.7 419.9 162.8 423.4 166.7 425.7 175.1 426 177.9 427.1 179.7 428.5 183.9 434.1 189.9 440.1 191.5 443.7 191.5 449.7 193.4 452.9 197.4 456.6 201.8 459.8 205.2 461.3 206.6 457.6 207.8 455.4 209.7 454.5 212.9 455.2 215.4 456.6 217.6 458.5 219.9 459.8 222.5 459.6 222.9 463.6 224.3 467.5 226.4 470.8 228.9 473.1 231.5 474.3 236.8 475.2 238.7 476.2 241.1 481.7 247.8 495.2 250.6 498 256.2 499.6 258.9 501 261.3 502.9 264.5 505.4 274 510.6 275.2 512 277.5 515.5 278.3 517.3 279.1 518 280.1 518.3 281 518.9 281.3 520.1 281.2 521.3 280.5 521.5 279.8 521.3 279.4 521.7 278.5 523.6 277.6 524 277.5 524.7 278.2 527.5 278.9 528.5 281.3 531.5 282.6 532.6 287.3 534.6 307.1 536.8 321 541.7 322.4 541.5 323.5 541 326.3 538.7 333.5 535.5 335.7 533.3 338.9 525 341 523.6 344.5 527.8 350.1 530.8 351.7 531.1 353.8 530.6 358 528.7 360.1 528.5 361 529.2 361.2 530.6 361.2 532 361.7 532.9 363.5 532.9 365.6 532.2 366.5 532.4 367.9 534.3 368.7 536.2 369.8 537.6 372 537.8 374.8 535 375.5 529.6 375.5 523.1 376 517.3 378.7 513.1 386 506.6 386.7 502.6 387.9 500.1 388.4 497.5 389.3 495.4 391.4 494.7 398.7 495.7 405.8 498.7 408.6 498.5 410.1 494.8 409.8 494.5 409.3 493.1 408.6 491.3 408.4 489.9 408.6 488.5 409.6 485.7 412.6 472.4 412.6 466.6 411.4 460.1 411.4 454.1 413.5 449.7 412.6 448.5 412.6 446.8 412.8 446.1 413.1 445.7 416.5 445.3 424.6 448.1 436 449 437.1 452.1 437.7 455 437.7 458.1 436.8 461.2 439.7 461.2 451 458.3 451.7 457.7 453.7 455.4 454.3 454.3 454.7 451.4 455.2 450.4 455 450.4 455.6 451.8 456.2 452.9 456.9 454 463.7 454 467.2 454.7 473.8 458.2 479.8 460.3 482.8 462 489.5 467.9 500.9 472.4 511.6 478.4 514.8 479.1 518.4 479.1 520.6 478.4 525.4 475.9 526.6 475.5 531.2 475.5 532 476.2 532.5 478.6 533.2 479.6 534 479.9 536.4 480.1 537.9 481 538.8 481.5 540.2 481.5 538.8 483.6 540.6 482.7 542 482.7 543.3 483.6 543.5 485.9 545.7 485.3 546.4 486.2 546.4 487.6 546.6 488.7 560.7 498.8 568 501.9 581 501.2 600.5 504 600.7 503.9 603.7 503.3 605.6 504.9 606.3 505.1 608.6 504.4 610.2 503 617.2 490.9 619.6 489.3 623.7 489.9 625.1 489.9 627.6 488.8 628.8 488.7 630 489.2 632.3 490.7 640.7 493.2 643.3 493.6 646 494.6 647 497.2 647.6 500.2 648.6 502.6 650.6 503.8 652.8 504.2 658.1 504 660.2 504.7 665.3 508 667.9 509.1 670.6 508.8 676 506.8 678.3 507 681.6 511.5 683.5 525.3 688.5 530.9 688.8 526.9 690.9 524.3 692.5 521.3 699.5 501.1 703 495.3 707.8 491.1 709.7 488.5 710.6 484.4 711.8 482.5 719.4 477.1 725.7 475.9 732.3 477.6 748.3 485.7 750.8 485.2 756.1 481.7 759.4 480.6 761.3 481.7 765.5 486.2 770.6 487.1 797.5 476.6 799.9 474.7 804.7 466.5 807 464.5 810.3 464 813.3 464.5 815.9 464.4 818.6 461.9 819.6 459 820.7 452.5 821.5 449.3 823.5 445.7 826.4 443.8 829.8 443.2 837.3 443.7 841.9 441.6 846.1 437.8 849.1 432.9 850 428.2 850 417.6 850.2 412 851.9 405 854.6 398.5 857.9 393 861.9 389.2 880.7 381.8 889.1 375.2 889.5 365 893.5 365.9 896.7 363.8 902.6 356.4 907.2 353.9 908.2 352.7 908.9 350.8 909.3 346.7 910 345 912.8 343.2 918.9 344.1 923 342 923.9 341.8 924.9 342 929.5 344.3 933.5 345.5 937.4 345.3 943.1 340.1 945.8 339.2 951.4 339 951.9 335.5 951.6 331.1 949.7 322"/></svg>