<?xml version="1.0" encoding="utf-8"?>
<!-- Generator: Adobe Illustrator 24.0.1, SVG Export Plug-In . SVG Version: 6.00 Build 0)  -->
<svg version="1.1" id="Layer_1" xmlns="http://www.w3.org/2000/svg" xmlns:xlink="http://www.w3.org/1999/xlink" x="0px" y="0px"
	 viewBox="0 0 32 21.7" style="enable-background:new 0 0 32 21.7;" xml:space="preserve">
<style type="text/css">
	.st0{fill:#FFFFFF;}
</style>
<path class="st0" d="M21.9,2.2c-0.2,0-0.3,0-0.4,0v0h0c0.1,0.1,0.2,0.2,0.3,0.4c0.1,0.1,0.1,0.3,0.2,0.4l0,0
	c0.1-0.1,0.2-0.2,0.2-0.4c-0.1-0.1-0.1-0.1-0.1-0.2C22.1,2.3,21.9,2.3,21.9,2.2z M7.7,19.8H6.5c0-2.1-0.2-4-0.4-5.9h0l-1.9,5.9H3.3
	l-1.9-5.9h0c-0.1,1.8-0.2,3.7-0.3,5.9H0c0.1-2.6,0.3-5.1,0.5-7.4h1.5l1.8,5.4h0l1.8-5.4h1.5C7.4,15.1,7.6,17.6,7.7,19.8L7.7,19.8z
	 M13,14.4c-0.5,2.7-1.2,4.7-2,5.9c-0.6,1-1.3,1.4-2.1,1.4c-0.2,0-0.5-0.1-0.8-0.2v-0.7c0.2,0,0.3,0,0.5,0c0.4,0,0.6-0.1,0.9-0.3
	c0.3-0.2,0.4-0.5,0.4-0.8c0-0.2-0.1-0.6-0.3-1.3l-1.3-4.2h1.2l1,3.1c0.2,0.7,0.3,1.2,0.3,1.5c0.5-1.4,0.9-3,1.1-4.6L13,14.4z
	 M29.5,19.8H26v-7.4h1.2v6.5h2.3L29.5,19.8z M25.1,20l-1.4-0.7c0.1-0.1,0.2-0.2,0.3-0.3c0.6-0.7,0.9-1.7,0.9-3c0-2.4-1-3.7-2.9-3.7
	c-0.9,0-1.7,0.3-2.2,0.9c-0.6,0.7-0.9,1.7-0.9,3c0,1.3,0.3,2.2,0.8,2.9c0.5,0.5,1.2,0.8,2.1,0.8c0.3,0,0.7,0,1-0.1l1.8,1L25.1,20
	L25.1,20z M20.7,18.3c-0.3-0.5-0.4-1.3-0.4-2.3c0-1.9,0.6-2.8,1.7-2.8c0.6,0,1,0.2,1.3,0.7c0.3,0.5,0.4,1.2,0.4,2.3
	c0,1.9-0.6,2.8-1.7,2.8C21.4,19,20.9,18.8,20.7,18.3L20.7,18.3z M18.5,17.8c0,0.6-0.2,1.1-0.7,1.5c-0.5,0.4-1.1,0.6-1.8,0.6
	c-0.7,0-1.4-0.2-2.1-0.7l0.3-0.6c0.6,0.3,1.1,0.4,1.6,0.4c0.4,0,0.8-0.1,1-0.3c0.3-0.2,0.4-0.5,0.4-0.8c0-0.4-0.3-0.8-0.9-1.1
	c-0.5-0.3-1.6-0.9-1.6-0.9c-0.6-0.4-0.8-0.8-0.8-1.6c0-0.6,0.2-1.1,0.6-1.4c0.4-0.4,1-0.6,1.6-0.6c0.7,0,1.3,0.2,1.9,0.5l-0.3,0.6
	c-0.5-0.2-1-0.3-1.4-0.3c-0.4,0-0.7,0.1-0.9,0.3s-0.3,0.4-0.3,0.7c0,0.4,0.3,0.8,0.9,1.1c0.5,0.3,1.6,0.9,1.6,0.9
	C18.2,16.6,18.5,17,18.5,17.8L18.5,17.8z M31,9.9c-0.7,0-1.3,0.1-1.7,0.3c-0.1,0.1-0.3,0.1-0.4,0.2c0.1,0.1,0.1,0.2,0.1,0.3
	c0.1,0.2,0.3,0.4,0.5,0.5c0.2,0.1,0.4,0.3,0.6,0.4c0.3,0.2,0.7,0.3,1.1,0.6c0.2,0.1,0.4,0.3,0.6,0.4c0.1,0.1,0.2,0.2,0.3,0.2v0
	c-0.1-0.1-0.1-0.2-0.1-0.3c-0.1-0.1-0.2-0.2-0.3-0.3c-0.3-0.3-0.6-0.7-0.9-0.9c-0.3-0.2-0.9-0.5-1-0.8l0,0c0.2,0,0.4-0.1,0.6-0.1
	c0.3-0.1,0.6-0.1,0.9-0.1c0.1,0,0.3-0.1,0.4-0.1v-0.1c-0.2-0.2-0.3-0.4-0.4-0.5c-0.5-0.4-1-0.8-1.5-1.1C29.4,8.3,29,8.2,28.7,8
	c-0.1-0.1-0.3-0.1-0.3-0.2c-0.2-0.2-0.3-0.5-0.4-0.7c-0.3-0.5-0.5-1-0.7-1.6c-0.2-0.3-0.3-0.7-0.5-1c-0.9-1.5-1.9-2.4-3.4-3.3
	C23,1.1,22.6,1,22.2,0.9c-0.2,0-0.4,0-0.7,0c-0.1-0.1-0.3-0.2-0.4-0.3c-0.5-0.3-1.8-1-2.2-0.1c-0.2,0.6,0.4,1.2,0.6,1.4
	c0.2,0.2,0.3,0.4,0.5,0.7C20,2.7,20,2.9,20.1,3c0.1,0.4,0.3,0.8,0.5,1.2c0.1,0.2,0.2,0.4,0.3,0.6c0.1,0.1,0.2,0.1,0.2,0.3
	C21,5.3,21,5.5,20.9,5.8c-0.3,1-0.2,2.3,0.3,3c0.1,0.2,0.5,0.7,0.9,0.5c0.4-0.2,0.3-0.7,0.4-1.1c0-0.1,0-0.2,0.1-0.3v0
	c0.1,0.3,0.3,0.5,0.4,0.7c0.3,0.4,0.8,0.9,1.2,1.2c0.2,0.2,0.4,0.4,0.6,0.5v0h0c-0.1-0.1-0.1-0.1-0.2-0.2c-0.2-0.2-0.3-0.4-0.5-0.5
	c-0.4-0.5-0.7-1.1-1-1.6c-0.1-0.3-0.3-0.6-0.4-0.9c-0.1-0.1-0.1-0.3-0.1-0.3c-0.1,0.2-0.3,0.4-0.4,0.6c-0.2,0.4-0.2,0.9-0.3,1.3
	c0,0,0,0,0,0c-0.3-0.1-0.4-0.4-0.5-0.6c-0.3-0.6-0.3-1.7-0.1-2.4c0.1-0.2,0.3-0.8,0.2-1c-0.1-0.2-0.2-0.3-0.3-0.4
	c-0.1-0.2-0.2-0.4-0.3-0.6c-0.2-0.5-0.3-1.1-0.6-1.6c-0.1-0.2-0.3-0.5-0.4-0.7c-0.2-0.2-0.4-0.4-0.5-0.7c0-0.1-0.1-0.3,0-0.4
	c0-0.1,0.1-0.1,0.1-0.1c0.1-0.1,0.4,0,0.6,0.1c0.3,0.1,0.6,0.3,0.9,0.4c0.1,0.1,0.3,0.3,0.4,0.3h0.2c0.3,0.1,0.6,0,0.9,0.1
	c0.5,0.2,0.9,0.4,1.3,0.6c1.2,0.7,2.1,1.8,2.8,3.1c0.1,0.2,0.2,0.4,0.3,0.6c0.2,0.4,0.4,0.9,0.6,1.3s0.4,0.8,0.6,1.2
	c0.1,0.2,0.7,0.3,0.9,0.4c0.2,0.1,0.5,0.2,0.6,0.3c0.3,0.2,0.6,0.4,0.9,0.6C30.5,9.5,30.9,9.8,31,9.9L31,9.9z"/>
</svg>
