<?xml version="1.0" encoding="utf-8"?>
<!-- Generator: Adobe Illustrator 24.0.1, SVG Export Plug-In . SVG Version: 6.00 Build 0)  -->
<svg version="1.1" id="Layer_1" xmlns="http://www.w3.org/2000/svg" xmlns:xlink="http://www.w3.org/1999/xlink" x="0px" y="0px"
	 viewBox="0 0 76 76" style="enable-background:new 0 0 76 76;" xml:space="preserve">
<style type="text/css">
	.st0{fill:#FFFFFF;}
</style>
<path class="st0" d="M21.9,23.1c1.9-0.4,4.6-0.6,8.2-0.6c3.9,0,6.8,0.8,8.7,2.4c1.7,1.4,2.9,3.8,2.9,6.5c0,2.8-0.9,5.1-2.5,6.7
	c-2.1,2.1-5.5,3.1-9.3,3.1c-1,0-1.9,0-2.6-0.2v11.1h-5.3V23.1z M27.2,36.8c0.7,0.2,1.5,0.2,2.6,0.2c4,0,6.5-2,6.5-5.4
	c0-3.3-2.3-5-6-5c-1.5,0-2.5,0.1-3.1,0.3V36.8z M42.9,37.1c0-3.8,3.1-6.7,8-6.7c2.4,0,4.4,0.6,5.6,1.3l-1,3.8
	c-0.9-0.5-2.6-1.2-4.5-1.2c-1.9,0-3,0.9-3,2.2c0,1.4,1,2,3.7,3c3.8,1.4,5.6,3.4,5.7,6.5c0,3.8-3,6.7-8.7,6.7c-2.6,0-4.9-0.7-6.5-1.5
	l1-3.9c1.2,0.7,3.5,1.5,5.5,1.5c2.4,0,3.4-1,3.4-2.4c0-1.4-0.9-2.2-3.5-3.1C44.6,41.9,42.8,39.6,42.9,37.1z"/>
</svg>
