<?xml version="1.0" encoding="utf-8"?>
<!-- Generator: Adobe Illustrator 24.0.1, SVG Export Plug-In . SVG Version: 6.00 Build 0)  -->
<svg version="1.1" id="Layer_1" xmlns="http://www.w3.org/2000/svg" xmlns:xlink="http://www.w3.org/1999/xlink" x="0px" y="0px"
	 viewBox="0 0 24 12.8" style="enable-background:new 0 0 24 12.8;" xml:space="preserve">
<style type="text/css">
	.st0{fill:#FFFFFF;}
</style>
<title>PHP icon</title>
<path class="st0" d="M7,4.7H6.1L5.6,7.3h0.8c0.6,0,1-0.1,1.2-0.3c0.3-0.2,0.5-0.6,0.5-1c0.1-0.5,0.1-0.8-0.1-1
	C7.9,4.8,7.5,4.7,7,4.7z M12,0.1C5.4,0.1,0,3,0,6.5s5.4,6.3,12,6.3s12-2.8,12-6.3S18.6,0.1,12,0.1z M8.7,7.6C8.5,7.8,8.2,8,7.8,8.1
	C7.5,8.3,7.1,8.3,6.5,8.3H5.4L5,10H3.7l1.2-6.3h2.7c0.8,0,1.4,0.2,1.7,0.6c0.4,0.4,0.5,1,0.3,1.8C9.6,6.3,9.4,6.6,9.3,6.9
	C9.2,7.2,9,7.4,8.7,7.6z M12.8,8.3l0.5-2.8c0.1-0.3,0-0.5-0.1-0.7c-0.1-0.1-0.3-0.2-0.7-0.2h-1.1l-0.7,3.6H9.4L10.6,2H12l-0.3,1.7
	h1.2c0.8,0,1.3,0.1,1.6,0.4s0.4,0.7,0.3,1.3l-0.6,2.9H12.8z M20.4,6c-0.1,0.3-0.2,0.6-0.3,0.8c-0.1,0.3-0.3,0.5-0.6,0.7
	c-0.3,0.2-0.6,0.4-0.9,0.6c-0.3,0.1-0.8,0.2-1.3,0.2h-1.2L15.8,10h-1.4l1.2-6.3h2.6c0.8,0,1.4,0.2,1.7,0.6C20.4,4.7,20.5,5.3,20.4,6
	z M17.8,4.7h-0.9l-0.5,2.6h0.8c0.6,0,1-0.1,1.2-0.3c0.3-0.2,0.5-0.6,0.6-1c0.1-0.5,0-0.8-0.1-1S18.3,4.7,17.8,4.7z"/>
</svg>
