<?xml version="1.0" encoding="utf-8"?>
<!-- Generator: Adobe Illustrator 22.0.1, SVG Export Plug-In . SVG Version: 6.00 Build 0)  -->
<svg version="1.1" id="Layer_1" xmlns="http://www.w3.org/2000/svg" xmlns:xlink="http://www.w3.org/1999/xlink" x="0px" y="0px"
	 viewBox="0 0 27 27" style="enable-background:new 0 0 27 27;" xml:space="preserve">
<style type="text/css">
	.st0{fill:#FFFFFF;}
</style>
<path class="st0" d="M15.9,13.5c0,1.3-1.1,2.4-2.4,2.4s-2.4-1.1-2.4-2.4s1.1-2.4,2.4-2.4S15.9,12.1,15.9,13.5z"/>
<path class="st0" d="M13.5,19c-0.2,0-0.4,0-0.7,0c-2.8,0-5.5-0.4-8.1-1.2l0.2,0.1c-1.4-0.4-2.5-1.1-3.5-1.9l0,0
	c-0.8-0.6-1.3-1.5-1.4-2.5l0,0c0-1.6,1.7-3.2,4.7-4.2C7.2,8.5,10.1,8,13.1,8c0.1,0,0.3,0,0.4,0h0c0.1,0,0.3,0,0.4,0
	c3,0,5.8,0.5,8.5,1.3l-0.2-0.1c1.3,0.4,2.4,1,3.4,1.8l0,0c0.8,0.5,1.3,1.4,1.4,2.4l0,0c0,1.7-2,3.3-5.1,4.4C19.5,18.6,16.8,19,14,19
	C13.8,19,13.6,19,13.5,19L13.5,19L13.5,19z M13.5,9.2c-0.1,0-0.2,0-0.4,0c-2.9,0-5.7,0.5-8.3,1.3l0.2-0.1c-2.7,0.9-3.9,2.2-3.9,3.1
	c0,0.9,1.3,2.3,4.2,3.3c2.2,0.7,4.8,1.1,7.5,1.1c0.2,0,0.5,0,0.7,0l0,0c0.1,0,0.3,0,0.5,0c2.7,0,5.3-0.4,7.7-1.1l-0.2,0
	c3-1,4.3-2.4,4.3-3.3c-0.1-0.6-0.5-1.2-1-1.5l0,0c-0.9-0.7-1.9-1.2-3-1.6l-0.1,0c-2.4-0.8-5.1-1.2-7.9-1.2
	C13.8,9.1,13.6,9.1,13.5,9.2L13.5,9.2L13.5,9.2z"/>
<path class="st0" d="M8,25.5C8,25.5,8,25.5,8,25.5c-0.5,0-0.9-0.1-1.3-0.3l0,0c-1.4-0.8-1.9-3.1-1.3-6.1c0.7-3.1,1.8-5.9,3.3-8.4
	l-0.1,0.1c1.5-2.7,3.3-4.9,5.4-6.9l0,0c0.9-0.8,2-1.5,3.2-2l0.1,0c0.4-0.2,0.9-0.3,1.4-0.3c0.5,0,1,0.1,1.4,0.3l0,0
	c1.4,0.8,1.9,3.4,1.2,6.6c-0.7,3-1.8,5.6-3.3,8l0.1-0.1c-1.5,2.6-3.2,4.9-5.3,6.8l0,0c-1,0.9-2.1,1.6-3.3,2.1l-0.1,0
	C9.1,25.4,8.6,25.5,8,25.5L8,25.5L8,25.5z M9.2,11l0.5,0.3c-1.4,2.3-2.5,4.9-3.1,7.7l0,0.2c-0.5,2.8,0,4.5,0.7,4.9
	c0.2,0.1,0.4,0.2,0.7,0.2c0,0,0,0,0.1,0h0c1,0,2.5-0.6,4.2-2.1c2-1.9,3.7-4,5-6.4l0.1-0.1c1.3-2.2,2.4-4.7,3-7.3l0-0.2
	c0.6-3.1,0.1-4.9-0.7-5.4c-0.2-0.1-0.5-0.1-0.8-0.1c-0.4,0-0.7,0.1-1,0.2l0,0c-1.1,0.5-2.1,1.1-2.9,1.8l0,0c-2,1.9-3.8,4.1-5.1,6.5
	l-0.1,0.1L9.2,11z"/>
<path class="st0" d="M19,25.5c-1.3,0-3-0.8-4.7-2.3c-2.2-2-4-4.3-5.5-6.8l-0.1-0.1c-1.4-2.3-2.6-5.1-3.2-8l0-0.2
	C5.3,7.4,5.2,6.6,5.2,5.7c0-0.5,0-1,0.1-1.6l0,0.1c0.1-1,0.6-1.9,1.4-2.4l0,0c1.4-0.8,3.9,0,6.3,2.2c2,1.9,3.7,4.1,5.1,6.5l0.1,0.1
	c1.4,2.3,2.6,5,3.2,7.8l0,0.2c0.2,0.7,0.3,1.5,0.3,2.4c0,0.6,0,1.1-0.1,1.7l0-0.1c-0.1,1-0.6,1.9-1.4,2.5l0,0
	C19.9,25.4,19.5,25.5,19,25.5C19,25.5,19,25.5,19,25.5L19,25.5L19,25.5z M9.7,15.7c1.5,2.6,3.2,4.8,5.3,6.7l0,0
	c2.2,1.9,3.9,2.3,4.6,1.8c0.8-0.4,1.3-2.3,0.8-5.2c-0.7-2.9-1.8-5.4-3.2-7.7l0.1,0.1c-1.4-2.5-3-4.6-4.9-6.4l0,0
	c-2.3-2.1-4.2-2.5-5-2.1c-0.5,0.4-0.8,1-0.8,1.6v0C6.4,4.8,6.4,5.3,6.4,5.7c0,0.8,0.1,1.5,0.2,2.2l0-0.1c0.7,3,1.7,5.6,3.2,7.9
	L9.7,15.7L9.7,15.7z"/>
</svg>
