<?xml version="1.0" encoding="utf-8"?>
<!-- Generator: Adobe Illustrator 22.0.1, SVG Export Plug-In . SVG Version: 6.00 Build 0)  -->
<svg version="1.1" id="Layer_1" xmlns="http://www.w3.org/2000/svg" xmlns:xlink="http://www.w3.org/1999/xlink" x="0px" y="0px"
	 viewBox="0 0 485 485" style="enable-background:new 0 0 485 485;" xml:space="preserve">
<style type="text/css">
	.st0{fill:#FFFFFF;stroke:#FFFFFF;stroke-width:16;stroke-miterlimit:10;}
</style>
<g>
	<g>
		<g>
			<path class="st0" d="M333.2,351.8c-8.5-4.5-29.4-16.3-38.5-24.9v-23.1c28.9-16.5,48.7-46.2,55-82.5c16.4-4.7,30.6-20.1,30.6-34.2
				c0-14.3-10.8-23.8-28.6-25.8V75.8l-0.9-1.6c-0.4-0.7-9.1-16.8-27.1-32.9C300,19.9,271,8.6,240,8.6s-60,11.3-83.9,32.8
				c-18,16.1-26.7,32.2-27.1,32.9l-0.9,1.6v85.5c-17.8,2-28.6,11.5-28.6,25.8c0,14.1,14.3,29.5,30.6,34.2c6.3,36.3,26.1,66,55,82.5
				v23.1c-9,8.5-30,20.4-38.5,24.9C54,381.9,52,436.9,52,439.2l0,31.1h376v-31C428,436.9,426.6,381.6,333.2,351.8z M351.8,175.6
				c12.7,1.8,14.3,8.4,14.3,11.4c0,5.8-6.3,13.8-14.5,18.2C351.8,202.4,351.8,175.6,351.8,175.6z M113.9,187.1
				c0-3.1,1.6-9.7,14.3-11.4c0,0,0.1,26.8,0.3,29.6C120.2,200.8,113.9,192.9,113.9,187.1z M142.4,79.5c2.5-4.1,10.3-16.1,23.6-27.9
				c21.5-19.1,46.4-28.8,74-28.8s52.5,9.7,74,28.8c13.3,11.8,21.1,23.8,23.6,27.9v66.7c-42.3-4.2-99-43.2-102.8-45.8
				c-2-1.6-20.1-16.7-32-32l-11.3,8.7c8.8,11.3,20.3,22.2,27.6,28.6c-27.3,19.4-61.5,27.3-76.7,30.1V79.5z M143.6,214.4
				c-0.8-5.5-1.2-11.5-1.2-17.8v-42.8v-3.3c15.6-2.5,56.4-11.2,88.4-35.4c15.2,10.1,65.9,42,106.8,45.6v36c0,6.3-0.4,12.2-1.2,17.8
				c-4.9,35.6-23.9,64.3-52.1,78.9c-13.3,6.9-28.2,10.4-44.3,10.4s-31-3.5-44.3-10.4C167.5,278.7,148.5,249.9,143.6,214.4z
				 M280.5,310.6v16.5c-4.6,4.9-18.9,18-37.6,19.3l-5.7,0c-18.6-1.3-32.9-14.5-37.6-19.3v-16.5c12.5,4.9,26.1,7.3,40.5,7.3
				C254.4,318,267.9,315.5,280.5,310.6z M66.3,456v-16.5c0-0.8,0.9-12.3,11-26.7c17.9-25.3,50.4-39.8,74.5-47.6
				c0,0,27.1-14.2,40.4-25.3c6.2,5.9,17.7,14.9,32.6,18.9l-37.4,37.4l10.1,10.1l42.5-42.5l42.5,42.5l10.1-10.1l-37.4-37.4
				c14.9-4,26.4-13,32.6-18.9c13.3,11.2,40.4,25.3,40.4,25.3c24.2,7.7,56.8,22.1,74.6,47.4c10.2,14.5,10.8,26.1,10.8,26.7V456H66.3z
				"/>
			<rect x="230.5" y="394.1" class="st0" width="19" height="14.3"/>
			<rect x="230.5" y="422.7" class="st0" width="19" height="14.3"/>
			<path class="st0" d="M240,232.3h19V218h-11.9v-30.9h-14.3v38.1C232.9,229.1,236.1,232.3,240,232.3z"/>
		</g>
	</g>
</g>
</svg>
