<?xml version="1.0" encoding="utf-8"?>
<!-- Generator: Adobe Illustrator 22.0.1, SVG Export Plug-In . SVG Version: 6.00 Build 0)  -->
<svg version="1.1" id="Layer_1" xmlns="http://www.w3.org/2000/svg" xmlns:xlink="http://www.w3.org/1999/xlink" x="0px" y="0px"
	 viewBox="0 0 76 76" style="enable-background:new 0 0 76 76;" xml:space="preserve">
<style type="text/css">
	.st0{fill:#FFFFFF;}
</style>
<path class="st0" d="M58.7,26.6c1.3,2.3,2.9,5.3,2.9,9.6c0,3-0.9,6.8-2.7,11.3l-3.5,11.6L42.8,21.6c2.1-0.1,4-0.3,4-0.3
	c1.9-0.2,1.7-3-0.2-2.9c0,0-5.7,0.4-9.3,0.4c-3.4,0-9.2-0.4-9.2-0.4c-1.9-0.1-2.1,2.8-0.2,2.9c0,0,1.8,0.2,3.7,0.3L37,36.5
	l-7.6,22.9L16.6,21.6c2.1-0.1,4-0.3,4-0.3c1.9-0.2,1.7-3-0.2-2.9c0,0-5.7,0.4-9.3,0.4c-0.7,0-1.4,0-2.2,0C15.1,9.3,25.8,3.1,38,3.1
	c9.1,0,17.4,3.5,23.6,9.2c-0.1,0-0.3,0-0.4,0c-3.4,0-5.9,3-5.9,6.2C55.3,21.3,56.9,23.7,58.7,26.6z M66.2,37.3c2-5,2.7-9,2.7-12.5
	c0-1.3-0.1-2.5-0.2-3.6c2.7,5,4.3,10.7,4.3,16.8c0,12.9-7,24.1-17.4,30.2 M38,72.9c-3.4,0-6.7-0.5-9.9-1.4l10.5-30.4l10.7,29.4
	c0.1,0.2,0.2,0.3,0.2,0.5C46,72.2,42.1,72.9,38,72.9z M3.1,38c0-5.1,1.1-9.9,3-14.2l16.7,45.6C11.1,63.8,3.1,51.8,3.1,38z M0.2,38
	c0,20.9,16.9,37.8,37.8,37.8c20.9,0,37.8-16.9,37.8-37.8S58.9,0.2,38,0.2C17.1,0.2,0.2,17.1,0.2,38z"/>
</svg>
