<?xml version="1.0" encoding="utf-8"?>
<!-- Generator: Adobe Illustrator 24.0.1, SVG Export Plug-In . SVG Version: 6.00 Build 0)  -->
<svg version="1.1" id="Layer_1" xmlns="http://www.w3.org/2000/svg" xmlns:xlink="http://www.w3.org/1999/xlink" x="0px" y="0px"
	 viewBox="0 0 76 76" style="enable-background:new 0 0 76 76;" xml:space="preserve">
<style type="text/css">
	.st0{fill:#FFFFFF;}
</style>
<title>Adobe XD icon</title>
<path class="st0" d="M30.1,35.6l8.8,17c0.2,0.3,0.1,0.5-0.2,0.5h-5.5c-0.3,0-0.5-0.1-0.7-0.4c-2-4.2-4.1-8.3-6.2-12.8h-0.1
	c-1.9,4.2-4,8.7-6,12.9c-0.2,0.3-0.3,0.3-0.6,0.3h-5.2c-0.3,0-0.3-0.3-0.2-0.4L23,36.2l-8.4-16.7c-0.2-0.3,0-0.4,0.2-0.4h5.4
	c0.3,0,0.4,0.1,0.6,0.3c2,4.2,4,8.5,5.9,12.7h0.1c1.8-4.2,3.9-8.5,5.8-12.6c0.2-0.3,0.3-0.4,0.6-0.4h5.1c0.3,0,0.3,0.2,0.2,0.4
	L30.1,35.6z M40.5,40.8c0-7.4,4.9-13.1,12.7-13.1c0.7,0,1,0,1.6,0.1v-8.4c0-0.2,0.2-0.3,0.3-0.3h5c0.3,0,0.3,0.1,0.3,0.3v29
	c0,0.9,0,1.9,0.2,3.1c0,0.2-0.1,0.3-0.3,0.3c-2.7,1.3-5.4,1.8-8.1,1.8C45.4,53.6,40.5,49.4,40.5,40.8L40.5,40.8z M54.8,32.7
	c-0.4-0.2-1.1-0.3-1.8-0.3c-4,0-6.8,3.1-6.8,8.2c0,5.8,2.8,8.2,6.4,8.2c0.8,0,1.6-0.1,2.2-0.3L54.8,32.7L54.8,32.7z"/>
</svg>
